<svg width="16" height="16" viewBox="0 0 16 16" fill="none" xmlns="http://www.w3.org/2000/svg">
<path d="M8.0001 10.4001C8.63662 10.4001 9.24707 10.1472 9.69715 9.69715C10.1472 9.24707 10.4001 8.63662 10.4001 8.0001C10.4001 7.36358 10.1472 6.75313 9.69715 6.30304C9.24707 5.85295 8.63662 5.6001 8.0001 5.6001C7.36358 5.6001 6.75313 5.85295 6.30304 6.30304C5.85295 6.75313 5.6001 7.36358 5.6001 8.0001C5.6001 8.63662 5.85295 9.24707 6.30304 9.69715C6.75313 10.1472 7.36358 10.4001 8.0001 10.4001ZM8.4001 2.0001C8.4001 1.89401 8.35795 1.79227 8.28294 1.71726C8.20793 1.64224 8.10618 1.6001 8.0001 1.6001C7.89401 1.6001 7.79227 1.64224 7.71725 1.71726C7.64224 1.79227 7.6001 1.89401 7.6001 2.0001V3.2161C6.46905 3.31069 5.40808 3.80295 4.60552 4.60552C3.80295 5.40808 3.31069 6.46905 3.2161 7.6001H2.0001C1.89401 7.6001 1.79227 7.64224 1.71726 7.71725C1.64224 7.79227 1.6001 7.89401 1.6001 8.0001C1.6001 8.10618 1.64224 8.20793 1.71726 8.28294C1.79227 8.35795 1.89401 8.4001 2.0001 8.4001H3.2161C3.31069 9.53115 3.80295 10.5921 4.60552 11.3947C5.40808 12.1972 6.46905 12.6895 7.6001 12.7841V14.0001C7.6001 14.1062 7.64224 14.2079 7.71725 14.2829C7.79227 14.358 7.89401 14.4001 8.0001 14.4001C8.10618 14.4001 8.20793 14.358 8.28294 14.2829C8.35795 14.2079 8.4001 14.1062 8.4001 14.0001V12.7841C9.53109 12.6894 10.592 12.197 11.3945 11.3945C12.197 10.592 12.6894 9.53109 12.7841 8.4001H14.0001C14.1062 8.4001 14.2079 8.35795 14.2829 8.28294C14.358 8.20793 14.4001 8.10618 14.4001 8.0001C14.4001 7.89401 14.358 7.79227 14.2829 7.71725C14.2079 7.64224 14.1062 7.6001 14.0001 7.6001H12.7841C12.6895 6.46905 12.1972 5.40808 11.3947 4.60552C10.5921 3.80295 9.53115 3.31069 8.4001 3.2161V2.0001ZM8.0001 12.0001C6.93923 12.0001 5.92182 11.5787 5.17167 10.8285C4.42152 10.0784 4.0001 9.06096 4.0001 8.0001C4.0001 6.93923 4.42152 5.92182 5.17167 5.17167C5.92182 4.42152 6.93923 4.0001 8.0001 4.0001C9.06096 4.0001 10.0784 4.42152 10.8285 5.17167C11.5787 5.92182 12.0001 6.93923 12.0001 8.0001C12.0001 9.06096 11.5787 10.0784 10.8285 10.8285C10.0784 11.5787 9.06096 12.0001 8.0001 12.0001Z" fill="white"/>
</svg>
