<svg width="24" height="22" viewBox="0 0 24 22" fill="none" xmlns="http://www.w3.org/2000/svg">
<path opacity="0.3" d="M0 1.2V15.6C0 16.32 0.48 16.8 1.2 16.8H13.2L17.52 21.12C18.12 21.72 19.2 21.36 19.2 20.4V16.8H22.8C23.52 16.8 24 16.32 24 15.6V1.2C24 0.48 23.52 0 22.8 0H1.2C0.48 0 0 0.48 0 1.2Z" fill="#F9F9F9"/>
<path d="M19.2001 7.1998H4.8001C4.0801 7.1998 3.6001 6.7198 3.6001 5.9998C3.6001 5.2798 4.0801 4.7998 4.8001 4.7998H19.2001C19.9201 4.7998 20.4001 5.2798 20.4001 5.9998C20.4001 6.7198 19.9201 7.1998 19.2001 7.1998ZM16.8001 10.7998C16.8001 10.0798 16.3201 9.5998 15.6001 9.5998H4.8001C4.0801 9.5998 3.6001 10.0798 3.6001 10.7998C3.6001 11.5198 4.0801 11.9998 4.8001 11.9998H15.6001C16.3201 11.9998 16.8001 11.5198 16.8001 10.7998Z" fill="#F9F9F9"/>
</svg>
