<svg width="33" height="18" viewBox="0 0 33 18" fill="none" xmlns="http://www.w3.org/2000/svg">
<rect width="33" height="18" rx="6" fill="#E8FFF3"/>
<path d="M9.89355 9.46582H8.08203V8.32324H9.89355C10.1735 8.32324 10.4014 8.27767 10.5771 8.18652C10.7529 8.09212 10.8815 7.96191 10.9629 7.7959C11.0443 7.62988 11.085 7.44271 11.085 7.23438C11.085 7.02279 11.0443 6.82585 10.9629 6.64355C10.8815 6.46126 10.7529 6.31478 10.5771 6.2041C10.4014 6.09342 10.1735 6.03809 9.89355 6.03809H8.58984V12H7.125V4.89062H9.89355C10.4502 4.89062 10.9271 4.99154 11.3242 5.19336C11.7246 5.39193 12.0306 5.66699 12.2422 6.01855C12.4538 6.37012 12.5596 6.77214 12.5596 7.22461C12.5596 7.68359 12.4538 8.08073 12.2422 8.41602C12.0306 8.7513 11.7246 9.01009 11.3242 9.19238C10.9271 9.37467 10.4502 9.46582 9.89355 9.46582ZM16.2754 10.8086V8.45508C16.2754 8.28581 16.2477 8.14095 16.1924 8.02051C16.137 7.89681 16.0508 7.80078 15.9336 7.73242C15.8197 7.66406 15.6715 7.62988 15.4893 7.62988C15.333 7.62988 15.1979 7.65755 15.084 7.71289C14.9701 7.76497 14.8822 7.84147 14.8203 7.94238C14.7585 8.04004 14.7275 8.1556 14.7275 8.28906H13.3213C13.3213 8.06445 13.3734 7.85124 13.4775 7.64941C13.5817 7.44759 13.7331 7.27018 13.9316 7.11719C14.1302 6.96094 14.3662 6.83887 14.6396 6.75098C14.9163 6.66309 15.2256 6.61914 15.5674 6.61914C15.9775 6.61914 16.3421 6.6875 16.6611 6.82422C16.9801 6.96094 17.2308 7.16602 17.4131 7.43945C17.5986 7.71289 17.6914 8.05469 17.6914 8.46484V10.7256C17.6914 11.0153 17.7093 11.2529 17.7451 11.4385C17.7809 11.6208 17.833 11.7803 17.9014 11.917V12H16.4805C16.4121 11.8568 16.36 11.6777 16.3242 11.4629C16.2917 11.2448 16.2754 11.0267 16.2754 10.8086ZM16.4609 8.78223L16.4707 9.57812H15.6846C15.499 9.57812 15.3379 9.59928 15.2012 9.6416C15.0645 9.68392 14.9521 9.74414 14.8643 9.82227C14.7764 9.89714 14.7113 9.98503 14.6689 10.0859C14.6299 10.1868 14.6104 10.2975 14.6104 10.418C14.6104 10.5384 14.638 10.6475 14.6934 10.7451C14.7487 10.8395 14.8285 10.9144 14.9326 10.9697C15.0368 11.0218 15.1589 11.0479 15.2988 11.0479C15.5104 11.0479 15.6943 11.0055 15.8506 10.9209C16.0068 10.8363 16.1273 10.7321 16.2119 10.6084C16.2998 10.4847 16.3454 10.3675 16.3486 10.2568L16.7197 10.8525C16.6676 10.986 16.596 11.1243 16.5049 11.2676C16.417 11.4108 16.3047 11.5459 16.168 11.6729C16.0312 11.7965 15.8669 11.8991 15.6748 11.9805C15.4827 12.0586 15.2549 12.0977 14.9912 12.0977C14.6559 12.0977 14.3516 12.0309 14.0781 11.8975C13.8079 11.7607 13.5931 11.5736 13.4336 11.3359C13.2773 11.0951 13.1992 10.8216 13.1992 10.5156C13.1992 10.2389 13.2513 9.99316 13.3555 9.77832C13.4596 9.56348 13.6126 9.38281 13.8145 9.23633C14.0195 9.08659 14.2751 8.97428 14.5811 8.89941C14.887 8.82129 15.2419 8.78223 15.6455 8.78223H16.4609ZM20.2598 6.7168V12H18.8486V6.7168H20.2598ZM18.7607 5.33984C18.7607 5.13477 18.8324 4.96549 18.9756 4.83203C19.1188 4.69857 19.3109 4.63184 19.5518 4.63184C19.7894 4.63184 19.9798 4.69857 20.123 4.83203C20.2695 4.96549 20.3428 5.13477 20.3428 5.33984C20.3428 5.54492 20.2695 5.71419 20.123 5.84766C19.9798 5.98112 19.7894 6.04785 19.5518 6.04785C19.3109 6.04785 19.1188 5.98112 18.9756 5.84766C18.8324 5.71419 18.7607 5.54492 18.7607 5.33984ZM24.542 10.8477V4.5H25.958V12H24.6836L24.542 10.8477ZM21.2021 9.42188V9.31934C21.2021 8.91569 21.2477 8.54948 21.3389 8.2207C21.43 7.88867 21.5635 7.60384 21.7393 7.36621C21.915 7.12858 22.1315 6.94466 22.3887 6.81445C22.6458 6.68424 22.9388 6.61914 23.2676 6.61914C23.5768 6.61914 23.847 6.68424 24.0781 6.81445C24.3125 6.94466 24.5111 7.13021 24.6738 7.37109C24.8398 7.60872 24.9733 7.8903 25.0742 8.21582C25.1751 8.53809 25.2484 8.89128 25.2939 9.27539V9.5C25.2484 9.86784 25.1751 10.2096 25.0742 10.5254C24.9733 10.8411 24.8398 11.1178 24.6738 11.3555C24.5111 11.5898 24.3125 11.7721 24.0781 11.9023C23.8438 12.0326 23.5703 12.0977 23.2578 12.0977C22.929 12.0977 22.6361 12.0309 22.3789 11.8975C22.125 11.764 21.9102 11.5768 21.7344 11.3359C21.5618 11.0951 21.43 10.8118 21.3389 10.4863C21.2477 10.1608 21.2021 9.80599 21.2021 9.42188ZM22.6084 9.31934V9.42188C22.6084 9.63997 22.6247 9.84342 22.6572 10.0322C22.693 10.221 22.75 10.3887 22.8281 10.5352C22.9095 10.6784 23.0137 10.7907 23.1406 10.8721C23.2708 10.9502 23.4287 10.9893 23.6143 10.9893C23.8551 10.9893 24.0537 10.9355 24.21 10.8281C24.3662 10.7174 24.485 10.5661 24.5664 10.374C24.651 10.182 24.6999 9.96061 24.7129 9.70996V9.07031C24.7031 8.86523 24.6738 8.68132 24.625 8.51855C24.5794 8.35254 24.5111 8.21094 24.4199 8.09375C24.332 7.97656 24.2214 7.88542 24.0879 7.82031C23.9577 7.75521 23.8031 7.72266 23.624 7.72266C23.4417 7.72266 23.2855 7.76497 23.1553 7.84961C23.0251 7.93099 22.9193 8.04329 22.8379 8.18652C22.7598 8.32975 22.7012 8.49902 22.6621 8.69434C22.6263 8.88639 22.6084 9.09473 22.6084 9.31934Z" fill="#50CD89"/>
</svg>
