<svg width="152" height="22" viewBox="0 0 152 22" fill="none" xmlns="http://www.w3.org/2000/svg">
<path d="M6.07067 9.14453C6.02758 8.74136 5.846 8.42744 5.52592 8.20277C5.20893 7.9781 4.79652 7.86577 4.28871 7.86577C3.9317 7.86577 3.62547 7.91963 3.37003 8.02734C3.11458 8.13506 2.91915 8.28125 2.78374 8.46591C2.64832 8.65057 2.57907 8.86139 2.57599 9.09837C2.57599 9.29534 2.62062 9.46615 2.70987 9.6108C2.8022 9.75544 2.92685 9.87855 3.08381 9.98011C3.24077 10.0786 3.41465 10.1617 3.60547 10.2294C3.79628 10.2971 3.98864 10.354 4.18253 10.4002L5.06889 10.6218C5.4259 10.7049 5.76906 10.8172 6.09837 10.9588C6.43075 11.1004 6.72775 11.2789 6.98935 11.4943C7.25402 11.7098 7.4633 11.9698 7.61719 12.2745C7.77107 12.5792 7.84801 12.9362 7.84801 13.3455C7.84801 13.8995 7.70644 14.3873 7.4233 14.8089C7.14015 15.2275 6.73082 15.5553 6.19531 15.7923C5.66288 16.0262 5.01811 16.1431 4.26101 16.1431C3.52545 16.1431 2.88684 16.0292 2.34517 15.8015C1.80658 15.5737 1.38494 15.2414 1.08026 14.8043C0.778646 14.3673 0.61553 13.8349 0.590909 13.207H2.27592C2.30054 13.5363 2.40211 13.8103 2.58061 14.0288C2.75911 14.2473 2.99148 14.4104 3.2777 14.5181C3.567 14.6258 3.89015 14.6797 4.24716 14.6797C4.61956 14.6797 4.94579 14.6243 5.22585 14.5135C5.509 14.3996 5.73059 14.2427 5.89062 14.0426C6.05066 13.8395 6.13222 13.6025 6.1353 13.3317C6.13222 13.0855 6.0599 12.8823 5.91832 12.7223C5.77675 12.5592 5.57824 12.4238 5.3228 12.3161C5.07043 12.2053 4.77498 12.1068 4.43643 12.0206L3.3608 11.7436C2.58215 11.5436 1.96662 11.2404 1.5142 10.8342C1.06487 10.4248 0.840199 9.88163 0.840199 9.20454C0.840199 8.64749 0.991004 8.15968 1.29261 7.74112C1.5973 7.32256 2.01125 6.99787 2.53445 6.76704C3.05765 6.53314 3.65009 6.41619 4.31179 6.41619C4.98272 6.41619 5.57055 6.53314 6.07528 6.76704C6.5831 6.99787 6.98165 7.31948 7.27095 7.73189C7.56025 8.14122 7.70952 8.6121 7.71875 9.14453H6.07067ZM12.4403 16.1385C11.7293 16.1385 11.1153 15.9908 10.5983 15.6953C10.0843 15.3968 9.68883 14.9751 9.41184 14.4304C9.13485 13.8826 8.99636 13.2378 8.99636 12.4961C8.99636 11.7667 9.13485 11.1265 9.41184 10.5756C9.69191 10.0217 10.0828 9.59079 10.5844 9.28303C11.0861 8.97218 11.6755 8.81676 12.3525 8.81676C12.7896 8.81676 13.202 8.88755 13.5898 9.02912C13.9806 9.16761 14.3253 9.38305 14.6238 9.67543C14.9255 9.9678 15.1624 10.3402 15.3348 10.7926C15.5071 11.242 15.5933 11.7775 15.5933 12.3991V12.9116H9.78116V11.7852H13.9914C13.9883 11.4651 13.9191 11.1804 13.7836 10.9311C13.6482 10.6787 13.459 10.4802 13.2158 10.3356C12.9758 10.1909 12.6957 10.1186 12.3756 10.1186C12.034 10.1186 11.7339 10.2017 11.4754 10.3679C11.2169 10.531 11.0153 10.7464 10.8706 11.0142C10.7291 11.2789 10.6568 11.5697 10.6537 11.8867V12.87C10.6537 13.2824 10.7291 13.6364 10.8799 13.9318C11.0307 14.2242 11.2415 14.4489 11.5123 14.6058C11.7832 14.7597 12.1002 14.8366 12.4633 14.8366C12.7065 14.8366 12.9265 14.8028 13.1235 14.7351C13.3205 14.6643 13.4913 14.5612 13.6359 14.4258C13.7806 14.2904 13.8898 14.1226 13.9637 13.9226L15.5241 14.098C15.4256 14.5104 15.2378 14.8705 14.9608 15.1783C14.6869 15.483 14.3361 15.7199 13.9083 15.8892C13.4805 16.0554 12.9912 16.1385 12.4403 16.1385ZM20.5479 8.90909V10.2017H16.4716V8.90909H20.5479ZM17.478 7.21023H19.1491V13.8672C19.1491 14.0919 19.183 14.2642 19.2507 14.3842C19.3215 14.5012 19.4138 14.5812 19.5277 14.6243C19.6416 14.6674 19.7678 14.6889 19.9062 14.6889C20.0109 14.6889 20.1063 14.6812 20.1925 14.6658C20.2817 14.6504 20.3494 14.6366 20.3956 14.6243L20.6772 15.9308C20.5879 15.9615 20.4602 15.9954 20.294 16.0323C20.1309 16.0692 19.9309 16.0908 19.6939 16.0969C19.2753 16.1093 18.8983 16.0462 18.5629 15.9077C18.2274 15.7661 17.9612 15.5476 17.7642 15.2521C17.5703 14.9567 17.4749 14.5874 17.478 14.1442V7.21023ZM29.6897 13.0178V8.90909H31.3609V16H29.7405V14.7397H29.6666C29.5066 15.1367 29.2435 15.4614 28.8772 15.7138C28.5141 15.9661 28.0663 16.0923 27.5338 16.0923C27.0691 16.0923 26.6582 15.9892 26.3012 15.783C25.9473 15.5737 25.6703 15.2706 25.4703 14.8736C25.2702 14.4735 25.1702 13.9903 25.1702 13.424V8.90909H26.8414V13.1655C26.8414 13.6148 26.9645 13.9718 27.2107 14.2365C27.4569 14.5012 27.78 14.6335 28.1801 14.6335C28.4263 14.6335 28.6649 14.5735 28.8957 14.4535C29.1265 14.3335 29.3158 14.1549 29.4635 13.918C29.6143 13.6779 29.6897 13.3778 29.6897 13.0178ZM33.0794 18.6591V8.90909H34.7228V10.0817H34.8198C34.906 9.90933 35.0275 9.72621 35.1845 9.53232C35.3414 9.33535 35.5538 9.16761 35.8216 9.02912C36.0893 8.88755 36.4309 8.81676 36.8464 8.81676C37.3942 8.81676 37.8882 8.95679 38.3283 9.23686C38.7715 9.51385 39.1223 9.92472 39.3809 10.4695C39.6425 11.0111 39.7733 11.6759 39.7733 12.4638C39.7733 13.2424 39.6455 13.9041 39.3901 14.4489C39.1346 14.9936 38.7869 15.4091 38.3468 15.6953C37.9067 15.9815 37.4081 16.1246 36.851 16.1246C36.4448 16.1246 36.1078 16.0569 35.84 15.9215C35.5723 15.7861 35.3568 15.623 35.1937 15.4322C35.0337 15.2383 34.909 15.0552 34.8198 14.8828H34.7505V18.6591H33.0794ZM34.7182 12.4545C34.7182 12.9131 34.7828 13.3147 34.9121 13.6594C35.0444 14.0041 35.2337 14.2734 35.4799 14.4673C35.7292 14.6581 36.0308 14.7536 36.3848 14.7536C36.7541 14.7536 37.0634 14.6551 37.3127 14.4581C37.562 14.258 37.7497 13.9857 37.8759 13.641C38.0051 13.2932 38.0698 12.8977 38.0698 12.4545C38.0698 12.0144 38.0067 11.6236 37.8805 11.282C37.7543 10.9403 37.5666 10.6726 37.3173 10.4787C37.068 10.2848 36.7572 10.1879 36.3848 10.1879C36.0278 10.1879 35.7246 10.2817 35.4753 10.4695C35.226 10.6572 35.0368 10.9203 34.9075 11.2589C34.7813 11.5974 34.7182 11.996 34.7182 12.4545ZM49.641 9.14453C49.5979 8.74136 49.4163 8.42744 49.0962 8.20277C48.7792 7.9781 48.3668 7.86577 47.859 7.86577C47.502 7.86577 47.1958 7.91963 46.9403 8.02734C46.6849 8.13506 46.4895 8.28125 46.354 8.46591C46.2186 8.65057 46.1494 8.86139 46.1463 9.09837C46.1463 9.29534 46.1909 9.46615 46.2802 9.6108C46.3725 9.75544 46.4972 9.87855 46.6541 9.98011C46.8111 10.0786 46.985 10.1617 47.1758 10.2294C47.3666 10.2971 47.5589 10.354 47.7528 10.4002L48.6392 10.6218C48.9962 10.7049 49.3394 10.8172 49.6687 10.9588C50.0011 11.1004 50.2981 11.2789 50.5597 11.4943C50.8243 11.7098 51.0336 11.9698 51.1875 12.2745C51.3414 12.5792 51.4183 12.9362 51.4183 13.3455C51.4183 13.8995 51.2768 14.3873 50.9936 14.8089C50.7105 15.2275 50.3011 15.5553 49.7656 15.7923C49.2332 16.0262 48.5884 16.1431 47.8313 16.1431C47.0958 16.1431 46.4571 16.0292 45.9155 15.8015C45.3769 15.5737 44.9553 15.2414 44.6506 14.8043C44.349 14.3673 44.1858 13.8349 44.1612 13.207H45.8462C45.8709 13.5363 45.9724 13.8103 46.1509 14.0288C46.3294 14.2473 46.5618 14.4104 46.848 14.5181C47.1373 14.6258 47.4605 14.6797 47.8175 14.6797C48.1899 14.6797 48.5161 14.6243 48.7962 14.5135C49.0793 14.3996 49.3009 14.2427 49.4609 14.0426C49.621 13.8395 49.7025 13.6025 49.7056 13.3317C49.7025 13.0855 49.6302 12.8823 49.4886 12.7223C49.3471 12.5592 49.1486 12.4238 48.8931 12.3161C48.6407 12.2053 48.3453 12.1068 48.0067 12.0206L46.9311 11.7436C46.1525 11.5436 45.5369 11.2404 45.0845 10.8342C44.6352 10.4248 44.4105 9.88163 44.4105 9.20454C44.4105 8.64749 44.5613 8.15968 44.8629 7.74112C45.1676 7.32256 45.5816 6.99787 46.1048 6.76704C46.628 6.53314 47.2204 6.41619 47.8821 6.41619C48.553 6.41619 49.1409 6.53314 49.6456 6.76704C50.1534 6.99787 50.552 7.31948 50.8413 7.73189C51.1306 8.14122 51.2798 8.6121 51.2891 9.14453H49.641ZM54.3948 13.7749L54.3902 11.7575H54.6579L57.2062 8.90909H59.159L56.0244 12.3991H55.6782L54.3948 13.7749ZM52.8714 16V6.54545H54.5425V16H52.8714ZM57.3216 16L55.0134 12.7731L56.1398 11.5959L59.3206 16H57.3216ZM60.2727 16V8.90909H61.9439V16H60.2727ZM61.1129 7.9027C60.8482 7.9027 60.6205 7.81499 60.4297 7.63956C60.2389 7.46106 60.1435 7.24716 60.1435 6.99787C60.1435 6.7455 60.2389 6.5316 60.4297 6.35618C60.6205 6.17767 60.8482 6.08842 61.1129 6.08842C61.3807 6.08842 61.6084 6.17767 61.7962 6.35618C61.987 6.5316 62.0824 6.7455 62.0824 6.99787C62.0824 7.24716 61.987 7.46106 61.7962 7.63956C61.6084 7.81499 61.3807 7.9027 61.1129 7.9027ZM63.6624 18.6591V8.90909H65.3058V10.0817H65.4028C65.489 9.90933 65.6105 9.72621 65.7675 9.53232C65.9244 9.33535 66.1368 9.16761 66.4046 9.02912C66.6723 8.88755 67.0139 8.81676 67.4294 8.81676C67.9772 8.81676 68.4712 8.95679 68.9113 9.23686C69.3545 9.51385 69.7053 9.92472 69.9639 10.4695C70.2255 11.0111 70.3563 11.6759 70.3563 12.4638C70.3563 13.2424 70.2285 13.9041 69.9731 14.4489C69.7177 14.9936 69.3699 15.4091 68.9298 15.6953C68.4897 15.9815 67.9911 16.1246 67.434 16.1246C67.0278 16.1246 66.6908 16.0569 66.423 15.9215C66.1553 15.7861 65.9398 15.623 65.7767 15.4322C65.6167 15.2383 65.492 15.0552 65.4028 14.8828H65.3335V18.6591H63.6624ZM65.3012 12.4545C65.3012 12.9131 65.3659 13.3147 65.4951 13.6594C65.6275 14.0041 65.8167 14.2734 66.0629 14.4673C66.3122 14.6581 66.6138 14.7536 66.9678 14.7536C67.3371 14.7536 67.6464 14.6551 67.8957 14.4581C68.145 14.258 68.3327 13.9857 68.4589 13.641C68.5882 13.2932 68.6528 12.8977 68.6528 12.4545C68.6528 12.0144 68.5897 11.6236 68.4635 11.282C68.3373 10.9403 68.1496 10.6726 67.9003 10.4787C67.651 10.2848 67.3402 10.1879 66.9678 10.1879C66.6108 10.1879 66.3076 10.2817 66.0583 10.4695C65.809 10.6572 65.6198 10.9203 65.4905 11.2589C65.3643 11.5974 65.3012 11.996 65.3012 12.4545ZM80.224 9.14453C80.1809 8.74136 79.9993 8.42744 79.6792 8.20277C79.3622 7.9781 78.9498 7.86577 78.442 7.86577C78.085 7.86577 77.7788 7.91963 77.5233 8.02734C77.2679 8.13506 77.0725 8.28125 76.9371 8.46591C76.8016 8.65057 76.7324 8.86139 76.7293 9.09837C76.7293 9.29534 76.7739 9.46615 76.8632 9.6108C76.9555 9.75544 77.0802 9.87855 77.2371 9.98011C77.3941 10.0786 77.568 10.1617 77.7588 10.2294C77.9496 10.2971 78.142 10.354 78.3358 10.4002L79.2222 10.6218C79.5792 10.7049 79.9224 10.8172 80.2517 10.9588C80.5841 11.1004 80.8811 11.2789 81.1427 11.4943C81.4073 11.7098 81.6166 11.9698 81.7705 12.2745C81.9244 12.5792 82.0013 12.9362 82.0013 13.3455C82.0013 13.8995 81.8598 14.3873 81.5766 14.8089C81.2935 15.2275 80.8841 15.5553 80.3486 15.7923C79.8162 16.0262 79.1714 16.1431 78.4143 16.1431C77.6788 16.1431 77.0402 16.0292 76.4985 15.8015C75.9599 15.5737 75.5383 15.2414 75.2336 14.8043C74.932 14.3673 74.7689 13.8349 74.7442 13.207H76.4292C76.4539 13.5363 76.5554 13.8103 76.7339 14.0288C76.9124 14.2473 77.1448 14.4104 77.431 14.5181C77.7203 14.6258 78.0435 14.6797 78.4005 14.6797C78.7729 14.6797 79.0991 14.6243 79.3792 14.5135C79.6623 14.3996 79.8839 14.2427 80.0439 14.0426C80.204 13.8395 80.2855 13.6025 80.2886 13.3317C80.2855 13.0855 80.2132 12.8823 80.0716 12.7223C79.9301 12.5592 79.7316 12.4238 79.4761 12.3161C79.2238 12.2053 78.9283 12.1068 78.5898 12.0206L77.5141 11.7436C76.7355 11.5436 76.1199 11.2404 75.6675 10.8342C75.2182 10.4248 74.9935 9.88163 74.9935 9.20454C74.9935 8.64749 75.1443 8.15968 75.4459 7.74112C75.7506 7.32256 76.1646 6.99787 76.6878 6.76704C77.211 6.53314 77.8034 6.41619 78.4651 6.41619C79.136 6.41619 79.7239 6.53314 80.2286 6.76704C80.7364 6.99787 81.135 7.31948 81.4243 7.73189C81.7136 8.14122 81.8628 8.6121 81.8721 9.14453H80.224ZM86.5936 16.1385C85.8826 16.1385 85.2686 15.9908 84.7516 15.6953C84.2376 15.3968 83.8422 14.9751 83.5652 14.4304C83.2882 13.8826 83.1497 13.2378 83.1497 12.4961C83.1497 11.7667 83.2882 11.1265 83.5652 10.5756C83.8452 10.0217 84.2361 9.59079 84.7377 9.28303C85.2394 8.97218 85.8288 8.81676 86.5059 8.81676C86.9429 8.81676 87.3553 8.88755 87.7431 9.02912C88.1339 9.16761 88.4786 9.38305 88.7772 9.67543C89.0788 9.9678 89.3158 10.3402 89.4881 10.7926C89.6605 11.242 89.7466 11.7775 89.7466 12.3991V12.9116H83.9345V11.7852H88.1447C88.1416 11.4651 88.0724 11.1804 87.937 10.9311C87.8016 10.6787 87.6123 10.4802 87.3691 10.3356C87.1291 10.1909 86.849 10.1186 86.5289 10.1186C86.1873 10.1186 85.8873 10.2017 85.6287 10.3679C85.3702 10.531 85.1686 10.7464 85.024 11.0142C84.8824 11.2789 84.8101 11.5697 84.807 11.8867V12.87C84.807 13.2824 84.8824 13.6364 85.0332 13.9318C85.184 14.2242 85.3948 14.4489 85.6657 14.6058C85.9365 14.7597 86.2535 14.8366 86.6167 14.8366C86.8598 14.8366 87.0798 14.8028 87.2768 14.7351C87.4738 14.6643 87.6446 14.5612 87.7892 14.4258C87.9339 14.2904 88.0431 14.1226 88.117 13.9226L89.6774 14.098C89.5789 14.5104 89.3912 14.8705 89.1142 15.1783C88.8403 15.483 88.4894 15.7199 88.0616 15.8892C87.6338 16.0554 87.1445 16.1385 86.5936 16.1385ZM94.7013 8.90909V10.2017H90.6249V8.90909H94.7013ZM91.6313 7.21023H93.3025V13.8672C93.3025 14.0919 93.3363 14.2642 93.404 14.3842C93.4748 14.5012 93.5671 14.5812 93.681 14.6243C93.7949 14.6674 93.9211 14.6889 94.0596 14.6889C94.1642 14.6889 94.2596 14.6812 94.3458 14.6658C94.435 14.6504 94.5028 14.6366 94.5489 14.6243L94.8305 15.9308C94.7413 15.9615 94.6135 15.9954 94.4474 16.0323C94.2842 16.0692 94.0842 16.0908 93.8472 16.0969C93.4287 16.1093 93.0516 16.0462 92.7162 15.9077C92.3807 15.7661 92.1145 15.5476 91.9175 15.2521C91.7236 14.9567 91.6282 14.5874 91.6313 14.1442V7.21023ZM100.618 13.0178V8.90909H102.29V16H100.669V14.7397H100.595C100.435 15.1367 100.172 15.4614 99.8059 15.7138C99.4428 15.9661 98.995 16.0923 98.4625 16.0923C97.9978 16.0923 97.5869 15.9892 97.2299 15.783C96.876 15.5737 96.599 15.2706 96.399 14.8736C96.1989 14.4735 96.0989 13.9903 96.0989 13.424V8.90909H97.7701V13.1655C97.7701 13.6148 97.8932 13.9718 98.1394 14.2365C98.3856 14.5012 98.7087 14.6335 99.1088 14.6335C99.3551 14.6335 99.5936 14.5735 99.8244 14.4535C100.055 14.3335 100.244 14.1549 100.392 13.918C100.543 13.6779 100.618 13.3778 100.618 13.0178ZM104.008 18.6591V8.90909H105.652V10.0817H105.748C105.835 9.90933 105.956 9.72621 106.113 9.53232C106.27 9.33535 106.483 9.16761 106.75 9.02912C107.018 8.88755 107.36 8.81676 107.775 8.81676C108.323 8.81676 108.817 8.95679 109.257 9.23686C109.7 9.51385 110.051 9.92472 110.31 10.4695C110.571 11.0111 110.702 11.6759 110.702 12.4638C110.702 13.2424 110.574 13.9041 110.319 14.4489C110.063 14.9936 109.716 15.4091 109.275 15.6953C108.835 15.9815 108.337 16.1246 107.78 16.1246C107.373 16.1246 107.036 16.0569 106.769 15.9215C106.501 15.7861 106.286 15.623 106.122 15.4322C105.962 15.2383 105.838 15.0552 105.748 14.8828H105.679V18.6591H104.008ZM105.647 12.4545C105.647 12.9131 105.712 13.3147 105.841 13.6594C105.973 14.0041 106.162 14.2734 106.409 14.4673C106.658 14.6581 106.96 14.7536 107.313 14.7536C107.683 14.7536 107.992 14.6551 108.241 14.4581C108.491 14.258 108.678 13.9857 108.805 13.641C108.934 13.2932 108.998 12.8977 108.998 12.4545C108.998 12.0144 108.935 11.6236 108.809 11.282C108.683 10.9403 108.495 10.6726 108.246 10.4787C107.997 10.2848 107.686 10.1879 107.313 10.1879C106.956 10.1879 106.653 10.2817 106.404 10.4695C106.155 10.6572 105.965 10.9203 105.836 11.2589C105.71 11.5974 105.647 11.996 105.647 12.4545Z" fill="#2767E7"/>
<path d="M142.354 11.3536C142.549 11.1583 142.549 10.8417 142.354 10.6464L139.172 7.46447C138.976 7.2692 138.66 7.2692 138.464 7.46447C138.269 7.65973 138.269 7.97631 138.464 8.17157L141.293 11L138.464 13.8284C138.269 14.0237 138.269 14.3403 138.464 14.5355C138.66 14.7308 138.976 14.7308 139.172 14.5355L142.354 11.3536ZM122 11.5L142 11.5V10.5L122 10.5V11.5Z" fill="#2767E7"/>
</svg>
