<svg width="44" height="18" viewBox="0 0 44 18" fill="none" xmlns="http://www.w3.org/2000/svg">
<rect width="44" height="18" rx="6" fill="#FFEDEE"/>
<path d="M10.833 4.89062H12.293V9.58789C12.293 10.1348 12.1758 10.5954 11.9414 10.9697C11.7103 11.3441 11.3896 11.6257 10.9795 11.8145C10.5726 12.0033 10.1038 12.0977 9.57324 12.0977C9.04264 12.0977 8.57064 12.0033 8.15723 11.8145C7.74707 11.6257 7.4248 11.3441 7.19043 10.9697C6.95931 10.5954 6.84375 10.1348 6.84375 9.58789V4.89062H8.30859V9.58789C8.30859 9.9069 8.35905 10.1673 8.45996 10.3691C8.56087 10.571 8.70573 10.7191 8.89453 10.8135C9.08659 10.9079 9.31283 10.9551 9.57324 10.9551C9.84017 10.9551 10.0664 10.9079 10.252 10.8135C10.4408 10.7191 10.584 10.571 10.6816 10.3691C10.7826 10.1673 10.833 9.9069 10.833 9.58789V4.89062ZM14.7881 7.84473V12H13.3818V6.7168H14.7002L14.7881 7.84473ZM14.583 9.17285H14.2021C14.2021 8.78223 14.2526 8.43066 14.3535 8.11816C14.4544 7.80241 14.596 7.53385 14.7783 7.3125C14.9606 7.08789 15.1771 6.91699 15.4277 6.7998C15.6816 6.67936 15.9648 6.61914 16.2773 6.61914C16.5247 6.61914 16.751 6.65495 16.9561 6.72656C17.1611 6.79818 17.3369 6.91211 17.4834 7.06836C17.6331 7.22461 17.7471 7.43132 17.8252 7.68848C17.9066 7.94564 17.9473 8.25977 17.9473 8.63086V12H16.5312V8.62598C16.5312 8.3916 16.4987 8.20931 16.4336 8.0791C16.3685 7.94889 16.2725 7.85775 16.1455 7.80566C16.0218 7.75033 15.8688 7.72266 15.6865 7.72266C15.4977 7.72266 15.3333 7.76009 15.1934 7.83496C15.0566 7.90983 14.9427 8.014 14.8516 8.14746C14.7637 8.27767 14.6969 8.43066 14.6514 8.60645C14.6058 8.78223 14.583 8.97103 14.583 9.17285ZM20.4229 7.73242V14.0312H19.0166V6.7168H20.3203L20.4229 7.73242ZM23.7676 9.2998V9.40234C23.7676 9.78646 23.722 10.1429 23.6309 10.4717C23.543 10.8005 23.4128 11.0869 23.2402 11.3311C23.0677 11.5719 22.8529 11.7607 22.5957 11.8975C22.3418 12.0309 22.0488 12.0977 21.7168 12.0977C21.3945 12.0977 21.1146 12.0326 20.877 11.9023C20.6393 11.7721 20.4391 11.5898 20.2764 11.3555C20.1169 11.1178 19.9883 10.8428 19.8906 10.5303C19.793 10.2178 19.7181 9.88249 19.666 9.52441V9.25586C19.7181 8.87174 19.793 8.52018 19.8906 8.20117C19.9883 7.87891 20.1169 7.60059 20.2764 7.36621C20.4391 7.12858 20.6377 6.94466 20.8721 6.81445C21.1097 6.68424 21.388 6.61914 21.707 6.61914C22.0423 6.61914 22.3369 6.68262 22.5908 6.80957C22.848 6.93652 23.0628 7.11882 23.2354 7.35645C23.4111 7.59408 23.543 7.87728 23.6309 8.20605C23.722 8.53483 23.7676 8.89941 23.7676 9.2998ZM22.3564 9.40234V9.2998C22.3564 9.0752 22.3369 8.86849 22.2979 8.67969C22.262 8.48763 22.2035 8.31999 22.1221 8.17676C22.0439 8.03353 21.9398 7.92285 21.8096 7.84473C21.6826 7.76335 21.528 7.72266 21.3457 7.72266C21.1536 7.72266 20.9893 7.75358 20.8525 7.81543C20.7191 7.87728 20.61 7.9668 20.5254 8.08398C20.4408 8.20117 20.3773 8.34115 20.335 8.50391C20.2926 8.66667 20.2666 8.85059 20.2568 9.05566V9.73438C20.2731 9.97526 20.3187 10.1917 20.3936 10.3838C20.4684 10.5726 20.584 10.7223 20.7402 10.833C20.8965 10.9437 21.1016 10.999 21.3555 10.999C21.541 10.999 21.6973 10.9583 21.8242 10.877C21.9512 10.7923 22.0537 10.6768 22.1318 10.5303C22.2132 10.3838 22.2702 10.2145 22.3027 10.0225C22.3385 9.8304 22.3564 9.6237 22.3564 9.40234ZM27.4932 10.8086V8.45508C27.4932 8.28581 27.4655 8.14095 27.4102 8.02051C27.3548 7.89681 27.2686 7.80078 27.1514 7.73242C27.0374 7.66406 26.8893 7.62988 26.707 7.62988C26.5508 7.62988 26.4157 7.65755 26.3018 7.71289C26.1878 7.76497 26.0999 7.84147 26.0381 7.94238C25.9762 8.04004 25.9453 8.1556 25.9453 8.28906H24.5391C24.5391 8.06445 24.5911 7.85124 24.6953 7.64941C24.7995 7.44759 24.9508 7.27018 25.1494 7.11719C25.348 6.96094 25.584 6.83887 25.8574 6.75098C26.1341 6.66309 26.4434 6.61914 26.7852 6.61914C27.1953 6.61914 27.5599 6.6875 27.8789 6.82422C28.1979 6.96094 28.4486 7.16602 28.6309 7.43945C28.8164 7.71289 28.9092 8.05469 28.9092 8.46484V10.7256C28.9092 11.0153 28.9271 11.2529 28.9629 11.4385C28.9987 11.6208 29.0508 11.7803 29.1191 11.917V12H27.6982C27.6299 11.8568 27.5778 11.6777 27.542 11.4629C27.5094 11.2448 27.4932 11.0267 27.4932 10.8086ZM27.6787 8.78223L27.6885 9.57812H26.9023C26.7168 9.57812 26.5557 9.59928 26.4189 9.6416C26.2822 9.68392 26.1699 9.74414 26.082 9.82227C25.9941 9.89714 25.929 9.98503 25.8867 10.0859C25.8477 10.1868 25.8281 10.2975 25.8281 10.418C25.8281 10.5384 25.8558 10.6475 25.9111 10.7451C25.9665 10.8395 26.0462 10.9144 26.1504 10.9697C26.2546 11.0218 26.3766 11.0479 26.5166 11.0479C26.7282 11.0479 26.9121 11.0055 27.0684 10.9209C27.2246 10.8363 27.3451 10.7321 27.4297 10.6084C27.5176 10.4847 27.5632 10.3675 27.5664 10.2568L27.9375 10.8525C27.8854 10.986 27.8138 11.1243 27.7227 11.2676C27.6348 11.4108 27.5225 11.5459 27.3857 11.6729C27.249 11.7965 27.0846 11.8991 26.8926 11.9805C26.7005 12.0586 26.4727 12.0977 26.209 12.0977C25.8737 12.0977 25.5693 12.0309 25.2959 11.8975C25.0257 11.7607 24.8109 11.5736 24.6514 11.3359C24.4951 11.0951 24.417 10.8216 24.417 10.5156C24.417 10.2389 24.4691 9.99316 24.5732 9.77832C24.6774 9.56348 24.8304 9.38281 25.0322 9.23633C25.2373 9.08659 25.4928 8.97428 25.7988 8.89941C26.1048 8.82129 26.4596 8.78223 26.8633 8.78223H27.6787ZM31.4775 6.7168V12H30.0664V6.7168H31.4775ZM29.9785 5.33984C29.9785 5.13477 30.0501 4.96549 30.1934 4.83203C30.3366 4.69857 30.5286 4.63184 30.7695 4.63184C31.0072 4.63184 31.1976 4.69857 31.3408 4.83203C31.4873 4.96549 31.5605 5.13477 31.5605 5.33984C31.5605 5.54492 31.4873 5.71419 31.3408 5.84766C31.1976 5.98112 31.0072 6.04785 30.7695 6.04785C30.5286 6.04785 30.3366 5.98112 30.1934 5.84766C30.0501 5.71419 29.9785 5.54492 29.9785 5.33984ZM35.7598 10.8477V4.5H37.1758V12H35.9014L35.7598 10.8477ZM32.4199 9.42188V9.31934C32.4199 8.91569 32.4655 8.54948 32.5566 8.2207C32.6478 7.88867 32.7812 7.60384 32.957 7.36621C33.1328 7.12858 33.3493 6.94466 33.6064 6.81445C33.8636 6.68424 34.1566 6.61914 34.4854 6.61914C34.7946 6.61914 35.0648 6.68424 35.2959 6.81445C35.5303 6.94466 35.7288 7.13021 35.8916 7.37109C36.0576 7.60872 36.1911 7.8903 36.292 8.21582C36.3929 8.53809 36.4661 8.89128 36.5117 9.27539V9.5C36.4661 9.86784 36.3929 10.2096 36.292 10.5254C36.1911 10.8411 36.0576 11.1178 35.8916 11.3555C35.7288 11.5898 35.5303 11.7721 35.2959 11.9023C35.0615 12.0326 34.7881 12.0977 34.4756 12.0977C34.1468 12.0977 33.8538 12.0309 33.5967 11.8975C33.3428 11.764 33.1279 11.5768 32.9521 11.3359C32.7796 11.0951 32.6478 10.8118 32.5566 10.4863C32.4655 10.1608 32.4199 9.80599 32.4199 9.42188ZM33.8262 9.31934V9.42188C33.8262 9.63997 33.8424 9.84342 33.875 10.0322C33.9108 10.221 33.9678 10.3887 34.0459 10.5352C34.1273 10.6784 34.2314 10.7907 34.3584 10.8721C34.4886 10.9502 34.6465 10.9893 34.832 10.9893C35.0729 10.9893 35.2715 10.9355 35.4277 10.8281C35.584 10.7174 35.7028 10.5661 35.7842 10.374C35.8688 10.182 35.9176 9.96061 35.9307 9.70996V9.07031C35.9209 8.86523 35.8916 8.68132 35.8428 8.51855C35.7972 8.35254 35.7288 8.21094 35.6377 8.09375C35.5498 7.97656 35.4391 7.88542 35.3057 7.82031C35.1755 7.75521 35.0208 7.72266 34.8418 7.72266C34.6595 7.72266 34.5033 7.76497 34.373 7.84961C34.2428 7.93099 34.137 8.04329 34.0557 8.18652C33.9775 8.32975 33.9189 8.49902 33.8799 8.69434C33.8441 8.88639 33.8262 9.09473 33.8262 9.31934Z" fill="#EE0000"/>
</svg>
