<svg width="14" height="14" viewBox="0 0 14 14" fill="none" xmlns="http://www.w3.org/2000/svg">
<path d="M7 12.1915L9.8875 9.30396C10.4585 8.73288 10.8474 8.0053 11.0049 7.21322C11.1624 6.42114 11.0815 5.60014 10.7725 4.85403C10.4634 4.10793 9.94003 3.47022 9.26854 3.02156C8.59705 2.57289 7.80759 2.33342 7 2.33342C6.19241 2.33342 5.40296 2.57289 4.73147 3.02156C4.05998 3.47022 3.5366 4.10793 3.22753 4.85403C2.91846 5.60014 2.83758 6.42114 2.9951 7.21322C3.15262 8.0053 3.54148 8.73288 4.1125 9.30396L7 12.1915ZM7 13.8411L3.28767 10.1288C2.55345 9.39456 2.05344 8.4591 1.85087 7.4407C1.64831 6.42231 1.75228 5.36671 2.14964 4.4074C2.547 3.44809 3.21991 2.62816 4.08327 2.05128C4.94662 1.47441 5.96165 1.1665 7 1.1665C8.03835 1.1665 9.05338 1.47441 9.91674 2.05128C10.7801 2.62816 11.453 3.44809 11.8504 4.4074C12.2477 5.36671 12.3517 6.42231 12.1491 7.4407C11.9466 8.4591 11.4466 9.39456 10.7123 10.1288L7 13.8411ZM7 7.58313C7.30942 7.58313 7.60617 7.46021 7.82496 7.24142C8.04375 7.02262 8.16667 6.72588 8.16667 6.41646C8.16667 6.10704 8.04375 5.81029 7.82496 5.5915C7.60617 5.37271 7.30942 5.24979 7 5.24979C6.69058 5.24979 6.39384 5.37271 6.17504 5.5915C5.95625 5.81029 5.83334 6.10704 5.83334 6.41646C5.83334 6.72588 5.95625 7.02262 6.17504 7.24142C6.39384 7.46021 6.69058 7.58313 7 7.58313ZM7 8.74979C6.38116 8.74979 5.78767 8.50396 5.35009 8.06637C4.9125 7.62879 4.66667 7.0353 4.66667 6.41646C4.66667 5.79762 4.9125 5.20413 5.35009 4.76654C5.78767 4.32896 6.38116 4.08313 7 4.08313C7.61884 4.08313 8.21233 4.32896 8.64992 4.76654C9.0875 5.20413 9.33334 5.79762 9.33334 6.41646C9.33334 7.0353 9.0875 7.62879 8.64992 8.06637C8.21233 8.50396 7.61884 8.74979 7 8.74979Z" fill="#3F4254"/>
</svg>
