<svg width="12" height="12" viewBox="0 0 12 12" fill="none" xmlns="http://www.w3.org/2000/svg">
<path d="M1.00001 2C1.00001 1.724 1.22751 1.5 1.49601 1.5H10.504C10.778 1.5 11 1.7225 11 2V9C11 9.276 10.7725 9.5 10.504 9.5H1.49601C1.43057 9.49987 1.36581 9.48682 1.30543 9.4616C1.24505 9.43637 1.19024 9.39947 1.14416 9.35302C1.09808 9.30656 1.06162 9.25146 1.03688 9.19088C1.01214 9.1303 0.999614 9.06543 1.00001 9V2ZM2.00001 2.5V8.5H10V2.5H2.00001ZM2.50001 10H9.50001V11H2.50001V10Z" fill="#2767E7"/>
</svg>
