<svg width="28" height="28" viewBox="0 0 28 28" fill="none" xmlns="http://www.w3.org/2000/svg">
<path d="M14.0012 19.8333C18.274 19.8333 22.0104 21.6709 24.0428 24.4121L21.8938 25.4286C20.2397 23.4682 17.3232 22.1666 14.0012 22.1666C10.6792 22.1666 7.76258 23.4682 6.10856 25.4286L3.96045 24.411C5.99302 21.6704 9.72893 19.8333 14.0012 19.8333ZM14.0012 2.33325C17.2228 2.33325 19.8345 4.94493 19.8345 8.16658V11.6666C19.8345 14.8035 17.3585 17.362 14.2543 17.4946L14.0012 17.4999C10.7795 17.4999 8.16785 14.8882 8.16785 11.6666V8.16658C8.16785 5.02971 10.6439 2.47113 13.7482 2.33864L14.0012 2.33325ZM14.0012 4.66659C12.1372 4.66659 10.6136 6.12366 10.5071 7.96094L10.5012 8.16658V11.6666C10.5012 13.5996 12.0682 15.1666 14.0012 15.1666C15.8652 15.1666 17.3887 13.7095 17.4953 11.8723L17.5012 11.6666V8.16658C17.5012 6.23359 15.9341 4.66659 14.0012 4.66659Z" fill="#727272"/>
</svg>
