<svg width="59" height="24" viewBox="0 0 59 24" fill="none" xmlns="http://www.w3.org/2000/svg">
<path d="M10.656 18H8.416L3.344 10.336V18H1.104V6.816H3.344L8.416 14.496V6.816H10.656V18ZM21.1096 13.376C21.1096 13.696 21.0883 13.984 21.0456 14.24H14.5656C14.619 14.88 14.843 15.3813 15.2376 15.744C15.6323 16.1067 16.1176 16.288 16.6936 16.288C17.5256 16.288 18.1176 15.9307 18.4696 15.216H20.8856C20.6296 16.0693 20.139 16.7733 19.4136 17.328C18.6883 17.872 17.7976 18.144 16.7416 18.144C15.8883 18.144 15.1203 17.9573 14.4376 17.584C13.7656 17.2 13.2376 16.6613 12.8536 15.968C12.4803 15.2747 12.2936 14.4747 12.2936 13.568C12.2936 12.6507 12.4803 11.8453 12.8536 11.152C13.227 10.4587 13.7496 9.92533 14.4216 9.552C15.0936 9.17867 15.867 8.992 16.7416 8.992C17.5843 8.992 18.3363 9.17333 18.9976 9.536C19.6696 9.89867 20.187 10.416 20.5496 11.088C20.923 11.7493 21.1096 12.512 21.1096 13.376ZM18.7896 12.736C18.779 12.16 18.571 11.7013 18.1656 11.36C17.7603 11.008 17.2643 10.832 16.6776 10.832C16.123 10.832 15.6536 11.0027 15.2696 11.344C14.8963 11.6747 14.667 12.1387 14.5816 12.736H18.7896ZM27.6406 18L25.8166 15.248L24.2006 18H21.8006L24.6966 13.552L21.7686 9.136H24.2966L26.1046 11.872L27.7366 9.136H30.1366L27.2246 13.552L30.1686 18H27.6406ZM33.9933 10.976V15.264C33.9933 15.5627 34.0626 15.7813 34.2013 15.92C34.3506 16.048 34.5959 16.112 34.9373 16.112H35.9773V18H34.5693C32.6813 18 31.7373 17.0827 31.7373 15.248V10.976H30.6813V9.136H31.7373V6.944H33.9933V9.136H35.9773V10.976H33.9933Z" fill="#7F32CD"/>
<path d="M53.1291 11.25L49.1061 7.227L50.1666 6.1665L56.0001 12L50.1666 17.8335L49.1061 16.773L53.1291 12.75H44.0001V11.25H53.1291Z" fill="#7F32CD"/>
</svg>
