<svg width="49" height="20" viewBox="0 0 49 20" fill="none" xmlns="http://www.w3.org/2000/svg">
<rect width="49" height="20" rx="6" fill="#F1FAFF"/>
<path d="M9.41211 11.4658H7.60059V10.3232H9.41211C9.69206 10.3232 9.91992 10.2777 10.0957 10.1865C10.2715 10.0921 10.4001 9.96191 10.4814 9.7959C10.5628 9.62988 10.6035 9.44271 10.6035 9.23438C10.6035 9.02279 10.5628 8.82585 10.4814 8.64355C10.4001 8.46126 10.2715 8.31478 10.0957 8.2041C9.91992 8.09342 9.69206 8.03809 9.41211 8.03809H8.1084V14H6.64355V6.89062H9.41211C9.96875 6.89062 10.4456 6.99154 10.8428 7.19336C11.2432 7.39193 11.5492 7.66699 11.7607 8.01855C11.9723 8.37012 12.0781 8.77214 12.0781 9.22461C12.0781 9.68359 11.9723 10.0807 11.7607 10.416C11.5492 10.7513 11.2432 11.0101 10.8428 11.1924C10.4456 11.3747 9.96875 11.4658 9.41211 11.4658ZM15.3643 14.0977C14.9541 14.0977 14.5863 14.0326 14.2607 13.9023C13.9352 13.7689 13.6585 13.585 13.4307 13.3506C13.2061 13.1162 13.0335 12.8444 12.9131 12.5352C12.7926 12.2227 12.7324 11.8906 12.7324 11.5391V11.3438C12.7324 10.9434 12.7894 10.5771 12.9033 10.2451C13.0173 9.91309 13.18 9.625 13.3916 9.38086C13.6064 9.13672 13.8669 8.94954 14.1729 8.81934C14.4788 8.68587 14.8239 8.61914 15.208 8.61914C15.5824 8.61914 15.9144 8.68099 16.2041 8.80469C16.4938 8.92839 16.7363 9.10417 16.9316 9.33203C17.1302 9.5599 17.2799 9.83333 17.3809 10.1523C17.4818 10.4681 17.5322 10.8197 17.5322 11.207V11.793H13.333V10.8555H16.1504V10.748C16.1504 10.5527 16.1146 10.3786 16.043 10.2256C15.9746 10.0693 15.8704 9.94564 15.7305 9.85449C15.5905 9.76335 15.4115 9.71777 15.1934 9.71777C15.0078 9.71777 14.8483 9.75846 14.7148 9.83984C14.5814 9.92122 14.4723 10.0352 14.3877 10.1816C14.3063 10.3281 14.2445 10.5007 14.2021 10.6992C14.1631 10.8945 14.1436 11.1094 14.1436 11.3438V11.5391C14.1436 11.7507 14.1729 11.946 14.2314 12.125C14.2933 12.304 14.3796 12.4587 14.4902 12.5889C14.6042 12.7191 14.7409 12.82 14.9004 12.8916C15.0632 12.9632 15.2471 12.999 15.4521 12.999C15.7061 12.999 15.9421 12.9502 16.1602 12.8525C16.3815 12.7516 16.5719 12.6003 16.7314 12.3984L17.415 13.1406C17.3044 13.3001 17.153 13.4531 16.9609 13.5996C16.7721 13.7461 16.5443 13.8665 16.2773 13.9609C16.0104 14.0521 15.7061 14.0977 15.3643 14.0977ZM19.71 9.84473V14H18.3037V8.7168H19.6221L19.71 9.84473ZM19.5049 11.1729H19.124C19.124 10.7822 19.1745 10.4307 19.2754 10.1182C19.3763 9.80241 19.5179 9.53385 19.7002 9.3125C19.8825 9.08789 20.099 8.91699 20.3496 8.7998C20.6035 8.67936 20.8867 8.61914 21.1992 8.61914C21.4466 8.61914 21.6729 8.65495 21.8779 8.72656C22.083 8.79818 22.2588 8.91211 22.4053 9.06836C22.555 9.22461 22.6689 9.43132 22.7471 9.68848C22.8285 9.94564 22.8691 10.2598 22.8691 10.6309V14H21.4531V10.626C21.4531 10.3916 21.4206 10.2093 21.3555 10.0791C21.2904 9.94889 21.1943 9.85775 21.0674 9.80566C20.9437 9.75033 20.7907 9.72266 20.6084 9.72266C20.4196 9.72266 20.2552 9.76009 20.1152 9.83496C19.9785 9.90983 19.8646 10.014 19.7734 10.1475C19.6855 10.2777 19.6188 10.4307 19.5732 10.6064C19.5277 10.7822 19.5049 10.971 19.5049 11.1729ZM27.0586 12.8477V6.5H28.4746V14H27.2002L27.0586 12.8477ZM23.7188 11.4219V11.3193C23.7188 10.9157 23.7643 10.5495 23.8555 10.2207C23.9466 9.88867 24.0801 9.60384 24.2559 9.36621C24.4316 9.12858 24.6481 8.94466 24.9053 8.81445C25.1624 8.68424 25.4554 8.61914 25.7842 8.61914C26.0934 8.61914 26.3636 8.68424 26.5947 8.81445C26.8291 8.94466 27.0277 9.13021 27.1904 9.37109C27.3564 9.60872 27.4899 9.8903 27.5908 10.2158C27.6917 10.5381 27.765 10.8913 27.8105 11.2754V11.5C27.765 11.8678 27.6917 12.2096 27.5908 12.5254C27.4899 12.8411 27.3564 13.1178 27.1904 13.3555C27.0277 13.5898 26.8291 13.7721 26.5947 13.9023C26.3604 14.0326 26.0869 14.0977 25.7744 14.0977C25.4456 14.0977 25.1527 14.0309 24.8955 13.8975C24.6416 13.764 24.4268 13.5768 24.251 13.3359C24.0785 13.0951 23.9466 12.8118 23.8555 12.4863C23.7643 12.1608 23.7188 11.806 23.7188 11.4219ZM25.125 11.3193V11.4219C25.125 11.64 25.1413 11.8434 25.1738 12.0322C25.2096 12.221 25.2666 12.3887 25.3447 12.5352C25.4261 12.6784 25.5303 12.7907 25.6572 12.8721C25.7874 12.9502 25.9453 12.9893 26.1309 12.9893C26.3717 12.9893 26.5703 12.9355 26.7266 12.8281C26.8828 12.7174 27.0016 12.5661 27.083 12.374C27.1676 12.182 27.2165 11.9606 27.2295 11.71V11.0703C27.2197 10.8652 27.1904 10.6813 27.1416 10.5186C27.096 10.3525 27.0277 10.2109 26.9365 10.0938C26.8486 9.97656 26.738 9.88542 26.6045 9.82031C26.4743 9.75521 26.3197 9.72266 26.1406 9.72266C25.9583 9.72266 25.8021 9.76497 25.6719 9.84961C25.5417 9.93099 25.4359 10.0433 25.3545 10.1865C25.2764 10.3298 25.2178 10.499 25.1787 10.6943C25.1429 10.8864 25.125 11.0947 25.125 11.3193ZM31.0576 8.7168V14H29.6465V8.7168H31.0576ZM29.5586 7.33984C29.5586 7.13477 29.6302 6.96549 29.7734 6.83203C29.9167 6.69857 30.1087 6.63184 30.3496 6.63184C30.5872 6.63184 30.7777 6.69857 30.9209 6.83203C31.0674 6.96549 31.1406 7.13477 31.1406 7.33984C31.1406 7.54492 31.0674 7.71419 30.9209 7.84766C30.7777 7.98112 30.5872 8.04785 30.3496 8.04785C30.1087 8.04785 29.9167 7.98112 29.7734 7.84766C29.6302 7.71419 29.5586 7.54492 29.5586 7.33984ZM33.5967 9.84473V14H32.1904V8.7168H33.5088L33.5967 9.84473ZM33.3916 11.1729H33.0107C33.0107 10.7822 33.0612 10.4307 33.1621 10.1182C33.263 9.80241 33.4046 9.53385 33.5869 9.3125C33.7692 9.08789 33.9857 8.91699 34.2363 8.7998C34.4902 8.67936 34.7734 8.61914 35.0859 8.61914C35.3333 8.61914 35.5596 8.65495 35.7646 8.72656C35.9697 8.79818 36.1455 8.91211 36.292 9.06836C36.4417 9.22461 36.5557 9.43132 36.6338 9.68848C36.7152 9.94564 36.7559 10.2598 36.7559 10.6309V14H35.3398V10.626C35.3398 10.3916 35.3073 10.2093 35.2422 10.0791C35.1771 9.94889 35.0811 9.85775 34.9541 9.80566C34.8304 9.75033 34.6774 9.72266 34.4951 9.72266C34.3063 9.72266 34.1419 9.76009 34.002 9.83496C33.8652 9.90983 33.7513 10.014 33.6602 10.1475C33.5723 10.2777 33.5055 10.4307 33.46 10.6064C33.4144 10.7822 33.3916 10.971 33.3916 11.1729ZM41.1699 8.7168H42.4443V13.8242C42.4443 14.306 42.3369 14.7145 42.1221 15.0498C41.9105 15.3883 41.6143 15.6439 41.2334 15.8164C40.8525 15.9922 40.4098 16.0801 39.9053 16.0801C39.6839 16.0801 39.4495 16.0508 39.2021 15.9922C38.958 15.9336 38.7236 15.8424 38.499 15.7188C38.2777 15.5951 38.0921 15.4388 37.9424 15.25L38.5625 14.4199C38.7253 14.6087 38.9141 14.7552 39.1289 14.8594C39.3438 14.9668 39.5814 15.0205 39.8418 15.0205C40.0957 15.0205 40.3105 14.9733 40.4863 14.8789C40.6621 14.7878 40.7972 14.6527 40.8916 14.4736C40.986 14.2979 41.0332 14.0846 41.0332 13.834V9.9375L41.1699 8.7168ZM37.6152 11.4219V11.3193C37.6152 10.9157 37.6641 10.5495 37.7617 10.2207C37.8626 9.88867 38.0042 9.60384 38.1865 9.36621C38.3721 9.12858 38.5967 8.94466 38.8604 8.81445C39.124 8.68424 39.4219 8.61914 39.7539 8.61914C40.1055 8.61914 40.4001 8.68424 40.6377 8.81445C40.8753 8.94466 41.0706 9.13021 41.2236 9.37109C41.3766 9.60872 41.4954 9.8903 41.5801 10.2158C41.668 10.5381 41.7363 10.8913 41.7852 11.2754V11.5C41.7363 11.8678 41.6631 12.2096 41.5654 12.5254C41.4678 12.8411 41.3392 13.1178 41.1797 13.3555C41.0202 13.5898 40.8216 13.7721 40.584 13.9023C40.3496 14.0326 40.0697 14.0977 39.7441 14.0977C39.4186 14.0977 39.124 14.0309 38.8604 13.8975C38.5999 13.764 38.377 13.5768 38.1914 13.3359C38.0059 13.0951 37.8626 12.8118 37.7617 12.4863C37.6641 12.1608 37.6152 11.806 37.6152 11.4219ZM39.0215 11.3193V11.4219C39.0215 11.64 39.0426 11.8434 39.085 12.0322C39.1273 12.221 39.1924 12.3887 39.2803 12.5352C39.3714 12.6784 39.4837 12.7907 39.6172 12.8721C39.7539 12.9502 39.915 12.9893 40.1006 12.9893C40.3577 12.9893 40.5677 12.9355 40.7305 12.8281C40.8932 12.7174 41.0153 12.5661 41.0967 12.374C41.1781 12.182 41.2253 11.9606 41.2383 11.71V11.0703C41.2318 10.8652 41.2041 10.6813 41.1553 10.5186C41.1064 10.3525 41.0381 10.2109 40.9502 10.0938C40.8623 9.97656 40.7484 9.88542 40.6084 9.82031C40.4684 9.75521 40.3024 9.72266 40.1104 9.72266C39.9248 9.72266 39.7637 9.76497 39.627 9.84961C39.4935 9.93099 39.3812 10.0433 39.29 10.1865C39.2021 10.3298 39.1354 10.499 39.0898 10.6943C39.0443 10.8864 39.0215 11.0947 39.0215 11.3193Z" fill="#00A3FF"/>
</svg>
