<svg width="16" height="18" viewBox="0 0 16 18" fill="none" xmlns="http://www.w3.org/2000/svg">
<g clip-path="url(#clip0_5570_362)">
<path d="M0.34123 8.90357C0.340855 10.2584 0.694855 11.5813 1.36798 12.7473L0.276855 16.7311L4.35386 15.6621C5.4815 16.276 6.74494 16.5977 8.02886 16.5978H8.03223C12.2707 16.5978 15.7209 13.1488 15.7227 8.90963C15.7235 6.85545 14.9242 4.92382 13.4721 3.47057C12.0202 2.01745 10.0893 1.21676 8.03192 1.21582C3.79298 1.21582 0.343043 4.66457 0.341293 8.90357" fill="url(#paint0_linear_5570_362)"/>
<path d="M0.066875 8.901C0.0664375 10.3046 0.433125 11.6747 1.13025 12.8825L0 17.0092L4.22319 15.9019C5.38681 16.5363 6.69694 16.8708 8.03006 16.8713H8.0335C12.424 16.8713 15.9981 13.2983 16 8.90737C16.0007 6.77938 15.1727 4.77831 13.6687 3.273C12.1646 1.76787 10.1646 0.938375 8.0335 0.9375C3.64225 0.9375 0.068625 4.51 0.066875 8.901ZM2.58188 12.6745L2.42419 12.4242C1.76131 11.3702 1.41144 10.1522 1.41194 8.9015C1.41338 5.25181 4.38363 2.2825 8.036 2.2825C9.80475 2.28325 11.467 2.97275 12.7172 4.22375C13.9674 5.47487 14.6554 7.138 14.6549 8.90688C14.6533 12.5566 11.683 15.5262 8.0335 15.5262H8.03088C6.84256 15.5256 5.67712 15.2065 4.66075 14.6034L4.41888 14.46L1.91275 15.1171L2.58188 12.6744V12.6745Z" fill="url(#paint1_linear_5570_362)"/>
<path d="M6.04223 5.57171C5.8931 5.24028 5.73616 5.23359 5.59435 5.22778C5.47823 5.22278 5.34548 5.22315 5.21285 5.22315C5.0801 5.22315 4.86441 5.27309 4.6821 5.47215C4.4996 5.6714 3.98535 6.1529 3.98535 7.13221C3.98535 8.11159 4.69866 9.05803 4.7981 9.19096C4.89766 9.32365 6.17516 11.3977 8.19841 12.1955C9.87991 12.8586 10.2221 12.7267 10.587 12.6935C10.952 12.6603 11.7648 12.2121 11.9306 11.7473C12.0965 11.2825 12.0965 10.8842 12.0468 10.8009C11.997 10.718 11.8643 10.6682 11.6652 10.5687C11.4661 10.4691 10.4875 9.98753 10.305 9.92109C10.1225 9.85471 9.98985 9.82159 9.8571 10.0209C9.72435 10.2199 9.34316 10.6682 9.22698 10.8009C9.11091 10.934 8.99473 10.9505 8.79573 10.851C8.59654 10.7511 7.95548 10.5412 7.19491 9.86309C6.60316 9.33546 6.20366 8.6839 6.08754 8.48459C5.97141 8.28559 6.0751 8.17771 6.17491 8.07853C6.26435 7.98934 6.37404 7.84609 6.47366 7.7299C6.57291 7.61365 6.60604 7.53071 6.67241 7.39796C6.73885 7.26509 6.7056 7.14884 6.65591 7.04928C6.60604 6.94971 6.21923 5.96528 6.04223 5.57171Z" fill="white"/>
</g>
<defs>
<linearGradient id="paint0_linear_5570_362" x1="772.568" y1="1552.75" x2="772.568" y2="1.21582" gradientUnits="userSpaceOnUse">
<stop stop-color="#00C514"/>
<stop offset="1" stop-color="#00FF1A"/>
</linearGradient>
<linearGradient id="paint1_linear_5570_362" x1="800" y1="1608.11" x2="800" y2="0.9375" gradientUnits="userSpaceOnUse">
<stop stop-color="white"/>
<stop offset="1" stop-color="white" stop-opacity="0.5"/>
</linearGradient>
<clipPath id="clip0_5570_362">
<rect width="16" height="16.125" fill="white" transform="translate(0 0.9375)"/>
</clipPath>
</defs>
</svg>
