<svg width="172" height="40" viewBox="0 0 172 40" fill="none" xmlns="http://www.w3.org/2000/svg">
<rect x="0.5" y="0.5" width="171" height="39" rx="5.5" fill="#EEF6FF" stroke="#2884EF" stroke-dasharray="3 3"/>
<rect x="109" y="7" width="54" height="25" rx="4" fill="#3E97FF"/>
<path d="M122.071 14.7727H123.392V20.5128C123.392 21.1236 123.249 21.6648 122.962 22.1364C122.675 22.6051 122.271 22.9744 121.751 23.2443C121.232 23.5114 120.622 23.6449 119.923 23.6449C119.227 23.6449 118.619 23.5114 118.099 23.2443C117.58 22.9744 117.176 22.6051 116.889 22.1364C116.602 21.6648 116.459 21.1236 116.459 20.5128V14.7727H117.776V20.4062C117.776 20.8011 117.862 21.152 118.036 21.4588C118.212 21.7656 118.46 22.0071 118.781 22.1832C119.102 22.3565 119.483 22.4432 119.923 22.4432C120.366 22.4432 120.749 22.3565 121.07 22.1832C121.393 22.0071 121.641 21.7656 121.811 21.4588C121.984 21.152 122.071 20.8011 122.071 20.4062V14.7727ZM125.204 25.9545V16.9545H126.449V18.0156H126.555C126.629 17.8793 126.735 17.7216 126.875 17.5426C127.014 17.3636 127.207 17.2074 127.454 17.0739C127.701 16.9375 128.028 16.8693 128.434 16.8693C128.963 16.8693 129.434 17.0028 129.849 17.2699C130.264 17.5369 130.589 17.9219 130.825 18.4247C131.064 18.9276 131.183 19.5327 131.183 20.2401C131.183 20.9474 131.065 21.554 130.829 22.0597C130.593 22.5625 130.27 22.9503 129.858 23.223C129.446 23.4929 128.975 23.6278 128.447 23.6278C128.049 23.6278 127.724 23.5611 127.471 23.4276C127.221 23.294 127.025 23.1378 126.883 22.9588C126.741 22.7798 126.632 22.6207 126.555 22.4815H126.478V25.9545H125.204ZM126.453 20.2273C126.453 20.6875 126.52 21.0909 126.653 21.4375C126.787 21.7841 126.98 22.0554 127.233 22.2514C127.485 22.4446 127.795 22.5412 128.162 22.5412C128.542 22.5412 128.86 22.4403 129.116 22.2386C129.372 22.0341 129.565 21.7571 129.696 21.4077C129.829 21.0582 129.896 20.6648 129.896 20.2273C129.896 19.7955 129.831 19.4077 129.7 19.0639C129.572 18.7202 129.379 18.4489 129.12 18.25C128.865 18.0511 128.545 17.9517 128.162 17.9517C127.792 17.9517 127.48 18.0469 127.224 18.2372C126.971 18.4276 126.779 18.6932 126.649 19.0341C126.518 19.375 126.453 19.7727 126.453 20.2273ZM133.885 14.7727V23.5H132.61V14.7727H133.885ZM138.356 23.6321C137.742 23.6321 137.207 23.4915 136.749 23.2102C136.292 22.929 135.937 22.5355 135.684 22.0298C135.431 21.5241 135.305 20.9332 135.305 20.2571C135.305 19.5781 135.431 18.9844 135.684 18.4759C135.937 17.9673 136.292 17.5724 136.749 17.2912C137.207 17.0099 137.742 16.8693 138.356 16.8693C138.969 16.8693 139.505 17.0099 139.962 17.2912C140.42 17.5724 140.775 17.9673 141.028 18.4759C141.281 18.9844 141.407 19.5781 141.407 20.2571C141.407 20.9332 141.281 21.5241 141.028 22.0298C140.775 22.5355 140.42 22.929 139.962 23.2102C139.505 23.4915 138.969 23.6321 138.356 23.6321ZM138.36 22.5625C138.758 22.5625 139.087 22.4574 139.349 22.2472C139.61 22.0369 139.803 21.7571 139.928 21.4077C140.056 21.0582 140.12 20.6733 140.12 20.2528C140.12 19.8352 140.056 19.4517 139.928 19.1023C139.803 18.75 139.61 18.4673 139.349 18.2543C139.087 18.0412 138.758 17.9347 138.36 17.9347C137.96 17.9347 137.627 18.0412 137.363 18.2543C137.102 18.4673 136.907 18.75 136.779 19.1023C136.654 19.4517 136.592 19.8352 136.592 20.2528C136.592 20.6733 136.654 21.0582 136.779 21.4077C136.907 21.7571 137.102 22.0369 137.363 22.2472C137.627 22.4574 137.96 22.5625 138.36 22.5625ZM144.734 23.6449C144.319 23.6449 143.944 23.5682 143.609 23.4148C143.274 23.2585 143.008 23.0327 142.812 22.7372C142.619 22.4418 142.522 22.0795 142.522 21.6506C142.522 21.2812 142.593 20.9773 142.735 20.7386C142.877 20.5 143.069 20.3111 143.311 20.1719C143.552 20.0327 143.822 19.9276 144.12 19.8565C144.419 19.7855 144.723 19.7315 145.032 19.6946C145.424 19.6491 145.743 19.6122 145.987 19.5838C146.231 19.5526 146.409 19.5028 146.52 19.4347C146.63 19.3665 146.686 19.2557 146.686 19.1023V19.0724C146.686 18.7003 146.581 18.4119 146.37 18.2074C146.163 18.0028 145.853 17.9006 145.441 17.9006C145.012 17.9006 144.674 17.9957 144.427 18.1861C144.183 18.3736 144.014 18.5824 143.92 18.8125L142.723 18.5398C142.865 18.142 143.072 17.821 143.345 17.5767C143.62 17.3295 143.937 17.1506 144.295 17.0398C144.653 16.9261 145.029 16.8693 145.424 16.8693C145.686 16.8693 145.963 16.9006 146.255 16.9631C146.551 17.0227 146.826 17.1335 147.082 17.2955C147.341 17.4574 147.552 17.6889 147.717 17.9901C147.882 18.2884 147.964 18.6761 147.964 19.1534V23.5H146.72V22.6051H146.669C146.586 22.7699 146.463 22.9318 146.298 23.0909C146.133 23.25 145.922 23.3821 145.663 23.4872C145.404 23.5923 145.095 23.6449 144.734 23.6449ZM145.011 22.6222C145.363 22.6222 145.664 22.5526 145.914 22.4134C146.167 22.2741 146.359 22.0923 146.49 21.8679C146.623 21.6406 146.69 21.3977 146.69 21.1392V20.2955C146.645 20.3409 146.556 20.3835 146.426 20.4233C146.298 20.4602 146.152 20.4929 145.987 20.5213C145.822 20.5469 145.662 20.571 145.505 20.5938C145.349 20.6136 145.218 20.6307 145.113 20.6449C144.866 20.6761 144.64 20.7287 144.436 20.8026C144.234 20.8764 144.072 20.983 143.95 21.1222C143.831 21.2585 143.771 21.4403 143.771 21.6676C143.771 21.983 143.887 22.2216 144.12 22.3835C144.353 22.5426 144.65 22.6222 145.011 22.6222ZM152.112 23.6278C151.583 23.6278 151.112 23.4929 150.697 23.223C150.285 22.9503 149.961 22.5625 149.725 22.0597C149.492 21.554 149.376 20.9474 149.376 20.2401C149.376 19.5327 149.494 18.9276 149.729 18.4247C149.968 17.9219 150.295 17.5369 150.71 17.2699C151.124 17.0028 151.594 16.8693 152.12 16.8693C152.526 16.8693 152.853 16.9375 153.1 17.0739C153.35 17.2074 153.543 17.3636 153.68 17.5426C153.819 17.7216 153.927 17.8793 154.004 18.0156H154.08V14.7727H155.354V23.5H154.11V22.4815H154.004C153.927 22.6207 153.816 22.7798 153.671 22.9588C153.529 23.1378 153.333 23.294 153.083 23.4276C152.833 23.5611 152.509 23.6278 152.112 23.6278ZM152.393 22.5412C152.759 22.5412 153.069 22.4446 153.322 22.2514C153.577 22.0554 153.771 21.7841 153.901 21.4375C154.035 21.0909 154.102 20.6875 154.102 20.2273C154.102 19.7727 154.036 19.375 153.906 19.0341C153.775 18.6932 153.583 18.4276 153.33 18.2372C153.077 18.0469 152.765 17.9517 152.393 17.9517C152.009 17.9517 151.69 18.0511 151.434 18.25C151.178 18.4489 150.985 18.7202 150.854 19.0639C150.727 19.4077 150.663 19.7955 150.663 20.2273C150.663 20.6648 150.728 21.0582 150.859 21.4077C150.989 21.7571 151.183 22.0341 151.438 22.2386C151.697 22.4403 152.015 22.5412 152.393 22.5412Z" fill="white"/>
<path d="M18.0028 15.2727V24H16.7926L12.3565 17.5994H12.2756V24H10.9588V15.2727H12.1776L16.6179 21.6818H16.6989V15.2727H18.0028ZM22.5785 24.1321C21.9648 24.1321 21.4293 23.9915 20.9719 23.7102C20.5146 23.429 20.1594 23.0355 19.9066 22.5298C19.6538 22.0241 19.5273 21.4332 19.5273 20.7571C19.5273 20.0781 19.6538 19.4844 19.9066 18.9759C20.1594 18.4673 20.5146 18.0724 20.9719 17.7912C21.4293 17.5099 21.9648 17.3693 22.5785 17.3693C23.1921 17.3693 23.7276 17.5099 24.185 17.7912C24.6424 18.0724 24.9975 18.4673 25.2504 18.9759C25.5032 19.4844 25.6296 20.0781 25.6296 20.7571C25.6296 21.4332 25.5032 22.0241 25.2504 22.5298C24.9975 23.0355 24.6424 23.429 24.185 23.7102C23.7276 23.9915 23.1921 24.1321 22.5785 24.1321ZM22.5827 23.0625C22.9805 23.0625 23.31 22.9574 23.5714 22.7472C23.8327 22.5369 24.0259 22.2571 24.1509 21.9077C24.2788 21.5582 24.3427 21.1733 24.3427 20.7528C24.3427 20.3352 24.2788 19.9517 24.1509 19.6023C24.0259 19.25 23.8327 18.9673 23.5714 18.7543C23.31 18.5412 22.9805 18.4347 22.5827 18.4347C22.1822 18.4347 21.8498 18.5412 21.5856 18.7543C21.3242 18.9673 21.1296 19.25 21.0018 19.6023C20.8768 19.9517 20.8143 20.3352 20.8143 20.7528C20.8143 21.1733 20.8768 21.5582 21.0018 21.9077C21.1296 22.2571 21.3242 22.5369 21.5856 22.7472C21.8498 22.9574 22.1822 23.0625 22.5827 23.0625ZM33.3427 17.4545V18.4773H29.6438V17.4545H33.3427ZM30.658 24V16.696C30.658 16.2869 30.7475 15.9474 30.9265 15.6776C31.1055 15.4048 31.3427 15.2017 31.6381 15.0682C31.9336 14.9318 32.2546 14.8636 32.6012 14.8636C32.8569 14.8636 33.0756 14.8849 33.2575 14.9276C33.4393 14.9673 33.5742 15.0043 33.6623 15.0384L33.364 16.0696C33.3043 16.0526 33.2276 16.0327 33.1339 16.0099C33.0401 15.9844 32.9265 15.9716 32.793 15.9716C32.4833 15.9716 32.2617 16.0483 32.1282 16.2017C31.9975 16.3551 31.9322 16.5767 31.9322 16.8665V24H30.658ZM34.6573 24V17.4545H35.9315V24H34.6573ZM35.3008 16.4446C35.0792 16.4446 34.8888 16.3707 34.7298 16.223C34.5735 16.0724 34.4954 15.8935 34.4954 15.6861C34.4954 15.4759 34.5735 15.2969 34.7298 15.1491C34.8888 14.9986 35.0792 14.9233 35.3008 14.9233C35.5224 14.9233 35.7113 14.9986 35.8675 15.1491C36.0266 15.2969 36.1062 15.4759 36.1062 15.6861C36.1062 15.8935 36.0266 16.0724 35.8675 16.223C35.7113 16.3707 35.5224 16.4446 35.3008 16.4446ZM38.9197 15.2727V24H37.6456V15.2727H38.9197ZM43.4549 24.1321C42.81 24.1321 42.2546 23.9943 41.7887 23.7188C41.3256 23.4403 40.9677 23.0497 40.7148 22.5469C40.4648 22.0412 40.3398 21.4489 40.3398 20.7699C40.3398 20.0994 40.4648 19.5085 40.7148 18.9972C40.9677 18.4858 41.32 18.0866 41.7717 17.7997C42.2262 17.5128 42.7575 17.3693 43.3654 17.3693C43.7347 17.3693 44.0927 17.4304 44.4393 17.5526C44.7859 17.6747 45.0969 17.8665 45.3725 18.1278C45.6481 18.3892 45.8654 18.7287 46.0245 19.1463C46.1836 19.5611 46.2631 20.0653 46.2631 20.6591V21.1108H41.06V20.1562H45.0146C45.0146 19.821 44.9464 19.5241 44.81 19.2656C44.6737 19.0043 44.4819 18.7983 44.2347 18.6477C43.9904 18.4972 43.7035 18.4219 43.3739 18.4219C43.016 18.4219 42.7035 18.5099 42.4364 18.6861C42.1722 18.8594 41.9677 19.0866 41.8228 19.3679C41.6808 19.6463 41.6097 19.9489 41.6097 20.2756V21.0213C41.6097 21.4588 41.6864 21.831 41.8398 22.1378C41.9961 22.4446 42.2134 22.679 42.4918 22.8409C42.7702 23 43.0955 23.0795 43.4677 23.0795C43.7092 23.0795 43.9293 23.0455 44.1282 22.9773C44.3271 22.9062 44.4989 22.8011 44.6438 22.6619C44.7887 22.5227 44.8995 22.3509 44.9762 22.1463L46.1822 22.3636C46.0856 22.7187 45.9123 23.0298 45.6623 23.2969C45.4151 23.5611 45.104 23.767 44.729 23.9148C44.3569 24.0597 43.9322 24.1321 43.4549 24.1321ZM53.6097 24.1321C52.9762 24.1321 52.4308 23.9886 51.9734 23.7017C51.5188 23.4119 51.1694 23.0128 50.9251 22.5043C50.6808 21.9957 50.5586 21.4134 50.5586 20.7571C50.5586 20.0923 50.6836 19.5057 50.9336 18.9972C51.1836 18.4858 51.5359 18.0866 51.9904 17.7997C52.445 17.5128 52.9805 17.3693 53.5969 17.3693C54.0941 17.3693 54.5373 17.4616 54.9265 17.6463C55.3157 17.8281 55.6296 18.0838 55.8683 18.4134C56.1097 18.7429 56.2532 19.1278 56.2987 19.5682H55.0586C54.9904 19.2614 54.8342 18.9972 54.5898 18.7756C54.3484 18.554 54.0245 18.4432 53.6183 18.4432C53.2631 18.4432 52.9521 18.5369 52.685 18.7244C52.4208 18.9091 52.2148 19.1733 52.0671 19.517C51.9194 19.858 51.8455 20.2614 51.8455 20.7273C51.8455 21.2045 51.918 21.6165 52.0629 21.9631C52.2077 22.3097 52.4123 22.5781 52.6765 22.7685C52.9435 22.9588 53.2575 23.054 53.6183 23.054C53.8597 23.054 54.0785 23.0099 54.2745 22.9219C54.4734 22.831 54.6396 22.7017 54.7731 22.5341C54.9094 22.3665 55.0046 22.1648 55.0586 21.929H56.2987C56.2532 22.3523 56.1154 22.7301 55.8853 23.0625C55.6552 23.3949 55.3469 23.6562 54.9606 23.8466C54.5771 24.0369 54.1268 24.1321 53.6097 24.1321ZM58.9354 20.1136V24H57.6612V15.2727H58.9183V18.5199H58.9993C59.1527 18.1676 59.3871 17.8878 59.7024 17.6804C60.0178 17.473 60.4297 17.3693 60.9382 17.3693C61.3871 17.3693 61.7791 17.4616 62.1143 17.6463C62.4524 17.831 62.7138 18.1065 62.8984 18.473C63.0859 18.8366 63.1797 19.2912 63.1797 19.8366V24H61.9055V19.9901C61.9055 19.5099 61.782 19.1378 61.5348 18.8736C61.2876 18.6065 60.9439 18.473 60.5036 18.473C60.2024 18.473 59.9325 18.5369 59.6939 18.6648C59.4581 18.7926 59.272 18.9801 59.1357 19.2273C59.0021 19.4716 58.9354 19.767 58.9354 20.1136ZM67.6371 24.1321C67.0234 24.1321 66.4879 23.9915 66.0305 23.7102C65.5732 23.429 65.218 23.0355 64.9652 22.5298C64.7124 22.0241 64.5859 21.4332 64.5859 20.7571C64.5859 20.0781 64.7124 19.4844 64.9652 18.9759C65.218 18.4673 65.5732 18.0724 66.0305 17.7912C66.4879 17.5099 67.0234 17.3693 67.6371 17.3693C68.2507 17.3693 68.7862 17.5099 69.2436 17.7912C69.701 18.0724 70.0561 18.4673 70.3089 18.9759C70.5618 19.4844 70.6882 20.0781 70.6882 20.7571C70.6882 21.4332 70.5618 22.0241 70.3089 22.5298C70.0561 23.0355 69.701 23.429 69.2436 23.7102C68.7862 23.9915 68.2507 24.1321 67.6371 24.1321ZM67.6413 23.0625C68.0391 23.0625 68.3686 22.9574 68.63 22.7472C68.8913 22.5369 69.0845 22.2571 69.2095 21.9077C69.3374 21.5582 69.4013 21.1733 69.4013 20.7528C69.4013 20.3352 69.3374 19.9517 69.2095 19.6023C69.0845 19.25 68.8913 18.9673 68.63 18.7543C68.3686 18.5412 68.0391 18.4347 67.6413 18.4347C67.2408 18.4347 66.9084 18.5412 66.6442 18.7543C66.3828 18.9673 66.1882 19.25 66.0604 19.6023C65.9354 19.9517 65.8729 20.3352 65.8729 20.7528C65.8729 21.1733 65.9354 21.5582 66.0604 21.9077C66.1882 22.2571 66.3828 22.5369 66.6442 22.7472C66.9084 22.9574 67.2408 23.0625 67.6413 23.0625ZM77.0153 19.0526L75.8604 19.2571C75.8121 19.1094 75.7354 18.9687 75.6303 18.8352C75.5281 18.7017 75.3888 18.5923 75.2127 18.5071C75.0366 18.4219 74.8164 18.3793 74.5522 18.3793C74.1914 18.3793 73.8903 18.4602 73.6488 18.6222C73.4073 18.7812 73.2866 18.9872 73.2866 19.2401C73.2866 19.4588 73.3675 19.6349 73.5295 19.7685C73.6914 19.902 73.9528 20.0114 74.3136 20.0966L75.3533 20.3352C75.9556 20.4744 76.4045 20.6889 76.6999 20.9787C76.9954 21.2685 77.1431 21.6449 77.1431 22.108C77.1431 22.5 77.0295 22.8494 76.8022 23.1562C76.5778 23.4602 76.2638 23.6989 75.8604 23.8722C75.4599 24.0455 74.9954 24.1321 74.467 24.1321C73.734 24.1321 73.136 23.9759 72.6729 23.6634C72.2099 23.348 71.9258 22.9006 71.8207 22.321L73.0522 22.1335C73.1289 22.4545 73.2866 22.6974 73.5252 22.8622C73.7638 23.0241 74.0749 23.1051 74.4585 23.1051C74.8761 23.1051 75.2099 23.0185 75.4599 22.8452C75.7099 22.669 75.8349 22.4545 75.8349 22.2017C75.8349 21.9972 75.7582 21.8253 75.6048 21.6861C75.4542 21.5469 75.2227 21.4418 74.9102 21.3707L73.8022 21.1278C73.1914 20.9886 72.7397 20.767 72.4471 20.4631C72.1573 20.1591 72.0124 19.7741 72.0124 19.3082C72.0124 18.9219 72.1204 18.5838 72.3363 18.294C72.5522 18.0043 72.8505 17.7784 73.2312 17.6165C73.6119 17.4517 74.0479 17.3693 74.5394 17.3693C75.2468 17.3693 75.8036 17.5227 76.2099 17.8295C76.6161 18.1335 76.8846 18.5412 77.0153 19.0526ZM81.3651 24.1321C80.7202 24.1321 80.1648 23.9943 79.6989 23.7188C79.2358 23.4403 78.8778 23.0497 78.625 22.5469C78.375 22.0412 78.25 21.4489 78.25 20.7699C78.25 20.0994 78.375 19.5085 78.625 18.9972C78.8778 18.4858 79.2301 18.0866 79.6818 17.7997C80.1364 17.5128 80.6676 17.3693 81.2756 17.3693C81.6449 17.3693 82.0028 17.4304 82.3494 17.5526C82.696 17.6747 83.0071 17.8665 83.2827 18.1278C83.5582 18.3892 83.7756 18.7287 83.9347 19.1463C84.0938 19.5611 84.1733 20.0653 84.1733 20.6591V21.1108H78.9702V20.1562H82.9247C82.9247 19.821 82.8565 19.5241 82.7202 19.2656C82.5838 19.0043 82.392 18.7983 82.1449 18.6477C81.9006 18.4972 81.6136 18.4219 81.2841 18.4219C80.9261 18.4219 80.6136 18.5099 80.3466 18.6861C80.0824 18.8594 79.8778 19.0866 79.733 19.3679C79.5909 19.6463 79.5199 19.9489 79.5199 20.2756V21.0213C79.5199 21.4588 79.5966 21.831 79.75 22.1378C79.9062 22.4446 80.1236 22.679 80.402 22.8409C80.6804 23 81.0057 23.0795 81.3778 23.0795C81.6193 23.0795 81.8395 23.0455 82.0384 22.9773C82.2372 22.9062 82.4091 22.8011 82.554 22.6619C82.6989 22.5227 82.8097 22.3509 82.8864 22.1463L84.0923 22.3636C83.9957 22.7187 83.8224 23.0298 83.5724 23.2969C83.3253 23.5611 83.0142 23.767 82.6392 23.9148C82.267 24.0597 81.8423 24.1321 81.3651 24.1321ZM86.8612 20.1136V24H85.587V17.4545H86.81V18.5199H86.891C87.0415 18.1733 87.2773 17.8949 87.5984 17.6847C87.9222 17.4744 88.3299 17.3693 88.8214 17.3693C89.2674 17.3693 89.658 17.4631 89.9933 17.6506C90.3285 17.8352 90.5884 18.1108 90.7731 18.4773C90.9577 18.8437 91.0501 19.2969 91.0501 19.8366V24H89.7759V19.9901C89.7759 19.5156 89.6523 19.1449 89.4052 18.8778C89.158 18.608 88.8185 18.473 88.3867 18.473C88.0913 18.473 87.8285 18.5369 87.5984 18.6648C87.3711 18.7926 87.1907 18.9801 87.0572 19.2273C86.9265 19.4716 86.8612 19.767 86.8612 20.1136Z" fill="#7E8299"/>
</svg>
