<svg width="28" height="28" viewBox="0 0 28 28" fill="none" xmlns="http://www.w3.org/2000/svg">
<path d="M14.0003 18.6667C16.5776 18.6667 18.667 16.5774 18.667 14.0001C18.667 11.4228 16.5776 9.33341 14.0003 9.33341C11.4229 9.33341 9.33361 11.4228 9.33361 14.0001C9.33361 16.5774 11.4229 18.6667 14.0003 18.6667ZM24.5056 4.67017H3.50553C2.86121 4.67017 2.33887 5.19249 2.33887 5.83683V22.1701C2.33887 22.8145 2.86121 23.3368 3.50553 23.3368H24.5056C25.1499 23.3368 25.6722 22.8145 25.6722 22.1701V5.83683C25.6722 5.19249 25.1499 4.67017 24.5056 4.67017ZM4.6722 18.2541V9.74608C5.9856 9.35325 7.02126 8.31715 7.41348 7.0035H20.5871C20.9804 8.32067 22.0204 9.35879 23.3389 9.74921V18.2509C22.0182 18.642 20.9767 19.683 20.585 21.0035H7.41552C7.02485 19.6866 5.98789 18.6476 4.6722 18.2541Z" fill="#727272"/>
</svg>
