<svg width="35" height="34" viewBox="0 0 35 34" fill="none" xmlns="http://www.w3.org/2000/svg">
<g clip-path="url(#clip0_1834_2932)">
<mask id="mask0_1834_2932" style="mask-type:luminance" maskUnits="userSpaceOnUse" x="0" y="0" width="35" height="34">
<path d="M35 0H0V34H35V0Z" fill="white"/>
</mask>
<g mask="url(#mask0_1834_2932)">
<path d="M19.8137 9.85168C19.8137 9.85168 22.9691 9.06388 23.9319 12.2537C23.9319 12.2537 20.6147 12.9696 19.8137 9.85168Z" fill="#777777"/>
<path d="M19.8137 9.85168L23.9319 12.2537C23.9319 12.2537 20.6147 12.9696 19.8137 9.85168Z" fill="#777777"/>
<path d="M19.789 9.72458C19.789 9.72458 23.0243 9.34773 22.7304 6.0354C22.7304 6.0354 19.3723 6.53688 19.789 9.72458Z" fill="#777777"/>
<path d="M19.789 9.72458L22.7304 6.0354C22.7304 6.0354 19.3723 6.53688 19.789 9.72458Z" fill="#777777"/>
<path d="M23.1865 9.23691C23.1865 9.23691 26.3424 8.44919 27.3043 11.6391C27.3043 11.6391 23.9875 12.3546 23.1865 9.23691Z" fill="#777777"/>
<path d="M23.1865 9.23688L27.3043 11.6391C27.3043 11.6391 23.9875 12.3545 23.1865 9.23688Z" fill="#777777"/>
<path d="M23.1616 9.10923C23.1616 9.10923 26.3969 8.73253 26.1032 5.4209C26.1032 5.4209 22.7444 5.92162 23.1616 9.10923Z" fill="#777777"/>
<path d="M23.1616 9.10923L26.1032 5.4209C26.1032 5.4209 22.7444 5.92162 23.1616 9.10923Z" fill="#777777"/>
<path d="M26.5591 8.6223C26.5591 8.6223 29.7152 7.83428 30.6771 11.0244C30.6771 11.0244 27.36 11.7396 26.5591 8.6223Z" fill="#777777"/>
<path d="M26.5591 8.62231L30.6771 11.0244C30.6771 11.0244 27.36 11.7397 26.5591 8.62231Z" fill="#777777"/>
<path d="M26.5346 8.49462C26.5346 8.49462 29.7697 8.11795 29.4764 4.80615C29.4764 4.80615 26.1176 5.30755 26.5346 8.49462Z" fill="#777777"/>
<path d="M26.5346 8.49462L29.4764 4.80615C29.4764 4.80615 26.1176 5.30755 26.5346 8.49462Z" fill="#777777"/>
<path d="M29.9316 8.00759C29.9316 8.00759 33.0877 7.21971 34.0498 10.4094C34.0498 10.4094 30.7331 11.1252 29.9316 8.00759Z" fill="#777777"/>
<path d="M29.9316 8.00763L34.0498 10.4094C34.0498 10.4094 30.7331 11.1253 29.9316 8.00763Z" fill="#777777"/>
<path d="M29.9071 7.87992C29.9071 7.87992 33.1428 7.50322 32.8489 4.19159C32.8489 4.19159 29.4906 4.69245 29.9071 7.87992Z" fill="#777777"/>
<path d="M29.9071 7.87992L32.8489 4.19159C32.8489 4.19159 29.4906 4.69245 29.9071 7.87992Z" fill="#777777"/>
<path d="M34.2419 7.10077C28.9648 8.06269 23.6881 9.02445 18.4116 9.98583C18.2806 10.0101 18.3186 10.2081 18.4498 10.1841C23.7265 9.22278 29.0036 8.26085 34.2805 7.29877C34.4118 7.27511 34.3735 7.07712 34.2419 7.10077Z" fill="#777777"/>
<path d="M19.4207 9.75376C19.4207 9.75376 22.5761 8.96604 23.5388 12.156C23.5388 12.156 20.2216 12.8718 19.4207 9.75376Z" fill="#FFC938"/>
<path d="M19.4207 9.75378L23.5388 12.156C23.5388 12.156 20.2216 12.8718 19.4207 9.75378Z" fill="white"/>
<path d="M19.3957 9.62673C19.3957 9.62673 22.6309 9.24997 22.3371 5.93762C22.3371 5.93762 18.9789 6.43912 19.3957 9.62673Z" fill="#FFC938"/>
<path d="M19.3959 9.62673L22.3373 5.93762C22.3373 5.93762 18.9792 6.43912 19.3959 9.62673Z" fill="white"/>
<path d="M22.7932 9.13907C22.7932 9.13907 25.949 8.35135 26.911 11.5414C26.911 11.5414 23.5941 12.2567 22.7932 9.13907Z" fill="#FFC938"/>
<path d="M22.7932 9.1391L26.911 11.5415C26.911 11.5415 23.5941 12.2567 22.7932 9.1391Z" fill="white"/>
<path d="M22.7685 9.01151C22.7685 9.01151 26.0038 8.63466 25.7102 5.32318C25.7102 5.32318 22.3514 5.8239 22.7685 9.01151Z" fill="#FFC938"/>
<path d="M22.7685 9.01151L25.7102 5.32318C25.7102 5.32318 22.3514 5.8239 22.7685 9.01151Z" fill="white"/>
<path d="M26.166 8.52454C26.166 8.52454 29.3222 7.73643 30.284 10.9267C30.284 10.9267 26.9669 11.6418 26.166 8.52454Z" fill="#FFC938"/>
<path d="M26.166 8.52454L30.284 10.9267C30.284 10.9267 26.9669 11.6418 26.166 8.52454Z" fill="white"/>
<path d="M26.1416 8.39697C26.1416 8.39697 29.3767 8.02021 29.0835 4.70844C29.0835 4.70844 25.7246 5.20976 26.1416 8.39697Z" fill="#FFC938"/>
<path d="M26.1416 8.39697L29.0835 4.70844C29.0835 4.70844 25.7246 5.20976 26.1416 8.39697Z" fill="white"/>
<path d="M29.5386 7.90987C29.5386 7.90987 32.6946 7.12199 33.6568 10.3118C33.6568 10.3118 30.34 11.0274 29.5386 7.90987Z" fill="#FFC938"/>
<path d="M29.5386 7.90991L33.6568 10.3118C33.6568 10.3118 30.34 11.0275 29.5386 7.90991Z" fill="white"/>
<path d="M29.514 7.78223C29.514 7.78223 32.7497 7.40548 32.4558 4.09369C32.4558 4.09369 29.0976 4.59469 29.514 7.78223Z" fill="#FFC938"/>
<path d="M29.514 7.78223L32.4558 4.09369C32.4558 4.09369 29.0976 4.59469 29.514 7.78223Z" fill="white"/>
<path d="M33.8488 7.00293C28.5718 7.96485 23.295 8.9267 18.0186 9.88799C17.8875 9.91227 17.9255 10.1101 18.0567 10.0864C23.3335 9.12487 28.6105 8.16303 33.8874 7.20104C34.0188 7.17736 33.9804 6.97928 33.8488 7.00293Z" fill="white"/>
<path d="M18.0228 14.9302C18.0228 14.9302 20.8703 16.4681 19.309 19.4262C19.309 19.4262 16.3951 17.7279 18.0228 14.9302Z" fill="#777777"/>
<path d="M18.0228 14.9302L19.309 19.4262C19.309 19.4262 16.3951 17.7279 18.0228 14.9302Z" fill="#777777"/>
<path d="M18.0947 14.8215C18.0947 14.8215 20.7089 16.7109 22.8423 14.1112C22.8423 14.1112 20.0506 12.2301 18.0947 14.8215Z" fill="#777777"/>
<path d="M18.0947 14.8215L22.8423 14.1112C22.8423 14.1112 20.0506 12.2301 18.0947 14.8215Z" fill="#777777"/>
<path d="M20.9054 16.739C20.9054 16.739 23.753 18.2771 22.1911 21.2347C22.1911 21.2347 19.2779 19.5363 20.9054 16.739Z" fill="#777777"/>
<path d="M20.9054 16.739L22.1911 21.2347C22.1911 21.2347 19.2778 19.5363 20.9054 16.739Z" fill="#777777"/>
<path d="M20.9778 16.6298C20.9778 16.6298 23.592 18.5192 25.7249 15.9203C25.7249 15.9203 22.9333 14.0382 20.9778 16.6298Z" fill="#777777"/>
<path d="M20.9778 16.6299L25.7249 15.9203C25.7249 15.9203 22.9333 14.0382 20.9778 16.6299Z" fill="#777777"/>
<path d="M23.7878 18.5478C23.7878 18.5478 26.636 20.0858 25.0739 23.0436C25.0739 23.0436 22.1605 21.3448 23.7878 18.5478Z" fill="#777777"/>
<path d="M23.7878 18.5478L25.0739 23.0436C25.0739 23.0436 22.1605 21.3448 23.7878 18.5478Z" fill="#777777"/>
<path d="M23.8604 18.4387C23.8604 18.4387 26.4745 20.3282 28.6078 17.7294C28.6078 17.7294 25.8157 15.8476 23.8604 18.4387Z" fill="#777777"/>
<path d="M23.8604 18.4387L28.6078 17.7294C28.6078 17.7294 25.8157 15.8476 23.8604 18.4387Z" fill="#777777"/>
<path d="M26.67 20.3564C26.67 20.3564 29.5181 21.8947 27.9564 24.8521C27.9564 24.8521 25.0429 23.1541 26.67 20.3564Z" fill="#777777"/>
<path d="M26.67 20.3564L27.9564 24.8521C27.9564 24.8521 25.0429 23.1541 26.67 20.3564Z" fill="#777777"/>
<path d="M26.7427 20.2474C26.7427 20.2474 29.3572 22.1371 31.49 19.5379C31.49 19.5379 28.6985 17.6562 26.7427 20.2474Z" fill="#777777"/>
<path d="M26.7427 20.2474L31.49 19.5379C31.49 19.5379 28.6985 17.6562 26.7427 20.2474Z" fill="#777777"/>
<path d="M30.4398 22.5799C25.9295 19.7501 21.4198 16.9203 16.9104 14.0904C16.7981 14.0204 16.6854 14.1893 16.7975 14.2598C21.3071 17.09 25.8172 19.9198 30.3274 22.7494C30.4395 22.8202 30.5519 22.6507 30.4398 22.5799Z" fill="#777777"/>
<path d="M17.8068 14.5964C17.8068 14.5964 20.6542 16.1344 19.0929 19.0924C19.0929 19.0924 16.179 17.3941 17.8068 14.5964Z" fill="#FFC938"/>
<path d="M17.8068 14.5964L19.0929 19.0924C19.0929 19.0924 16.179 17.3941 17.8068 14.5964Z" fill="white"/>
<path d="M17.8789 14.4877C17.8789 14.4877 20.4931 16.377 22.6265 13.7775C22.6265 13.7775 19.8347 11.8963 17.8789 14.4877Z" fill="#FFC938"/>
<path d="M17.8789 14.4877L22.6265 13.7775C22.6265 13.7775 19.8347 11.8963 17.8789 14.4877Z" fill="white"/>
<path d="M20.6893 16.4051C20.6893 16.4051 23.537 17.9433 21.975 20.9008C21.975 20.9008 19.0618 19.2026 20.6893 16.4051Z" fill="#FFC938"/>
<path d="M20.6893 16.4051L21.975 20.9008C21.975 20.9008 19.0618 19.2026 20.6893 16.4051Z" fill="white"/>
<path d="M20.7617 16.2961C20.7617 16.2961 23.3759 18.1855 25.5088 15.5865C25.5088 15.5865 22.7172 13.7044 20.7617 16.2961Z" fill="#FFC938"/>
<path d="M20.7617 16.2961L25.5088 15.5865C25.5088 15.5865 22.7172 13.7044 20.7617 16.2961Z" fill="white"/>
<path d="M23.5718 18.2141C23.5718 18.2141 26.4199 19.7522 24.8578 22.7099C24.8578 22.7099 21.9444 21.0111 23.5718 18.2141Z" fill="#FFC938"/>
<path d="M23.5718 18.2141L24.8578 22.7099C24.8578 22.7099 21.9444 21.0111 23.5718 18.2141Z" fill="white"/>
<path d="M23.6443 18.105C23.6443 18.105 26.2584 19.9944 28.3917 17.3956C28.3917 17.3956 25.5996 15.5138 23.6443 18.105Z" fill="#FFC938"/>
<path d="M23.6443 18.105L28.3917 17.3956C28.3917 17.3956 25.5996 15.5138 23.6443 18.105Z" fill="white"/>
<path d="M26.454 20.0226C26.454 20.0226 29.3019 21.5609 27.7404 24.5184C27.7404 24.5184 24.8268 22.8203 26.454 20.0226Z" fill="#FFC938"/>
<path d="M26.454 20.0226L27.7404 24.5184C27.7404 24.5184 24.8268 22.8203 26.454 20.0226Z" fill="white"/>
<path d="M26.5266 19.9135C26.5266 19.9135 29.1412 21.8034 31.274 19.204C31.274 19.204 28.4826 17.3224 26.5266 19.9135Z" fill="#FFC938"/>
<path d="M26.5266 19.9135L31.274 19.204C31.274 19.204 28.4826 17.3224 26.5266 19.9135Z" fill="white"/>
<path d="M30.2239 22.2461C25.7137 19.4163 21.2038 16.5865 16.6946 13.7565C16.5823 13.6865 16.4696 13.8555 16.5817 13.9259C21.0913 16.7559 25.6013 19.5859 30.1116 22.4156C30.2236 22.4863 30.336 22.3169 30.2239 22.2461Z" fill="white"/>
<path d="M12.7717 2.06134C19.1582 2.06134 24.3391 7.09617 24.3391 13.3096C24.3391 19.5198 19.1582 24.5578 12.7717 24.5578C6.38203 24.5578 1.20435 19.5198 1.20435 13.3096C1.20435 7.09617 6.38203 2.06134 12.7717 2.06134Z" fill="#777777"/>
<path d="M12.3682 0.810852C18.7547 0.810852 23.9356 5.84558 23.9356 12.0591C23.9356 18.2693 18.7547 23.3073 12.3682 23.3073C5.97848 23.3073 0.800781 18.2693 0.800781 12.0591C0.800781 5.84558 5.97848 0.810852 12.3682 0.810852Z" fill="#ECF1FF"/>
<path d="M12.3681 3.56885C17.1905 3.56885 21.0991 7.36968 21.0991 12.059C21.0991 16.7483 17.1905 20.5492 12.3681 20.5492C7.54572 20.5492 3.63696 16.7483 3.63696 12.059C3.63696 7.36968 7.54572 3.56885 12.3681 3.56885Z" fill="#C6D3F5"/>
<path d="M4.80225 14.0542V13.3584L17.2573 13.3559V14.1132L15.8361 14.8754C15.8361 14.8754 8.77774 16.0716 8.73834 15.9325C8.69893 15.7934 5.32088 14.335 5.32088 14.335L4.80225 14.0542Z" fill="#E46C13"/>
<path d="M17.1753 13.8948L11.2333 8.12237C11.1214 8.01365 10.9401 8.01365 10.8281 8.12237L4.88618 13.8948C4.77427 14.0035 4.77427 14.1795 4.88618 14.2882L10.8281 20.0605C10.9401 20.1694 11.1214 20.1694 11.2333 20.0605L17.1753 14.2882C17.2873 14.1795 17.2873 14.0035 17.1753 13.8948Z" fill="#E46C13"/>
<path d="M17.1755 13.181C17.2875 13.2897 17.2875 13.4658 17.1755 13.5746L11.2335 19.3468C11.1216 19.4555 10.9404 19.4555 10.8284 19.3468L4.88642 13.5746C4.77451 13.4658 4.77451 13.2897 4.88642 13.181L10.8284 7.40857C10.9404 7.29993 11.1216 7.29993 11.2335 7.40857L17.1755 13.181Z" fill="#F9C548"/>
<path d="M7.50425 13.3631C7.55002 13.4073 7.55002 13.4794 7.50425 13.5237L6.4881 14.5108C6.4422 14.5552 6.3683 14.5552 6.32254 14.5108L5.30646 13.5237C5.2608 13.4794 5.2608 13.4073 5.30646 13.3631L6.32254 12.3757C6.3683 12.3314 6.4422 12.3314 6.4881 12.3757L7.50425 13.3631Z" fill="#EF7C1F"/>
<path d="M6.32252 12.3757L5.30648 13.3631C5.2608 13.4073 5.2608 13.4794 5.30648 13.5236L5.31765 13.5348L6.30591 12.575C6.35172 12.5304 6.42591 12.5304 6.4714 12.575L7.47626 13.5508L7.50422 13.5236C7.55 13.4794 7.55 13.4073 7.50422 13.3631L6.48808 12.3757C6.44217 12.3314 6.36827 12.3314 6.32252 12.3757Z" fill="#EF7C1F"/>
<path d="M9.06848 11.8432C9.11426 11.8877 9.11426 11.9597 9.06848 12.004L8.05221 12.9911C8.00669 13.0355 7.9325 13.0355 7.88681 12.9911L6.87054 12.004C6.82506 11.9597 6.82506 11.8877 6.87054 11.8432L7.88681 10.8562C7.9325 10.8118 8.00669 10.8119 8.05221 10.8562L9.06848 11.8432Z" fill="#EF7C1F"/>
<path d="M7.88683 10.8562L6.87055 11.8432C6.82505 11.8877 6.82505 11.9597 6.87055 12.004L6.88216 12.0151L7.87018 11.0552C7.91588 11.0108 7.99006 11.0108 8.03594 11.0552L9.04051 12.0312L9.0685 12.004C9.11425 11.9597 9.11425 11.8877 9.0685 11.8432L8.05222 10.8562C8.0067 10.8119 7.93251 10.8118 7.88683 10.8562Z" fill="#EF7C1F"/>
<path d="M10.6329 10.3237C10.6787 10.3679 10.6787 10.44 10.6329 10.4844L9.61672 11.4717C9.57093 11.516 9.49703 11.516 9.45114 11.4717L8.43514 10.4844C8.38946 10.44 8.38946 10.3679 8.43514 10.3237L9.45114 9.33663C9.49703 9.29217 9.57093 9.29217 9.61672 9.33663L10.6329 10.3237Z" fill="#EF7C1F"/>
<path d="M9.45114 9.33663L8.43514 10.3237C8.38946 10.3679 8.38946 10.44 8.43514 10.4844L8.44657 10.4955L9.43459 9.53548C9.48038 9.49126 9.55458 9.49126 9.60026 9.53548L10.6049 10.5116L10.6329 10.4844C10.6787 10.44 10.6787 10.3679 10.6329 10.3237L9.61674 9.33663C9.57093 9.29217 9.49703 9.29217 9.45114 9.33663Z" fill="#EF7C1F"/>
<path d="M12.1972 8.80399C12.2429 8.84853 12.2429 8.92035 12.1972 8.96482L11.1812 9.95194C11.1353 9.9964 11.0611 9.9964 11.0154 9.95194L9.99942 8.96482C9.95364 8.92059 9.95364 8.84853 9.99942 8.80399L11.0154 7.81686C11.0611 7.77255 11.1353 7.77255 11.1812 7.81686L12.1972 8.80399Z" fill="#EF7C1F"/>
<path d="M11.0154 7.81686L9.99943 8.80399C9.95364 8.84853 9.95364 8.92059 9.99943 8.9648L10.0108 8.97594L10.9988 8.01595C11.0445 7.97165 11.1187 7.97165 11.1643 8.01595L12.1691 8.99202L12.1972 8.9648C12.2429 8.92035 12.2429 8.84853 12.1972 8.80399L11.1812 7.81686C11.1353 7.77255 11.0611 7.77255 11.0154 7.81686Z" fill="#EF7C1F"/>
<path d="M9.02349 14.8388C9.06924 14.8831 9.06924 14.9551 9.02349 14.9994L8.00748 15.9867C7.9618 16.0312 7.88763 16.0312 7.84178 15.9867L6.82572 14.9994C6.7801 14.9551 6.7801 14.8831 6.82572 14.8388L7.84178 13.8516C7.88763 13.8072 7.9618 13.8072 8.00748 13.8516L9.02349 14.8388Z" fill="#EF7C1F"/>
<path d="M7.84178 13.8516L6.82574 14.8388C6.78009 14.8831 6.78009 14.9551 6.82574 14.9994L6.83717 15.0107L7.82546 14.0507C7.871 14.0064 7.94515 14.0064 7.99086 14.0507L8.99552 15.0268L9.02348 14.9994C9.06924 14.9551 9.06924 14.8831 9.02348 14.8388L8.00748 13.8516C7.9618 13.8072 7.88762 13.8072 7.84178 13.8516Z" fill="#EF7C1F"/>
<path d="M10.5878 13.3193C10.6335 13.3636 10.6335 13.4356 10.5878 13.4799L9.57177 14.4671C9.52592 14.5114 9.45171 14.5114 9.40623 14.4671L8.39004 13.4799C8.34427 13.4356 8.34427 13.3636 8.39004 13.3193L9.40623 12.3319C9.45171 12.2878 9.52592 12.2878 9.57177 12.3319L10.5878 13.3193Z" fill="#EF7C1F"/>
<path d="M9.40623 12.3319L8.39003 13.3193C8.34427 13.3636 8.34427 13.4356 8.39003 13.4799L8.40137 13.491L9.38941 12.5311C9.43516 12.4867 9.50934 12.4867 9.55515 12.5311L10.5597 13.5072L10.5878 13.4799C10.6335 13.4356 10.6335 13.3636 10.5878 13.3193L9.57179 12.3319C9.52594 12.2878 9.45171 12.2878 9.40623 12.3319Z" fill="#EF7C1F"/>
<path d="M12.1521 11.7995C12.1979 11.8439 12.1979 11.916 12.1521 11.9603L11.1362 12.9475C11.0905 12.9918 11.0163 12.9918 10.9705 12.9475L9.95451 11.9603C9.90872 11.916 9.90872 11.8439 9.95451 11.7995L10.9705 10.8123C11.0164 10.7679 11.0905 10.7679 11.1362 10.8123L12.1521 11.7995Z" fill="#EF7C1F"/>
<path d="M10.9705 10.8123L9.95452 11.7995C9.90871 11.8439 9.90871 11.916 9.95452 11.9603L9.96595 11.9714L10.9539 11.0115C10.9997 10.9672 11.0738 10.9672 11.1193 11.0115L12.1242 11.9874L12.1522 11.9603C12.1979 11.916 12.1979 11.8439 12.1522 11.7995L11.1362 10.8123C11.0905 10.7679 11.0164 10.7679 10.9705 10.8123Z" fill="#EF7C1F"/>
<path d="M13.7166 10.2799C13.7622 10.3243 13.7622 10.3964 13.7166 10.4407L12.7004 11.4279C12.6547 11.4723 12.5804 11.4723 12.5349 11.4279L11.5187 10.4407C11.4729 10.3964 11.4729 10.3243 11.5187 10.2799L12.5349 9.29281C12.5804 9.24851 12.6547 9.24851 12.7004 9.29281L13.7166 10.2799Z" fill="#EF7C1F"/>
<path d="M12.5349 9.29281L11.5187 10.2799C11.4729 10.3243 11.4729 10.3964 11.5187 10.4407L11.53 10.4519L12.5181 9.49198C12.5638 9.44753 12.638 9.44753 12.6838 9.49198L13.6885 10.4679L13.7166 10.4407C13.7621 10.3964 13.7621 10.3243 13.7166 10.2799L12.7005 9.29281C12.6547 9.24851 12.5804 9.24851 12.5349 9.29281Z" fill="#EF7C1F"/>
<path d="M10.5428 16.3146C10.5886 16.359 10.5886 16.4311 10.5428 16.4755L9.52674 17.4625C9.48106 17.507 9.40688 17.507 9.3614 17.4625L8.34505 16.4755C8.29937 16.4311 8.29937 16.359 8.34505 16.3146L9.3614 15.3277C9.40688 15.2832 9.48106 15.2832 9.52674 15.3277L10.5428 16.3146Z" fill="#EF7C1F"/>
<path d="M9.36142 15.3277L8.34507 16.3146C8.29937 16.359 8.29937 16.4311 8.34507 16.4754L8.35648 16.4864L9.3445 15.5266C9.39027 15.4821 9.46445 15.4821 9.51013 15.5266L10.5148 16.5028L10.5428 16.4754C10.5886 16.4311 10.5886 16.359 10.5428 16.3146L9.52677 15.3277C9.48107 15.2832 9.4069 15.2832 9.36142 15.3277Z" fill="#EF7C1F"/>
<path d="M12.1073 14.7951C12.1528 14.8394 12.1528 14.9114 12.1073 14.9558L11.091 15.9429C11.0452 15.9873 10.971 15.9873 10.9253 15.9429L9.90932 14.9558C9.86356 14.9114 9.86356 14.8394 9.90932 14.7951L10.9253 13.8079C10.971 13.7636 11.0452 13.7636 11.091 13.8079L12.1073 14.7951Z" fill="#EF7C1F"/>
<path d="M10.9253 13.8079L9.90932 14.7951C9.86356 14.8394 9.86356 14.9114 9.90932 14.9557L9.92067 14.9669L10.9087 14.007C10.9545 13.9625 11.0287 13.9625 11.0744 14.007L12.079 14.9831L12.1073 14.9557C12.1528 14.9114 12.1528 14.8394 12.1073 14.7951L11.0911 13.8079C11.0452 13.7636 10.971 13.7636 10.9253 13.8079Z" fill="#EF7C1F"/>
<path d="M13.6714 13.2753C13.7172 13.3198 13.7172 13.3919 13.6714 13.4363L12.6553 14.4234C12.6096 14.4677 12.5357 14.4677 12.49 14.4234L11.4737 13.4363C11.428 13.3919 11.4281 13.3198 11.4737 13.2753L12.49 12.2883C12.5357 12.2439 12.6096 12.2439 12.6553 12.2883L13.6714 13.2753Z" fill="#EF7C1F"/>
<path d="M12.49 12.2883L11.4737 13.2753C11.4281 13.3198 11.428 13.3919 11.4737 13.4363L11.4851 13.4475L12.4733 12.4874C12.5188 12.4429 12.593 12.4429 12.6388 12.4874L13.6434 13.4635L13.6714 13.4363C13.7172 13.3919 13.7172 13.3198 13.6714 13.2753L12.6553 12.2883C12.6097 12.2439 12.5356 12.2439 12.49 12.2883Z" fill="#EF7C1F"/>
<path d="M15.2358 11.7558C15.2814 11.8001 15.2814 11.8723 15.2358 11.9165L14.2197 12.9038C14.1739 12.9481 14.1 12.9481 14.0541 12.9038L13.0379 11.9165C12.9922 11.8723 12.9922 11.8001 13.0379 11.7558L14.0541 10.7686C14.1 10.7244 14.1739 10.7244 14.2197 10.7686L15.2358 11.7558Z" fill="#EF7C1F"/>
<path d="M14.0541 10.7687L13.0379 11.7558C12.9922 11.8002 12.9922 11.8723 13.0379 11.9165L13.0496 11.9277L14.0376 10.9678C14.0833 10.9233 14.1573 10.9233 14.203 10.9678L15.2079 11.9438L15.2358 11.9165C15.2814 11.8723 15.2814 11.8002 15.2358 11.7558L14.2197 10.7687C14.1739 10.7244 14.1 10.7244 14.0541 10.7687Z" fill="#EF7C1F"/>
<path d="M12.0621 17.7905C12.1076 17.835 12.1076 17.9069 12.0621 17.9514L11.0458 18.9383C11.0001 18.9828 10.9262 18.9828 10.8805 18.9383L9.8641 17.9514C9.81841 17.9069 9.81841 17.835 9.8641 17.7905L10.8805 16.8034C10.9262 16.759 11.0001 16.759 11.0458 16.8034L12.0621 17.7905Z" fill="#EF7C1F"/>
<path d="M10.8804 16.8034L9.8641 17.7905C9.81841 17.835 9.81841 17.9069 9.8641 17.9514L9.87558 17.9624L10.8635 17.0025C10.9093 16.9581 10.9835 16.9581 11.0292 17.0025L12.0339 17.9786L12.0621 17.9514C12.1076 17.9069 12.1076 17.835 12.0621 17.7905L11.0458 16.8034C11.0001 16.759 10.9261 16.759 10.8804 16.8034Z" fill="#EF7C1F"/>
<path d="M13.6266 16.2709C13.6723 16.3152 13.6723 16.3873 13.6266 16.4316L12.6104 17.4187C12.5646 17.4632 12.4906 17.4632 12.4448 17.4187L11.4286 16.4316C11.3832 16.3873 11.3832 16.3152 11.4286 16.2709L12.4448 15.2838C12.4906 15.2394 12.5646 15.2394 12.6104 15.2838L13.6266 16.2709Z" fill="#EF7C1F"/>
<path d="M12.4448 15.2838L11.4287 16.271C11.3832 16.3153 11.3832 16.3873 11.4287 16.4317L11.44 16.4427L12.4283 15.4828C12.4741 15.4385 12.548 15.4385 12.5938 15.4828L13.5984 16.4589L13.6266 16.4317C13.6724 16.3873 13.6724 16.3153 13.6266 16.271L12.6104 15.2838C12.5646 15.2395 12.4906 15.2395 12.4448 15.2838Z" fill="#EF7C1F"/>
<path d="M15.1908 14.7512C15.2365 14.7956 15.2365 14.8676 15.1908 14.9121L14.1745 15.8991C14.129 15.9435 14.0548 15.9435 14.0091 15.8991L12.9928 14.9121C12.9471 14.8676 12.9471 14.7956 12.9928 14.7512L14.0091 13.7642C14.0548 13.7197 14.129 13.7197 14.1745 13.7642L15.1908 14.7512Z" fill="#EF7C1F"/>
<path d="M14.0091 13.7642L12.9928 14.7512C12.9471 14.7956 12.9471 14.8676 12.9928 14.9121L13.0044 14.9231L13.9924 13.9633C14.0381 13.9189 14.1121 13.9189 14.1579 13.9633L15.1627 14.9393L15.1907 14.9121C15.2365 14.8676 15.2365 14.7956 15.1907 14.7512L14.1744 13.7642C14.129 13.7197 14.0548 13.7197 14.0091 13.7642Z" fill="#EF7C1F"/>
<path d="M16.755 13.2316C16.8005 13.276 16.8005 13.348 16.755 13.3924L15.7388 14.3796C15.693 14.4238 15.6191 14.4238 15.5732 14.3796L14.5571 13.3924C14.5116 13.348 14.5116 13.276 14.5571 13.2316L15.5732 12.2445C15.6191 12.2001 15.693 12.2001 15.7388 12.2445L16.755 13.2316Z" fill="#EF7C1F"/>
<path d="M15.5733 12.2445L14.5571 13.2316C14.5116 13.276 14.5116 13.348 14.5571 13.3924L14.5684 13.4036L15.5567 12.4436C15.6025 12.3992 15.6765 12.3992 15.7222 12.4436L16.7268 13.4197L16.755 13.3924C16.8005 13.348 16.8005 13.276 16.755 13.2316L15.7388 12.2445C15.693 12.2001 15.6191 12.2001 15.5733 12.2445Z" fill="#EF7C1F"/>
<path d="M7.43213 9.02043V8.32472L19.8872 8.32208V9.0795L18.466 9.84171C18.466 9.84171 11.4076 11.038 11.3683 10.8987C11.3289 10.7597 7.95095 9.30132 7.95095 9.30132L7.43213 9.02043Z" fill="#E46C13"/>
<path d="M19.8053 8.86089L13.8633 3.08868C13.7512 2.97988 13.5701 2.97988 13.4581 3.08868L7.51616 8.86089C7.40412 8.96967 7.40412 9.14573 7.51616 9.25453L13.4581 15.0268C13.5701 15.1355 13.7512 15.1355 13.8633 15.0268L19.8053 9.25453C19.9172 9.14573 19.9172 8.96967 19.8053 8.86089Z" fill="#E46C13"/>
<path d="M19.8055 8.14725C19.9175 8.2558 19.9175 8.43194 19.8055 8.5408L13.8635 14.3131C13.7515 14.4217 13.5704 14.4217 13.4584 14.3131L7.5164 8.5408C7.40436 8.43194 7.40436 8.2558 7.5164 8.14725L13.4584 2.37481C13.5704 2.2661 13.7515 2.2661 13.8635 2.37481L19.8055 8.14725Z" fill="#F9C548"/>
<path d="M10.1342 8.32909C10.1799 8.37354 10.1799 8.44556 10.1342 8.49001L9.11788 9.47698C9.0722 9.52136 8.99822 9.52136 8.95252 9.47698L7.93648 8.49001C7.89064 8.44556 7.89064 8.37354 7.93648 8.32909L8.95252 7.34207C8.99822 7.2976 9.0722 7.2976 9.11788 7.34207L10.1342 8.32909Z" fill="#EF7C1F"/>
<path d="M8.95252 7.34205L7.93648 8.3291C7.89064 8.37356 7.89064 8.44555 7.93648 8.48999L7.94766 8.50097L8.93584 7.54115C8.98153 7.49668 9.05576 7.49668 9.10124 7.54115L10.1062 8.51721L10.1342 8.48999C10.1799 8.44555 10.1799 8.37356 10.1342 8.3291L9.11788 7.34205C9.07218 7.2976 8.99821 7.2976 8.95252 7.34205Z" fill="#EF7C1F"/>
<path d="M11.6986 6.80947C11.7444 6.85384 11.7444 6.92574 11.6986 6.9702L10.6824 7.95751C10.6369 8.0018 10.5626 8.0018 10.5169 7.95751L9.50066 6.9702C9.45518 6.92574 9.45518 6.85384 9.50066 6.80947L10.5169 5.82244C10.5626 5.7779 10.6369 5.77797 10.6824 5.82244L11.6986 6.80947Z" fill="#EF7C1F"/>
<path d="M10.5169 5.82244L9.50066 6.80948C9.45518 6.85386 9.45518 6.92577 9.50066 6.97022L9.51229 6.98143L10.5003 6.02137C10.5461 5.97707 10.6203 5.97707 10.6659 6.02137L11.6706 6.99746L11.6986 6.97022C11.7444 6.92577 11.7444 6.85386 11.6986 6.80948L10.6824 5.82244C10.6369 5.77797 10.5626 5.7779 10.5169 5.82244Z" fill="#EF7C1F"/>
<path d="M13.2628 5.28988C13.3085 5.33426 13.3085 5.40635 13.2628 5.45073L12.2465 6.43784C12.2008 6.48224 12.1268 6.48224 12.0811 6.43784L11.0651 5.45073C11.0193 5.40635 11.0193 5.33426 11.0651 5.28988L12.0811 4.30269C12.1268 4.25848 12.2008 4.25848 12.2465 4.30269L13.2628 5.28988Z" fill="#EF7C1F"/>
<path d="M12.0811 4.30263L11.0651 5.28984C11.0193 5.33421 11.0193 5.40629 11.0651 5.45066L11.0764 5.46164L12.0645 4.50173C12.1101 4.45735 12.1844 4.45735 12.2302 4.50173L13.2348 5.47795L13.2628 5.45066C13.3085 5.40629 13.3085 5.33421 13.2628 5.28984L12.2465 4.30263C12.2008 4.25842 12.1268 4.25842 12.0811 4.30263Z" fill="#EF7C1F"/>
<path d="M14.8272 3.77033C14.873 3.81463 14.873 3.88662 14.8272 3.93107L13.8112 4.91827C13.7655 4.96258 13.6913 4.96258 13.6456 4.91827L12.6295 3.93107C12.5838 3.88676 12.5838 3.81454 12.6295 3.77033L13.6456 2.78305C13.6913 2.73866 13.7655 2.73866 13.8112 2.78305L14.8272 3.77033Z" fill="#EF7C1F"/>
<path d="M13.6456 2.78304L12.6295 3.77031C12.5838 3.81455 12.5838 3.88676 12.6295 3.93107L12.6409 3.94219L13.6289 2.9822C13.6747 2.9379 13.7489 2.9379 13.7944 2.9822L14.7992 3.9582L14.8272 3.93107C14.873 3.8866 14.873 3.81462 14.8272 3.77031L13.8112 2.78304C13.7655 2.73866 13.6913 2.73866 13.6456 2.78304Z" fill="#EF7C1F"/>
<path d="M11.6535 9.80492C11.6992 9.84938 11.6992 9.92138 11.6535 9.96583L10.6374 10.9529C10.5917 10.9973 10.5175 10.9973 10.4718 10.9529L9.4558 9.96583C9.40992 9.92138 9.40992 9.84938 9.4558 9.80492L10.4718 8.81789C10.5175 8.77351 10.5917 8.77351 10.6374 8.81789L11.6535 9.80492Z" fill="#EF7C1F"/>
<path d="M10.4718 8.81789L9.4558 9.80493C9.40992 9.8494 9.40992 9.92138 9.4558 9.96585L9.4671 9.97681L10.4553 9.01707C10.5008 8.97268 10.575 8.97268 10.6209 9.01707L11.6255 9.99314L11.6534 9.96585C11.6992 9.92138 11.6992 9.8494 11.6534 9.80493L10.6374 8.81789C10.5917 8.77351 10.5175 8.77351 10.4718 8.81789Z" fill="#EF7C1F"/>
<path d="M13.2179 8.28533C13.2636 8.3298 13.2636 8.4016 13.2179 8.44609L12.2019 9.43329C12.1562 9.4776 12.082 9.4776 12.0364 9.43329L11.0201 8.44609C10.9744 8.4016 10.9744 8.3298 11.0201 8.28533L12.0364 7.2983C12.082 7.25384 12.1562 7.25384 12.2019 7.2983L13.2179 8.28533Z" fill="#EF7C1F"/>
<path d="M12.0364 7.29829L11.0201 8.28533C10.9744 8.3298 10.9744 8.40163 11.0201 8.44609L11.0315 8.4573L12.0196 7.49738C12.0653 7.45292 12.1395 7.45292 12.1852 7.49738L13.1899 8.47345L13.2179 8.44609C13.2636 8.40163 13.2636 8.3298 13.2179 8.28533L12.2018 7.29829C12.1562 7.25384 12.082 7.25384 12.0364 7.29829Z" fill="#EF7C1F"/>
<path d="M14.7821 6.76572C14.8278 6.81018 14.8278 6.88217 14.7821 6.92647L13.7661 7.91377C13.7203 7.95798 13.6461 7.95798 13.6004 7.91377L12.5844 6.92647C12.5386 6.88217 12.5386 6.81018 12.5844 6.76572L13.6004 5.77853C13.6463 5.73422 13.7203 5.73422 13.7661 5.77853L14.7821 6.76572Z" fill="#EF7C1F"/>
<path d="M13.6004 5.77853L12.5844 6.76573C12.5386 6.81018 12.5386 6.88217 12.5844 6.92647L12.5957 6.93768L13.5837 5.97778C13.6295 5.93332 13.7037 5.93332 13.7492 5.97778L14.7541 6.95369L14.7821 6.92647C14.8278 6.88217 14.8278 6.81018 14.7821 6.76573L13.7661 5.77853C13.7203 5.73422 13.6463 5.73422 13.6004 5.77853Z" fill="#EF7C1F"/>
<path d="M16.3465 5.24603C16.392 5.2905 16.392 5.36262 16.3465 5.40693L15.3302 6.39413C15.2845 6.43844 15.2103 6.43844 15.1649 6.39413L14.1486 5.40693C14.1028 5.36262 14.1028 5.2905 14.1486 5.24603L15.1649 4.25906C15.2103 4.21459 15.2845 4.21459 15.3302 4.25906L16.3465 5.24603Z" fill="#EF7C1F"/>
<path d="M15.1651 4.25906L14.1488 5.24603C14.1031 5.2905 14.1031 5.36262 14.1488 5.40693L14.1602 5.41807L15.1482 4.45815C15.194 4.41369 15.2681 4.41369 15.3138 4.45815L16.3185 5.43415L16.3467 5.40693C16.3923 5.36262 16.3923 5.2905 16.3467 5.24603L15.3305 4.25906C15.2848 4.21459 15.2106 4.21459 15.1651 4.25906Z" fill="#EF7C1F"/>
<path d="M13.1726 11.281C13.2184 11.3252 13.2184 11.3973 13.1726 11.4416L12.1567 12.4288C12.1109 12.4733 12.0367 12.4733 11.9912 12.4288L10.975 11.4416C10.9292 11.3973 10.9292 11.3252 10.975 11.281L11.9912 10.2938C12.0367 10.2494 12.1109 10.2494 12.1567 10.2938L13.1726 11.281Z" fill="#EF7C1F"/>
<path d="M11.9912 10.2938L10.975 11.281C10.9292 11.3252 10.9292 11.3973 10.975 11.4416L10.9863 11.4527L11.9744 10.4928C12.02 10.4485 12.0942 10.4485 12.1401 10.4928L13.1447 11.4689L13.1726 11.4416C13.2184 11.3973 13.2184 11.3252 13.1726 11.281L12.1566 10.2938C12.1109 10.2494 12.0367 10.2494 11.9912 10.2938Z" fill="#EF7C1F"/>
<path d="M14.7374 9.76132C14.7829 9.8057 14.7829 9.87761 14.7374 9.922L13.7211 10.9091C13.6755 10.9536 13.6012 10.9536 13.5554 10.9091L12.5394 9.922C12.4937 9.87761 12.4937 9.8057 12.5394 9.76132L13.5554 8.77411C13.6012 8.72975 13.6755 8.72975 13.7211 8.77411L14.7374 9.76132Z" fill="#EF7C1F"/>
<path d="M13.5551 8.77413L12.5391 9.76135C12.4935 9.80571 12.4935 9.87762 12.5391 9.922L12.5506 9.93314L13.5386 8.97331C13.5844 8.9287 13.6585 8.9287 13.7042 8.97331L14.7089 9.94929L14.7371 9.922C14.7827 9.87762 14.7827 9.80571 14.7371 9.76135L13.7209 8.77413C13.6752 8.72975 13.601 8.72975 13.5551 8.77413Z" fill="#EF7C1F"/>
<path d="M16.3013 8.24165C16.347 8.28603 16.347 8.35809 16.3013 8.40248L15.2853 9.38952C15.2395 9.43399 15.1655 9.43399 15.1197 9.38952L14.1036 8.40248C14.0578 8.35809 14.0581 8.28603 14.1036 8.24165L15.1197 7.25452C15.1655 7.21 15.2395 7.21 15.2853 7.25452L16.3013 8.24165Z" fill="#EF7C1F"/>
<path d="M15.1197 7.25453L14.1036 8.24167C14.0581 8.28604 14.0578 8.3581 14.1036 8.40248L14.1149 8.41345L15.1031 7.45363C15.1487 7.40932 15.2229 7.40932 15.2687 7.45363L16.2732 8.4296L16.3013 8.40248C16.347 8.3581 16.347 8.28604 16.3013 8.24167L15.2853 7.25453C15.2394 7.21 15.1655 7.21 15.1197 7.25453Z" fill="#EF7C1F"/>
<path d="M17.8658 6.72194C17.9114 6.76641 17.9114 6.83839 17.8658 6.88277L16.8495 7.86988C16.8039 7.91428 16.7298 7.91428 16.6841 7.86988L15.6679 6.88277C15.6221 6.83839 15.6221 6.76641 15.6679 6.72194L16.6841 5.7349C16.7298 5.6905 16.8039 5.6905 16.8495 5.7349L17.8658 6.72194Z" fill="#EF7C1F"/>
<path d="M16.6841 5.7349L15.6679 6.72194C15.6221 6.76641 15.6221 6.83837 15.6679 6.88275L15.6794 6.89391L16.6675 5.93399C16.7132 5.88952 16.7872 5.88952 16.833 5.93399L17.8378 6.91013L17.8658 6.88275C17.9114 6.83837 17.9114 6.76641 17.8658 6.72194L16.8495 5.7349C16.8038 5.6905 16.7298 5.6905 16.6841 5.7349Z" fill="#EF7C1F"/>
<path d="M14.6922 12.7568C14.7377 12.8012 14.7377 12.8731 14.6922 12.9176L13.6759 13.9046C13.6302 13.949 13.5562 13.949 13.5104 13.9046L12.4943 12.9176C12.4485 12.8731 12.4485 12.8012 12.4943 12.7568L13.5104 11.7697C13.5562 11.7253 13.6302 11.7253 13.6759 11.7697L14.6922 12.7568Z" fill="#EF7C1F"/>
<path d="M13.5104 11.7697L12.4943 12.7568C12.4485 12.8012 12.4485 12.8731 12.4943 12.9175L12.5056 12.9287L13.4937 11.9687C13.5394 11.9244 13.6136 11.9244 13.6594 11.9687L14.6639 12.9448L14.6922 12.9175C14.7377 12.8731 14.7377 12.8012 14.6922 12.7568L13.6759 11.7697C13.6302 11.7252 13.5563 11.7252 13.5104 11.7697Z" fill="#EF7C1F"/>
<path d="M16.2565 11.2371C16.3023 11.2815 16.3023 11.3535 16.2565 11.398L15.2403 12.3849C15.1946 12.4295 15.1205 12.4295 15.0748 12.3849L14.0586 11.398C14.013 11.3535 14.013 11.2815 14.0586 11.2371L15.0748 10.25C15.1205 10.2057 15.1946 10.2057 15.2403 10.25L16.2565 11.2371Z" fill="#EF7C1F"/>
<path d="M15.0749 10.25L14.0586 11.2371C14.013 11.2815 14.013 11.3535 14.0586 11.398L14.07 11.4089L15.0582 10.4492C15.1039 10.4047 15.178 10.4047 15.2236 10.4492L16.2283 11.4252L16.2566 11.398C16.3023 11.3535 16.3023 11.2815 16.2566 11.2371L15.2403 10.25C15.1946 10.2057 15.1206 10.2057 15.0749 10.25Z" fill="#EF7C1F"/>
<path d="M17.8209 9.71733C17.8667 9.7618 17.8667 9.8338 17.8209 9.87825L16.8047 10.8655C16.7592 10.9098 16.6849 10.9098 16.6391 10.8655L15.623 9.87825C15.5772 9.8338 15.5772 9.7618 15.623 9.71733L16.6391 8.73036C16.6849 8.68591 16.7592 8.68591 16.8047 8.73036L17.8209 9.71733Z" fill="#EF7C1F"/>
<path d="M16.6391 8.73036L15.6229 9.71733C15.5772 9.7618 15.5772 9.83378 15.6229 9.87823L15.6345 9.88944L16.6226 8.92945C16.6683 8.88508 16.7422 8.88508 16.788 8.92945L17.7928 9.90552L17.8208 9.87823C17.8666 9.83378 17.8666 9.7618 17.8208 9.71733L16.8047 8.73036C16.7592 8.68591 16.6849 8.68591 16.6391 8.73036Z" fill="#EF7C1F"/>
<path d="M19.3851 8.19801C19.4307 8.2423 19.4307 8.31428 19.3851 8.35868L18.3689 9.34579C18.3232 9.39019 18.2491 9.39019 18.2035 9.34579L17.1872 8.35868C17.1417 8.31437 17.1417 8.2423 17.1872 8.19801L18.2035 7.21071C18.2491 7.1665 18.3232 7.1665 18.3689 7.21071L19.3851 8.19801Z" fill="#EF7C1F"/>
<path d="M18.2035 7.21071L17.1872 8.19801C17.1417 8.2423 17.1417 8.31437 17.1872 8.35867L17.1986 8.36972L18.1868 7.40997C18.2325 7.36543 18.3065 7.36543 18.3523 7.40997L19.3569 8.38596L19.3851 8.35867C19.4307 8.31428 19.4307 8.2423 19.3851 8.19801L18.3689 7.21071C18.3232 7.1665 18.2491 7.1665 18.2035 7.21071Z" fill="#EF7C1F"/>
<path d="M18.7621 11.9729C18.6955 11.8958 18.2418 11.4083 18.2355 11.6367C18.2196 12.0902 19.8122 13.2778 20.2596 13.1483C20.4817 13.0834 19.8852 12.7842 19.7901 12.7411C19.7901 12.7411 19.9391 12.6978 20.2184 12.5282C20.4944 12.3585 20.5768 12.2258 20.2691 12.2227C19.9613 12.2197 19.587 12.4048 19.587 12.4048C19.587 12.4048 19.7742 12.2752 20.0248 12.0007C20.2786 11.723 20.1897 11.5934 19.8757 11.7446C19.8122 11.7755 19.7297 11.8248 19.6441 11.8896C19.6854 11.7939 19.7171 11.7045 19.7298 11.6336C19.7996 11.3003 19.6473 11.251 19.4378 11.5595C19.2285 11.868 19.1459 12.0778 19.1459 12.0778C19.1459 12.0778 19.2348 11.6767 19.1523 11.3898C19.0698 11.0998 18.9588 11.2139 18.8636 11.5163C18.7652 11.8186 18.7621 11.9729 18.7621 11.9729Z" fill="#83AB30"/>
<path d="M17.4803 12.559C17.0964 13.1607 17.4168 14.0399 17.5977 14.3546C17.6452 14.4348 17.7277 14.4502 17.7214 14.4471C18.0831 14.5366 19.038 14.6106 19.5361 14.0954C20.7418 12.8428 18.413 11.1059 17.4803 12.559Z" fill="#E80600"/>
<path d="M17.5438 12.6084C17.1852 13.173 17.4866 13.9967 17.6548 14.2929C17.6991 14.3669 17.7752 14.3791 17.7689 14.3791C18.1084 14.4625 19.0031 14.5335 19.4696 14.0491C20.599 12.8768 18.4162 11.2479 17.5438 12.6084Z" fill="#FBECEC"/>
<path d="M18.1275 12.6484C17.7532 13.1421 17.8039 13.6573 18.0862 13.8702C18.3718 14.08 18.8858 13.9874 19.2792 13.5092C19.59 13.1297 19.0222 13.0927 18.8064 12.9323C18.5971 12.775 18.4258 12.2597 18.1275 12.6484Z" fill="#FBC5C5"/>
<mask id="mask1_1834_2932" style="mask-type:luminance" maskUnits="userSpaceOnUse" x="0" y="0" width="35" height="34">
<path d="M0 0H35V34H0V0Z" fill="white"/>
</mask>
<g mask="url(#mask1_1834_2932)">
<g opacity="0.999995">
<path d="M8.99886 13.8369C8.99886 14.3412 8.57789 14.7502 8.05863 14.7502C7.53928 14.7502 7.11841 14.3412 7.11841 13.8369C7.11841 13.3325 7.53928 12.9236 8.05863 12.9236C8.57789 12.9236 8.99886 13.3325 8.99886 13.8369Z" fill="#B5BABB"/>
<path d="M8.72023 13.7015C8.72023 14.0566 8.42399 14.3443 8.05862 14.3443C7.69316 14.3443 7.39697 14.0566 7.39697 13.7015C7.39697 13.3465 7.69316 13.0588 8.05862 13.0588C8.42399 13.0588 8.72023 13.3465 8.72023 13.7015Z" fill="#B5BABB"/>
<path d="M7.5933 14.0394C7.5933 14.1107 7.53402 14.1684 7.4605 14.1684C7.3874 14.1684 7.32788 14.1107 7.32788 14.0394C7.32788 13.9681 7.3874 13.9105 7.4605 13.9105C7.53402 13.9105 7.5933 13.9681 7.5933 14.0394Z" fill="#B5BABB"/>
<path d="M7.53328 13.4447C7.53328 13.4733 7.50956 13.4964 7.47999 13.4964C7.45079 13.4964 7.427 13.4733 7.427 13.4447C7.427 13.4161 7.45079 13.3929 7.47999 13.3929C7.50956 13.3929 7.53328 13.4161 7.53328 13.4447Z" fill="#B5BABB"/>
<path d="M8.66926 14.1994C8.66926 14.2279 8.64555 14.2511 8.61622 14.2511C8.58674 14.2511 8.56299 14.2279 8.56299 14.1994C8.56299 14.1708 8.58674 14.1477 8.61622 14.1477C8.64555 14.1477 8.66926 14.1708 8.66926 14.1994Z" fill="#B5BABB"/>
<path d="M8.05862 13.8369C8.05862 13.8369 7.91058 13.8019 7.90405 13.6147C7.90405 13.6147 8.08607 13.653 8.05862 13.8369Z" fill="#B5BABB"/>
<path d="M8.05861 13.8369C8.05861 13.8369 7.91668 13.8907 7.80078 13.7412C7.80078 13.7412 7.9723 13.671 8.05861 13.8369Z" fill="#B5BABB"/>
<path d="M8.05866 13.8369C8.05866 13.8369 7.97422 13.9601 7.79102 13.9021C7.79102 13.9021 7.89 13.7492 8.05866 13.8369Z" fill="#B5BABB"/>
<path d="M8.05855 13.8369C8.05855 13.8369 8.06209 13.985 7.87776 14.0394C7.87776 14.0394 7.86857 13.859 8.05855 13.8369Z" fill="#B5BABB"/>
<path d="M8.05864 13.8369C8.05864 13.8369 8.14893 13.9561 8.03022 14.1035C8.03022 14.1035 7.91629 13.9609 8.05864 13.8369Z" fill="#B5BABB"/>
<path d="M8.05866 13.8369C8.05866 13.8369 8.20287 13.8843 8.19277 14.0711C8.19277 14.0711 8.015 14.0178 8.05866 13.8369Z" fill="#B5BABB"/>
<path d="M8.05859 13.8369C8.05859 13.8369 8.20466 13.7952 8.30691 13.954C8.30691 13.954 8.1296 14.0093 8.05859 13.8369Z" fill="#B5BABB"/>
<path d="M8.05859 13.8369C8.05859 13.8369 8.15386 13.7215 8.33112 13.7945C8.33112 13.7945 8.21848 13.9387 8.05859 13.8369Z" fill="#B5BABB"/>
<path d="M8.05859 13.8369C8.05859 13.8369 8.06813 13.6893 8.25671 13.6503C8.25671 13.6503 8.24973 13.8312 8.05859 13.8369Z" fill="#B5BABB"/>
<path d="M8.05861 13.8369C8.05861 13.8369 7.9793 13.7106 8.11086 13.5736C8.11086 13.5736 8.21179 13.7256 8.05861 13.8369Z" fill="#B5BABB"/>
<path d="M8.06152 13.8422C8.17095 13.8126 8.29596 13.8365 8.37273 13.9206C8.37858 13.9271 8.38818 13.9175 8.38235 13.9112C8.3026 13.8235 8.17219 13.7983 8.05798 13.8292C8.0493 13.8315 8.05284 13.8444 8.06152 13.8422Z" fill="#B5BABB"/>
<path d="M19.0131 7.65962C19.0131 8.1642 18.5924 8.57298 18.0731 8.57298C17.5536 8.57298 17.1328 8.1642 17.1328 7.65962C17.1328 7.1552 17.5536 6.7464 18.0731 6.7464C18.5924 6.7464 19.0131 7.1552 19.0131 7.65962Z" fill="#B5BABB"/>
<path d="M18.7346 7.52433C18.7346 7.87946 18.4384 8.16708 18.073 8.16708C17.7073 8.16708 17.4111 7.87946 17.4111 7.52433C17.4111 7.16937 17.7073 6.88159 18.073 6.88159C18.4384 6.88159 18.7346 7.16937 18.7346 7.52433Z" fill="#B5BABB"/>
<path d="M17.6077 7.86226C17.6077 7.93339 17.5484 7.99115 17.4748 7.99115C17.4015 7.99115 17.342 7.93339 17.342 7.86226C17.342 7.79096 17.4015 7.73322 17.4748 7.73322C17.5484 7.73322 17.6077 7.79096 17.6077 7.86226Z" fill="#B5BABB"/>
<path d="M17.5477 7.26741C17.5477 7.29601 17.524 7.31914 17.4945 7.31914C17.465 7.31914 17.4412 7.29601 17.4412 7.26741C17.4412 7.23889 17.465 7.21576 17.4945 7.21576C17.524 7.21576 17.5477 7.23889 17.5477 7.26741Z" fill="#B5BABB"/>
<path d="M18.6836 8.02218C18.6836 8.05077 18.66 8.07397 18.6304 8.07397C18.601 8.07397 18.5774 8.05077 18.5774 8.02218C18.5774 7.99365 18.601 7.97052 18.6304 7.97052C18.66 7.97052 18.6836 7.99365 18.6836 8.02218Z" fill="#B5BABB"/>
<path d="M18.073 7.65961C18.073 7.65961 17.925 7.62473 17.9185 7.43762C17.9185 7.43762 18.1002 7.47566 18.073 7.65961Z" fill="#B5BABB"/>
<path d="M18.0729 7.65959C18.0729 7.65959 17.931 7.7135 17.8152 7.56381C17.8152 7.56381 17.9866 7.49381 18.0729 7.65959Z" fill="#B5BABB"/>
<path d="M18.0731 7.65961C18.0731 7.65961 17.9886 7.78293 17.8054 7.72486C17.8054 7.72486 17.9044 7.57184 18.0731 7.65961Z" fill="#B5BABB"/>
<path d="M18.073 7.65961C18.073 7.65961 18.0765 7.8076 17.8922 7.86226C17.8922 7.86226 17.883 7.68164 18.073 7.65961Z" fill="#B5BABB"/>
<path d="M18.073 7.65961C18.073 7.65961 18.163 7.77893 18.0444 7.92629C18.0444 7.92629 17.9303 7.78362 18.073 7.65961Z" fill="#B5BABB"/>
<path d="M18.0731 7.65961C18.0731 7.65961 18.2173 7.7071 18.2072 7.89396C18.2072 7.89396 18.0294 7.84052 18.0731 7.65961Z" fill="#B5BABB"/>
<path d="M18.073 7.65964C18.073 7.65964 18.2191 7.61805 18.3212 7.77678C18.3212 7.77678 18.1441 7.83221 18.073 7.65964Z" fill="#B5BABB"/>
<path d="M18.073 7.65961C18.073 7.65961 18.168 7.54426 18.3455 7.61733C18.3455 7.61733 18.233 7.76144 18.073 7.65961Z" fill="#B5BABB"/>
<path d="M18.073 7.65966C18.073 7.65966 18.0827 7.51213 18.2712 7.47308C18.2712 7.47308 18.2641 7.65385 18.073 7.65966Z" fill="#B5BABB"/>
<path d="M18.073 7.65959C18.073 7.65959 17.9937 7.53335 18.1253 7.39648C18.1253 7.39648 18.226 7.54824 18.073 7.65959Z" fill="#B5BABB"/>
<path d="M18.0757 7.66504C18.185 7.63527 18.3103 7.65924 18.3867 7.74336C18.3926 7.75002 18.4024 7.74042 18.3965 7.73392C18.3166 7.64632 18.1862 7.62128 18.072 7.65206C18.0635 7.65445 18.067 7.66727 18.0757 7.66504Z" fill="#B5BABB"/>
<path d="M20.9115 10.1731C20.9115 10.6775 20.4907 11.0865 19.9712 11.0865C19.4521 11.0865 19.031 10.6775 19.031 10.1731C19.031 9.66873 19.4521 9.25995 19.9712 9.25995C20.4907 9.25995 20.9115 9.66873 20.9115 10.1731Z" fill="#B5BABB"/>
<path d="M20.6332 10.0379C20.6332 10.3929 20.3368 10.6807 19.9714 10.6807C19.606 10.6807 19.3098 10.3929 19.3098 10.0379C19.3098 9.68275 19.606 9.3952 19.9714 9.3952C20.3368 9.3952 20.6332 9.68275 20.6332 10.0379Z" fill="#B5BABB"/>
<path d="M19.5059 10.3756C19.5059 10.4469 19.4466 10.5046 19.3732 10.5046C19.3 10.5046 19.2405 10.4469 19.2405 10.3756C19.2405 10.3044 19.3 10.2468 19.3732 10.2468C19.4466 10.2468 19.5059 10.3044 19.5059 10.3756Z" fill="#B5BABB"/>
<path d="M19.4459 9.78091C19.4459 9.80944 19.4222 9.83264 19.3929 9.83264C19.3633 9.83264 19.3396 9.80944 19.3396 9.78091C19.3396 9.75231 19.3633 9.72919 19.3929 9.72919C19.4222 9.72919 19.4459 9.75231 19.4459 9.78091Z" fill="#B5BABB"/>
<path d="M20.5821 10.5357C20.5821 10.5642 20.5582 10.5873 20.5289 10.5873C20.4995 10.5873 20.4756 10.5642 20.4756 10.5357C20.4756 10.5072 20.4995 10.4841 20.5289 10.4841C20.5582 10.4841 20.5821 10.5072 20.5821 10.5357Z" fill="#B5BABB"/>
<path d="M19.9712 10.1731C19.9712 10.1731 19.8233 10.1383 19.8167 9.95093C19.8167 9.95093 19.9987 9.9892 19.9712 10.1731Z" fill="#B5BABB"/>
<path d="M19.9713 10.1732C19.9713 10.1732 19.8297 10.2271 19.7136 10.0773C19.7136 10.0773 19.8851 10.0074 19.9713 10.1732Z" fill="#B5BABB"/>
<path d="M19.9712 10.1732C19.9712 10.1732 19.8867 10.2963 19.7036 10.2383C19.7036 10.2383 19.8026 10.0854 19.9712 10.1732Z" fill="#B5BABB"/>
<path d="M19.9712 10.1732C19.9712 10.1732 19.9747 10.3212 19.7904 10.3757C19.7904 10.3757 19.7812 10.1951 19.9712 10.1732Z" fill="#B5BABB"/>
<path d="M19.9712 10.1732C19.9712 10.1732 20.0615 10.2924 19.9429 10.4398C19.9429 10.4398 19.8289 10.2969 19.9712 10.1732Z" fill="#B5BABB"/>
<path d="M19.9712 10.1732C19.9712 10.1732 20.1155 10.2205 20.1056 10.4074C20.1056 10.4074 19.9276 10.3541 19.9712 10.1732Z" fill="#B5BABB"/>
<path d="M19.9712 10.1732C19.9712 10.1732 20.1173 10.1315 20.2196 10.2902C20.2196 10.2902 20.0423 10.3456 19.9712 10.1732Z" fill="#B5BABB"/>
<path d="M19.9712 10.1731C19.9712 10.1731 20.0664 10.0576 20.2436 10.1308C20.2436 10.1308 20.1312 10.275 19.9712 10.1731Z" fill="#B5BABB"/>
<path d="M19.9712 10.1732C19.9712 10.1732 19.9811 10.0256 20.1694 9.98651C20.1694 9.98651 20.1624 10.1674 19.9712 10.1732Z" fill="#B5BABB"/>
<path d="M19.9712 10.1732C19.9712 10.1732 19.8919 10.0469 20.0235 9.90991C20.0235 9.90991 20.1246 10.062 19.9712 10.1732Z" fill="#B5BABB"/>
<path d="M19.9741 10.1784C20.0836 10.1489 20.2086 10.1728 20.2854 10.2569C20.2912 10.2633 20.3011 10.2538 20.2951 10.2475C20.2152 10.1598 20.0847 10.1346 19.9705 10.1656C19.9618 10.1678 19.9656 10.1807 19.9741 10.1784Z" fill="#B5BABB"/>
<path d="M11.552 16.3801C11.552 16.706 11.2802 16.9702 10.9446 16.9702C10.6092 16.9702 10.3372 16.706 10.3372 16.3801C10.3372 16.0541 10.6092 15.79 10.9446 15.79C11.2802 15.79 11.552 16.0541 11.552 16.3801Z" fill="#B5BABB"/>
<path d="M11.3721 16.2926C11.3721 16.522 11.1808 16.708 10.9446 16.708C10.7087 16.708 10.5171 16.522 10.5171 16.2926C10.5171 16.0632 10.7087 15.8774 10.9446 15.8774C11.1808 15.8774 11.3721 16.0632 11.3721 16.2926Z" fill="#B5BABB"/>
<path d="M10.6442 16.511C10.6442 16.5569 10.6059 16.5943 10.5585 16.5943C10.5111 16.5943 10.4727 16.5569 10.4727 16.511C10.4727 16.4649 10.5111 16.4275 10.5585 16.4275C10.6059 16.4275 10.6442 16.4649 10.6442 16.511Z" fill="#B5BABB"/>
<path d="M10.6053 16.1266C10.6053 16.1451 10.5901 16.16 10.5711 16.16C10.552 16.16 10.5366 16.1451 10.5366 16.1266C10.5366 16.108 10.552 16.0932 10.5711 16.0932C10.5901 16.0932 10.6053 16.108 10.6053 16.1266Z" fill="#B5BABB"/>
<path d="M11.3394 16.6143C11.3394 16.6327 11.3239 16.6477 11.3049 16.6477C11.2862 16.6477 11.2708 16.6327 11.2708 16.6143C11.2708 16.5959 11.2862 16.5809 11.3049 16.5809C11.3239 16.5809 11.3394 16.5959 11.3394 16.6143Z" fill="#B5BABB"/>
<path d="M10.9446 16.3801C10.9446 16.3801 10.8491 16.3576 10.845 16.2366C10.845 16.2366 10.9622 16.2613 10.9446 16.3801Z" fill="#B5BABB"/>
<path d="M10.9446 16.3801C10.9446 16.3801 10.853 16.4149 10.7781 16.3183C10.7781 16.3183 10.8887 16.273 10.9446 16.3801Z" fill="#B5BABB"/>
<path d="M10.9448 16.38C10.9448 16.38 10.8903 16.4596 10.772 16.4221C10.772 16.4221 10.836 16.3234 10.9448 16.38Z" fill="#B5BABB"/>
<path d="M10.9447 16.3801C10.9447 16.3801 10.9471 16.4755 10.8279 16.511C10.8279 16.511 10.8221 16.3943 10.9447 16.3801Z" fill="#B5BABB"/>
<path d="M10.9447 16.3801C10.9447 16.3801 11.0031 16.457 10.9264 16.5523C10.9264 16.5523 10.8527 16.4601 10.9447 16.3801Z" fill="#B5BABB"/>
<path d="M10.9446 16.3801C10.9446 16.3801 11.038 16.4106 11.0315 16.5314C11.0315 16.5314 10.9165 16.4969 10.9446 16.3801Z" fill="#B5BABB"/>
<path d="M10.9446 16.3801C10.9446 16.3801 11.039 16.3532 11.105 16.4558C11.105 16.4558 10.9905 16.4915 10.9446 16.3801Z" fill="#B5BABB"/>
<path d="M10.9446 16.38C10.9446 16.38 11.006 16.3055 11.1206 16.3528C11.1206 16.3528 11.048 16.4457 10.9446 16.38Z" fill="#B5BABB"/>
<path d="M10.9448 16.3801C10.9448 16.3801 10.9511 16.2847 11.0729 16.2595C11.0729 16.2595 11.0684 16.3764 10.9448 16.3801Z" fill="#B5BABB"/>
<path d="M10.9447 16.38C10.9447 16.38 10.8936 16.2985 10.9784 16.21C10.9784 16.21 11.0437 16.3083 10.9447 16.38Z" fill="#B5BABB"/>
<path d="M10.9465 16.3835C11.0173 16.3643 11.098 16.3798 11.1474 16.4341C11.1515 16.4383 11.1575 16.4321 11.1538 16.4281C11.1023 16.3714 11.018 16.3552 10.9442 16.3751C10.9385 16.3766 10.9409 16.385 10.9465 16.3835Z" fill="#B5BABB"/>
<path d="M12.1295 12.2616C12.1295 12.6066 11.8413 12.8865 11.486 12.8865C11.1308 12.8865 10.8428 12.6066 10.8428 12.2616C10.8428 11.9166 11.1308 11.6366 11.486 11.6366C11.8413 11.6366 12.1295 11.9166 12.1295 12.2616Z" fill="#B5BABB"/>
<path d="M11.9388 12.1689C11.9388 12.4118 11.7359 12.6088 11.4859 12.6088C11.236 12.6088 11.0332 12.4118 11.0332 12.1689C11.0332 11.9261 11.236 11.7292 11.4859 11.7292C11.7359 11.7292 11.9388 11.9261 11.9388 12.1689Z" fill="#B5BABB"/>
<path d="M11.1678 12.4002C11.1678 12.449 11.127 12.4884 11.077 12.4884C11.0268 12.4884 10.9861 12.449 10.9861 12.4002C10.9861 12.3513 11.0268 12.3119 11.077 12.3119C11.127 12.3119 11.1678 12.3513 11.1678 12.4002Z" fill="#B5BABB"/>
<path d="M11.1267 11.9931C11.1267 12.0127 11.1104 12.0285 11.0901 12.0285C11.0701 12.0285 11.054 12.0127 11.054 11.9931C11.054 11.9736 11.0701 11.9579 11.0901 11.9579C11.1104 11.9579 11.1267 11.9736 11.1267 11.9931Z" fill="#B5BABB"/>
<path d="M11.9039 12.5097C11.9039 12.5291 11.8877 12.5449 11.8675 12.5449C11.8474 12.5449 11.8311 12.5291 11.8311 12.5097C11.8311 12.4901 11.8474 12.4742 11.8675 12.4742C11.8877 12.4742 11.9039 12.4901 11.9039 12.5097Z" fill="#B5BABB"/>
<path d="M11.4859 12.2615C11.4859 12.2615 11.3846 12.2376 11.3804 12.1097C11.3804 12.1097 11.5047 12.1357 11.4859 12.2615Z" fill="#B5BABB"/>
<path d="M11.4859 12.2616C11.4859 12.2616 11.3888 12.2985 11.3096 12.1961C11.3096 12.1961 11.4271 12.1482 11.4859 12.2616Z" fill="#B5BABB"/>
<path d="M11.4859 12.2615C11.4859 12.2615 11.4282 12.3458 11.303 12.3062C11.303 12.3062 11.3707 12.2015 11.4859 12.2615Z" fill="#B5BABB"/>
<path d="M11.4859 12.2615C11.4859 12.2615 11.4885 12.3627 11.3624 12.4002C11.3624 12.4002 11.3561 12.2766 11.4859 12.2615Z" fill="#B5BABB"/>
<path d="M11.486 12.2615C11.486 12.2615 11.5477 12.3432 11.4667 12.444C11.4667 12.444 11.3884 12.3463 11.486 12.2615Z" fill="#B5BABB"/>
<path d="M11.4859 12.2615C11.4859 12.2615 11.5849 12.2939 11.5779 12.4217C11.5779 12.4217 11.4562 12.3853 11.4859 12.2615Z" fill="#B5BABB"/>
<path d="M11.4861 12.2615C11.4861 12.2615 11.5862 12.2331 11.6562 12.3416C11.6562 12.3416 11.5349 12.3795 11.4861 12.2615Z" fill="#B5BABB"/>
<path d="M11.4858 12.2616C11.4858 12.2616 11.5511 12.1826 11.6723 12.2326C11.6723 12.2326 11.5954 12.3313 11.4858 12.2616Z" fill="#B5BABB"/>
<path d="M11.4861 12.2616C11.4861 12.2616 11.4929 12.1605 11.6219 12.1339C11.6219 12.1339 11.617 12.2575 11.4861 12.2616Z" fill="#B5BABB"/>
<path d="M11.4861 12.2615C11.4861 12.2615 11.432 12.1753 11.5219 12.0815C11.5219 12.0815 11.591 12.1854 11.4861 12.2615Z" fill="#B5BABB"/>
<path d="M11.4879 12.2651C11.5629 12.245 11.6486 12.2613 11.7009 12.3188C11.7051 12.3233 11.7117 12.3167 11.7076 12.3124C11.6531 12.2524 11.5637 12.2352 11.4856 12.2564C11.4797 12.2578 11.482 12.2666 11.4879 12.2651Z" fill="#B5BABB"/>
<path d="M7.4047 7.58393C7.4047 8.1039 6.97061 8.52552 6.43544 8.52552C5.89997 8.52552 5.46606 8.1039 5.46606 7.58393C5.46606 7.06373 5.89997 6.64227 6.43544 6.64227C6.97061 6.64227 7.4047 7.06373 7.4047 7.58393Z" fill="#B5BABB"/>
<path d="M7.11741 7.44429C7.11741 7.81041 6.8122 8.107 6.4354 8.107C6.05846 8.107 5.75317 7.81041 5.75317 7.44429C5.75317 7.07819 6.05846 6.78168 6.4354 6.78168C6.8122 6.78168 7.11741 7.07819 7.11741 7.44429Z" fill="#B5BABB"/>
<path d="M5.9558 7.79281C5.9558 7.86612 5.89435 7.92566 5.81882 7.92566C5.74312 7.92566 5.68188 7.86612 5.68188 7.79281C5.68188 7.71921 5.74312 7.65961 5.81882 7.65961C5.89435 7.65961 5.9558 7.71921 5.9558 7.79281Z" fill="#B5BABB"/>
<path d="M5.89399 7.17956C5.89399 7.20878 5.86962 7.23275 5.8391 7.23275C5.80853 7.23275 5.78418 7.20878 5.78418 7.17956C5.78418 7.15009 5.80853 7.12622 5.8391 7.12622C5.86962 7.12622 5.89399 7.15009 5.89399 7.17956Z" fill="#B5BABB"/>
<path d="M7.06509 7.95761C7.06509 7.98707 7.04071 8.01089 7.0102 8.01089C6.97992 8.01089 6.95557 7.98707 6.95557 7.95761C6.95557 7.92832 6.97992 7.90436 7.0102 7.90436C7.04071 7.90436 7.06509 7.92832 7.06509 7.95761Z" fill="#B5BABB"/>
<path d="M6.43541 7.58392C6.43541 7.58392 6.28269 7.54783 6.27612 7.35492C6.27612 7.35492 6.4633 7.39418 6.43541 7.58392Z" fill="#B5BABB"/>
<path d="M6.43546 7.58391C6.43546 7.58391 6.28902 7.63944 6.16968 7.48512C6.16968 7.48512 6.34659 7.41288 6.43546 7.58391Z" fill="#B5BABB"/>
<path d="M6.43549 7.58392C6.43549 7.58392 6.34844 7.71073 6.15942 7.65103C6.15942 7.65103 6.26162 7.49346 6.43549 7.58392Z" fill="#B5BABB"/>
<path d="M6.4353 7.58392C6.4353 7.58392 6.43884 7.73641 6.24885 7.79285C6.24885 7.79285 6.23945 7.6065 6.4353 7.58392Z" fill="#B5BABB"/>
<path d="M6.43531 7.58392C6.43531 7.58392 6.52811 7.70687 6.40594 7.85865C6.40594 7.85865 6.28818 7.71149 6.43531 7.58392Z" fill="#B5BABB"/>
<path d="M6.43535 7.58392C6.43535 7.58392 6.58399 7.63257 6.57364 7.82539C6.57364 7.82539 6.39029 7.77041 6.43535 7.58392Z" fill="#B5BABB"/>
<path d="M6.4353 7.58395C6.4353 7.58395 6.5858 7.54096 6.69135 7.70473C6.69135 7.70473 6.50844 7.76171 6.4353 7.58395Z" fill="#B5BABB"/>
<path d="M6.4353 7.58391C6.4353 7.58391 6.53332 7.46486 6.71621 7.54017C6.71621 7.54017 6.60017 7.68883 6.4353 7.58391Z" fill="#B5BABB"/>
<path d="M6.43555 7.58395C6.43555 7.58395 6.44535 7.43171 6.64004 7.39136C6.64004 7.39136 6.63253 7.57807 6.43555 7.58395Z" fill="#B5BABB"/>
<path d="M6.43538 7.58391C6.43538 7.58391 6.35346 7.4537 6.48928 7.31244C6.48928 7.31244 6.59317 7.46902 6.43538 7.58391Z" fill="#B5BABB"/>
<path d="M6.43825 7.58922C6.55123 7.55868 6.67996 7.5835 6.75911 7.67001C6.76537 7.67675 6.77519 7.66687 6.7691 7.66045C6.68685 7.57006 6.55221 7.54421 6.43445 7.57599C6.42579 7.57831 6.4292 7.59163 6.43825 7.58922Z" fill="#B5BABB"/>
</g>
<g opacity="0.999995">
<path d="M9.14632 13.7008C9.14632 14.2052 8.72535 14.6141 8.20609 14.6141C7.68685 14.6141 7.26587 14.2052 7.26587 13.7008C7.26587 13.1964 7.68685 12.7874 8.20609 12.7874C8.72535 12.7874 9.14632 13.1964 9.14632 13.7008Z" fill="#0F1D5B"/>
<path d="M8.86794 13.5655C8.86794 13.9205 8.5717 14.2083 8.20606 14.2083C7.84068 14.2083 7.54443 13.9205 7.54443 13.5655C7.54443 13.2106 7.84068 12.9228 8.20606 12.9228C8.5717 12.9228 8.86794 13.2106 8.86794 13.5655Z" fill="#162C75"/>
<path d="M7.74089 13.9035C7.74089 13.9746 7.68154 14.0323 7.60817 14.0323C7.53492 14.0323 7.47559 13.9746 7.47559 13.9035C7.47559 13.832 7.53492 13.7744 7.60817 13.7744C7.68154 13.7744 7.74089 13.832 7.74089 13.9035Z" fill="#304D9B"/>
<path d="M7.68096 13.3086C7.68096 13.3372 7.65695 13.3603 7.62775 13.3603C7.59818 13.3603 7.57446 13.3372 7.57446 13.3086C7.57446 13.2801 7.59818 13.2568 7.62775 13.2568C7.65695 13.2568 7.68096 13.2801 7.68096 13.3086Z" fill="#304D9B"/>
<path d="M8.81698 14.0636C8.81698 14.092 8.79299 14.115 8.76379 14.115C8.7342 14.115 8.71045 14.092 8.71045 14.0636C8.71045 14.0348 8.7342 14.0118 8.76379 14.0118C8.79299 14.0118 8.81698 14.0348 8.81698 14.0636Z" fill="#304D9B"/>
<path d="M8.20605 13.7008C8.20605 13.7008 8.05828 13.6659 8.05176 13.4788C8.05176 13.4788 8.2335 13.5169 8.20605 13.7008Z" fill="#06123C"/>
<path d="M8.20608 13.7008C8.20608 13.7008 8.06442 13.7547 7.94824 13.6052C7.94824 13.6052 8.12003 13.5351 8.20608 13.7008Z" fill="#06123C"/>
<path d="M8.20604 13.7008C8.20604 13.7008 8.12186 13.8239 7.93848 13.7659C7.93848 13.7659 8.03766 13.613 8.20604 13.7008Z" fill="#06123C"/>
<path d="M8.20607 13.7007C8.20607 13.7007 8.20981 13.8487 8.02546 13.9035C8.02546 13.9035 8.01636 13.7229 8.20607 13.7007Z" fill="#06123C"/>
<path d="M8.20608 13.7007C8.20608 13.7007 8.29637 13.82 8.17773 13.9674C8.17773 13.9674 8.06373 13.8248 8.20608 13.7007Z" fill="#06123C"/>
<path d="M8.20608 13.7007C8.20608 13.7007 8.35055 13.7481 8.34045 13.935C8.34045 13.935 8.16253 13.8817 8.20608 13.7007Z" fill="#06123C"/>
<path d="M8.20605 13.7008C8.20605 13.7008 8.3524 13.6593 8.45448 13.8179C8.45448 13.8179 8.2774 13.8734 8.20605 13.7008Z" fill="#06123C"/>
<path d="M8.20605 13.7007C8.20605 13.7007 8.30132 13.5852 8.47858 13.6585C8.47858 13.6585 8.36594 13.8026 8.20605 13.7007Z" fill="#06123C"/>
<path d="M8.20605 13.7008C8.20605 13.7008 8.21595 13.5533 8.40446 13.5142C8.40446 13.5142 8.39719 13.6951 8.20605 13.7008Z" fill="#06123C"/>
<path d="M8.20617 13.7008C8.20617 13.7008 8.1272 13.5746 8.25848 13.4375C8.25848 13.4375 8.35949 13.5897 8.20617 13.7008Z" fill="#06123C"/>
<path d="M8.20901 13.706C8.31833 13.6764 8.44335 13.7005 8.52 13.7843C8.52593 13.791 8.53568 13.7814 8.52983 13.7751C8.44988 13.6875 8.31948 13.6624 8.20531 13.6932C8.1968 13.6955 8.20034 13.7083 8.20901 13.706Z" fill="black"/>
</g>
<g opacity="0.999995">
<path d="M19.1607 7.52365C19.1607 8.02807 18.7398 8.43694 18.2205 8.43694C17.7013 8.43694 17.2803 8.02807 17.2803 7.52365C17.2803 7.01914 17.7013 6.61029 18.2205 6.61029C18.7398 6.61029 19.1607 7.01914 19.1607 7.52365Z" fill="#0F1D5B"/>
<path d="M18.882 7.38815C18.882 7.74329 18.5858 8.03107 18.2204 8.03107C17.855 8.03107 17.5586 7.74329 17.5586 7.38815C17.5586 7.03326 17.855 6.74548 18.2204 6.74548C18.5858 6.74548 18.882 7.03326 18.882 7.38815Z" fill="#162C75"/>
<path d="M17.7553 7.72624C17.7553 7.79744 17.6959 7.85505 17.6225 7.85505C17.5492 7.85505 17.4897 7.79744 17.4897 7.72624C17.4897 7.65494 17.5492 7.59711 17.6225 7.59711C17.6959 7.59711 17.7553 7.65494 17.7553 7.72624Z" fill="#304D9B"/>
<path d="M17.6951 7.13132C17.6951 7.15984 17.6714 7.18304 17.6419 7.18304C17.6125 7.18304 17.5889 7.15984 17.5889 7.13132C17.5889 7.10279 17.6125 7.07959 17.6419 7.07959C17.6714 7.07959 17.6951 7.10279 17.6951 7.13132Z" fill="#304D9B"/>
<path d="M18.8314 7.8862C18.8314 7.91464 18.8075 7.93778 18.7781 7.93778C18.7486 7.93778 18.7249 7.91464 18.7249 7.8862C18.7249 7.85774 18.7486 7.83447 18.7781 7.83447C18.8075 7.83447 18.8314 7.85774 18.8314 7.8862Z" fill="#304D9B"/>
<path d="M18.2204 7.52364C18.2204 7.52364 18.0725 7.48877 18.0659 7.30157C18.0659 7.30157 18.2476 7.3397 18.2204 7.52364Z" fill="#06123C"/>
<path d="M18.2206 7.52365C18.2206 7.52365 18.0787 7.57754 17.9629 7.42778C17.9629 7.42778 18.1343 7.35788 18.2206 7.52365Z" fill="#06123C"/>
<path d="M18.2205 7.52363C18.2205 7.52363 18.1362 7.64681 17.9529 7.58881C17.9529 7.58881 18.0519 7.43587 18.2205 7.52363Z" fill="#06123C"/>
<path d="M18.2205 7.52362C18.2205 7.52362 18.224 7.67168 18.0396 7.7262C18.0396 7.7262 18.0306 7.54567 18.2205 7.52362Z" fill="#06123C"/>
<path d="M18.2204 7.52362C18.2204 7.52362 18.3107 7.64287 18.192 7.79024C18.192 7.79024 18.0778 7.64749 18.2204 7.52362Z" fill="#06123C"/>
<path d="M18.2205 7.52362C18.2205 7.52362 18.3647 7.57095 18.3549 7.7579C18.3549 7.7579 18.1769 7.70462 18.2205 7.52362Z" fill="#06123C"/>
<path d="M18.2205 7.52366C18.2205 7.52366 18.3666 7.48207 18.4688 7.64064C18.4688 7.64064 18.2916 7.69616 18.2205 7.52366Z" fill="#06123C"/>
<path d="M18.2205 7.52363C18.2205 7.52363 18.3156 7.40812 18.4931 7.48135C18.4931 7.48135 18.3804 7.62538 18.2205 7.52363Z" fill="#06123C"/>
<path d="M18.2205 7.52363C18.2205 7.52363 18.2301 7.37603 18.4187 7.33691C18.4187 7.33691 18.4116 7.51791 18.2205 7.52363Z" fill="#06123C"/>
<path d="M18.2204 7.52363C18.2204 7.52363 18.1412 7.39723 18.2728 7.26038C18.2728 7.26038 18.3736 7.41228 18.2204 7.52363Z" fill="#06123C"/>
<path d="M18.2234 7.52889C18.3329 7.49929 18.4579 7.52328 18.5346 7.60724C18.5404 7.61381 18.5503 7.6043 18.5442 7.59782C18.4643 7.51028 18.3338 7.48516 18.2199 7.51593C18.2111 7.51823 18.2147 7.53121 18.2234 7.52889Z" fill="black"/>
</g>
<g opacity="0.999997">
<path d="M21.0589 10.0371C21.0589 10.5416 20.6382 10.9505 20.1187 10.9505C19.5995 10.9505 19.1787 10.5416 19.1787 10.0371C19.1787 9.53273 19.5995 9.12372 20.1187 9.12372C20.6382 9.12372 21.0589 9.53273 21.0589 10.0371Z" fill="#0F1D5B"/>
<path d="M20.7807 9.90177C20.7807 10.2569 20.4844 10.5447 20.1188 10.5447C19.7535 10.5447 19.4573 10.2569 19.4573 9.90177C19.4573 9.54687 19.7535 9.25909 20.1188 9.25909C20.4844 9.25909 20.7807 9.54687 20.7807 9.90177Z" fill="#162C75"/>
<path d="M19.6538 10.2398C19.6538 10.311 19.5945 10.3686 19.5208 10.3686C19.4476 10.3686 19.3882 10.311 19.3882 10.2398C19.3882 10.1683 19.4476 10.1107 19.5208 10.1107C19.5945 10.1107 19.6538 10.1683 19.6538 10.2398Z" fill="#304D9B"/>
<path d="M19.5937 9.64493C19.5937 9.67353 19.5697 9.69665 19.5404 9.69665C19.5111 9.69665 19.4871 9.67353 19.4871 9.64493C19.4871 9.61631 19.5111 9.5932 19.5404 9.5932C19.5697 9.5932 19.5937 9.61631 19.5937 9.64493Z" fill="#304D9B"/>
<path d="M20.7298 10.3997C20.7298 10.4282 20.7061 10.4513 20.6765 10.4513C20.6472 10.4513 20.6235 10.4282 20.6235 10.3997C20.6235 10.3711 20.6472 10.348 20.6765 10.348C20.7061 10.348 20.7298 10.3711 20.7298 10.3997Z" fill="#304D9B"/>
<path d="M20.1186 10.0371C20.1186 10.0371 19.9709 10.0022 19.9644 9.81506C19.9644 9.81506 20.146 9.85326 20.1186 10.0371Z" fill="#06123C"/>
<path d="M20.1187 10.0372C20.1187 10.0372 19.9771 10.091 19.8611 9.94142C19.8611 9.94142 20.0327 9.87146 20.1187 10.0372Z" fill="#06123C"/>
<path d="M20.1187 10.0371C20.1187 10.0371 20.0346 10.1602 19.8513 10.1022C19.8513 10.1022 19.9503 9.94937 20.1187 10.0371Z" fill="#06123C"/>
<path d="M20.1186 10.0372C20.1186 10.0372 20.1224 10.1851 19.9381 10.2398C19.9381 10.2398 19.9289 10.0593 20.1186 10.0372Z" fill="#06123C"/>
<path d="M20.1187 10.0372C20.1187 10.0372 20.209 10.1563 20.0903 10.3037C20.0903 10.3037 19.9763 10.1611 20.1187 10.0372Z" fill="#06123C"/>
<path d="M20.1187 10.0372C20.1187 10.0372 20.2632 10.0846 20.2531 10.2714C20.2531 10.2714 20.0751 10.2182 20.1187 10.0372Z" fill="#06123C"/>
<path d="M20.1187 10.0371C20.1187 10.0371 20.2651 9.99555 20.3671 10.1542C20.3671 10.1542 20.19 10.2096 20.1187 10.0371Z" fill="#06123C"/>
<path d="M20.1187 10.0371C20.1187 10.0371 20.2139 9.92165 20.3913 9.99479C20.3913 9.99479 20.2789 10.139 20.1187 10.0371Z" fill="#06123C"/>
<path d="M20.1187 10.0372C20.1187 10.0372 20.1285 9.88966 20.3171 9.85052C20.3171 9.85052 20.3101 10.0314 20.1187 10.0372Z" fill="#06123C"/>
<path d="M20.1187 10.0372C20.1187 10.0372 20.0398 9.91094 20.1712 9.77393C20.1712 9.77393 20.2722 9.92599 20.1187 10.0372Z" fill="#06123C"/>
<path d="M20.1219 10.0424C20.2312 10.0127 20.3564 10.0367 20.4329 10.1207C20.4387 10.1274 20.4485 10.1177 20.4427 10.1114C20.3627 10.0238 20.2322 9.99871 20.118 10.0295C20.1097 10.0319 20.1132 10.0446 20.1219 10.0424Z" fill="black"/>
</g>
<g opacity="0.999997">
<path d="M11.7 16.2441C11.7 16.5699 11.4279 16.8341 11.0926 16.8341C10.7569 16.8341 10.4851 16.5699 10.4851 16.2441C10.4851 15.9181 10.7569 15.6539 11.0926 15.6539C11.4279 15.6539 11.7 15.9181 11.7 16.2441Z" fill="#0F1D5B"/>
<path d="M11.5202 16.1565C11.5202 16.3859 11.3288 16.5718 11.0926 16.5718C10.8563 16.5718 10.665 16.3859 10.665 16.1565C10.665 15.9272 10.8563 15.7414 11.0926 15.7414C11.3288 15.7414 11.5202 15.9272 11.5202 16.1565Z" fill="#162C75"/>
<path d="M10.7918 16.375C10.7918 16.421 10.7534 16.4582 10.7059 16.4582C10.6586 16.4582 10.6201 16.421 10.6201 16.375C10.6201 16.3288 10.6586 16.2915 10.7059 16.2915C10.7534 16.2915 10.7918 16.3288 10.7918 16.375Z" fill="#304D9B"/>
<path d="M10.7531 15.9905C10.7531 16.009 10.7378 16.0239 10.7189 16.0239C10.6999 16.0239 10.6843 16.009 10.6843 15.9905C10.6843 15.9721 10.6999 15.9572 10.7189 15.9572C10.7378 15.9572 10.7531 15.9721 10.7531 15.9905Z" fill="#304D9B"/>
<path d="M11.487 16.4783C11.487 16.4967 11.4718 16.5116 11.4527 16.5116C11.4337 16.5116 11.4185 16.4967 11.4185 16.4783C11.4185 16.4599 11.4337 16.4449 11.4527 16.4449C11.4718 16.4449 11.487 16.4599 11.487 16.4783Z" fill="#304D9B"/>
<path d="M11.0926 16.2441C11.0926 16.2441 10.9969 16.2215 10.9927 16.1005C10.9927 16.1005 11.1101 16.1253 11.0926 16.2441Z" fill="#06123C"/>
<path d="M11.0926 16.2441C11.0926 16.2441 11.0009 16.2789 10.9258 16.1821C10.9258 16.1821 11.0368 16.1369 11.0926 16.2441Z" fill="#06123C"/>
<path d="M11.0925 16.2441C11.0925 16.2441 11.0379 16.3236 10.9197 16.2861C10.9197 16.2861 10.9834 16.1873 11.0925 16.2441Z" fill="#06123C"/>
<path d="M11.0927 16.2441C11.0927 16.2441 11.0948 16.3397 10.9759 16.375C10.9759 16.375 10.9698 16.2582 11.0927 16.2441Z" fill="#06123C"/>
<path d="M11.0927 16.2441C11.0927 16.2441 11.1508 16.321 11.0744 16.4163C11.0744 16.4163 11.0005 16.324 11.0927 16.2441Z" fill="#06123C"/>
<path d="M11.0926 16.2441C11.0926 16.2441 11.1859 16.2746 11.1793 16.3953C11.1793 16.3953 11.0644 16.3608 11.0926 16.2441Z" fill="#06123C"/>
<path d="M11.0925 16.2441C11.0925 16.2441 11.1868 16.2172 11.2529 16.3196C11.2529 16.3196 11.1385 16.3554 11.0925 16.2441Z" fill="#06123C"/>
<path d="M11.0925 16.2441C11.0925 16.2441 11.1539 16.1694 11.2684 16.2166C11.2684 16.2166 11.1958 16.3098 11.0925 16.2441Z" fill="#06123C"/>
<path d="M11.0925 16.2441C11.0925 16.2441 11.0986 16.1486 11.2205 16.1234C11.2205 16.1234 11.2159 16.2403 11.0925 16.2441Z" fill="#06123C"/>
<path d="M11.0925 16.2441C11.0925 16.2441 11.0413 16.1624 11.126 16.074C11.126 16.074 11.1915 16.1722 11.0925 16.2441Z" fill="#06123C"/>
<path d="M11.0942 16.2473C11.165 16.2283 11.2457 16.2437 11.2952 16.2981C11.2992 16.3023 11.3056 16.2961 11.3015 16.2921C11.25 16.2354 11.1657 16.2192 11.0921 16.2391C11.0865 16.2406 11.0889 16.249 11.0942 16.2473Z" fill="black"/>
</g>
<path d="M12.277 12.1254C12.277 12.4706 11.9889 12.7505 11.6337 12.7505C11.2785 12.7505 10.9905 12.4706 10.9905 12.1254C10.9905 11.7804 11.2785 11.5007 11.6337 11.5007C11.9889 11.5007 12.277 11.7804 12.277 12.1254Z" fill="#0F1D5B"/>
<path d="M12.0864 12.0328C12.0864 12.2757 11.8838 12.4726 11.6337 12.4726C11.3837 12.4726 11.1809 12.2757 11.1809 12.0328C11.1809 11.7899 11.3837 11.5931 11.6337 11.5931C11.8838 11.5931 12.0864 11.7899 12.0864 12.0328Z" fill="#162C75"/>
<path d="M11.3153 12.2641C11.3153 12.3128 11.2748 12.3524 11.2246 12.3524C11.1743 12.3524 11.1338 12.3128 11.1338 12.2641C11.1338 12.2153 11.1743 12.1758 11.2246 12.1758C11.2748 12.1758 11.3153 12.2153 11.3153 12.2641Z" fill="#304D9B"/>
<path d="M11.2741 11.8571C11.2741 11.8767 11.2579 11.8924 11.2377 11.8924C11.2175 11.8924 11.2014 11.8767 11.2014 11.8571C11.2014 11.8376 11.2175 11.8218 11.2377 11.8218C11.2579 11.8218 11.2741 11.8376 11.2741 11.8571Z" fill="#304D9B"/>
<path d="M12.0514 12.3736C12.0514 12.3931 12.0353 12.409 12.0151 12.409C11.9949 12.409 11.9788 12.3931 11.9788 12.3736C11.9788 12.354 11.9949 12.3381 12.0151 12.3381C12.0353 12.3381 12.0514 12.354 12.0514 12.3736Z" fill="#304D9B"/>
<path d="M11.6338 12.1254C11.6338 12.1254 11.5325 12.1015 11.5281 11.9734C11.5281 11.9734 11.6524 11.9997 11.6338 12.1254Z" fill="#06123C"/>
<path d="M11.6339 12.1254C11.6339 12.1254 11.5368 12.1624 11.4575 12.06C11.4575 12.06 11.5747 12.0122 11.6339 12.1254Z" fill="#06123C"/>
<path d="M11.6339 12.1254C11.6339 12.1254 11.576 12.2097 11.4507 12.1701C11.4507 12.1701 11.5185 12.0654 11.6339 12.1254Z" fill="#06123C"/>
<path d="M11.6338 12.1254C11.6338 12.1254 11.6361 12.2268 11.5101 12.2642C11.5101 12.2642 11.5038 12.1405 11.6338 12.1254Z" fill="#06123C"/>
<path d="M11.6338 12.1254C11.6338 12.1254 11.6955 12.2071 11.6143 12.308C11.6143 12.308 11.5362 12.2103 11.6338 12.1254Z" fill="#06123C"/>
<path d="M11.6337 12.1254C11.6337 12.1254 11.7325 12.1579 11.7254 12.2858C11.7254 12.2858 11.6037 12.2493 11.6337 12.1254Z" fill="#06123C"/>
<path d="M11.6338 12.1254C11.6338 12.1254 11.7337 12.0972 11.8036 12.2056C11.8036 12.2056 11.6823 12.2435 11.6338 12.1254Z" fill="#06123C"/>
<path d="M11.6338 12.1254C11.6338 12.1254 11.6988 12.0465 11.8202 12.0965C11.8202 12.0965 11.743 12.1951 11.6338 12.1254Z" fill="#06123C"/>
<path d="M11.6338 12.1254C11.6338 12.1254 11.6404 12.0246 11.7694 11.9977C11.7694 11.9977 11.7645 12.1214 11.6338 12.1254Z" fill="#06123C"/>
<path d="M11.6337 12.1254C11.6337 12.1254 11.5793 12.0391 11.6694 11.9454C11.6694 11.9454 11.7385 12.0493 11.6337 12.1254Z" fill="#06123C"/>
<path d="M11.6358 12.129C11.7105 12.1089 11.7961 12.1251 11.8484 12.1826C11.8527 12.1872 11.8592 12.1808 11.8552 12.1763C11.8006 12.1165 11.7112 12.0991 11.6331 12.1202C11.6274 12.1219 11.6298 12.1306 11.6358 12.129Z" fill="black"/>
<path d="M7.5523 7.44781C7.5523 7.96778 7.11848 8.38947 6.58301 8.38947C6.04761 8.38947 5.61377 7.96778 5.61377 7.44781C5.61377 6.92768 6.04761 6.50623 6.58301 6.50623C7.11848 6.50623 7.5523 6.92768 7.5523 7.44781Z" fill="#0F1D5B"/>
<path d="M7.26519 7.30833C7.26519 7.67429 6.95981 7.97089 6.5829 7.97089C6.20631 7.97089 5.90088 7.67429 5.90088 7.30833C5.90088 6.94232 6.20631 6.64563 6.5829 6.64563C6.95981 6.64563 7.26519 6.94232 7.26519 7.30833Z" fill="#162C75"/>
<path d="M6.10349 7.65674C6.10349 7.73013 6.04202 7.78973 5.96677 7.78973C5.89099 7.78973 5.82983 7.73013 5.82983 7.65674C5.82983 7.58322 5.89099 7.52368 5.96677 7.52368C6.04202 7.52368 6.10349 7.58322 6.10349 7.65674Z" fill="#304D9B"/>
<path d="M6.04141 7.04347C6.04141 7.0727 6.01705 7.09682 5.98661 7.09682C5.95633 7.09682 5.93188 7.0727 5.93188 7.04347C5.93188 7.01409 5.95633 6.99011 5.98661 6.99011C6.01705 6.99011 6.04141 7.01409 6.04141 7.04347Z" fill="#304D9B"/>
<path d="M7.21268 7.82163C7.21268 7.8511 7.18831 7.87491 7.15779 7.87491C7.12786 7.87491 7.10327 7.8511 7.10327 7.82163C7.10327 7.79218 7.12786 7.76831 7.15779 7.76831C7.18831 7.76831 7.21268 7.79218 7.21268 7.82163Z" fill="#304D9B"/>
<path d="M6.5831 7.44781C6.5831 7.44781 6.43068 7.41186 6.42383 7.21887C6.42383 7.21887 6.61126 7.25822 6.5831 7.44781Z" fill="#06123C"/>
<path d="M6.58292 7.44781C6.58292 7.44781 6.43685 7.50334 6.31714 7.34918C6.31714 7.34918 6.49405 7.27685 6.58292 7.44781Z" fill="#06123C"/>
<path d="M6.58301 7.44779C6.58301 7.44779 6.496 7.57474 6.30713 7.51506C6.30713 7.51506 6.40949 7.35734 6.58301 7.44779Z" fill="#06123C"/>
<path d="M6.58305 7.44781C6.58305 7.44781 6.58678 7.60037 6.3968 7.65674C6.3968 7.65674 6.38741 7.47055 6.58305 7.44781Z" fill="#06123C"/>
<path d="M6.58311 7.44781C6.58311 7.44781 6.67627 7.57075 6.5541 7.72268C6.5541 7.72268 6.43605 7.57555 6.58311 7.44781Z" fill="#06123C"/>
<path d="M6.58304 7.44781C6.58304 7.44781 6.73195 7.49667 6.72169 7.68936C6.72169 7.68936 6.53799 7.63446 6.58304 7.44781Z" fill="#06123C"/>
<path d="M6.58301 7.44783C6.58301 7.44783 6.73378 7.40492 6.83905 7.5686C6.83905 7.5686 6.65616 7.62565 6.58301 7.44783Z" fill="#06123C"/>
<path d="M6.58301 7.4478C6.58301 7.4478 6.68101 7.32882 6.86403 7.40413C6.86403 7.40413 6.74789 7.55272 6.58301 7.4478Z" fill="#06123C"/>
<path d="M6.58301 7.44784C6.58301 7.44784 6.59311 7.29562 6.7875 7.25549C6.7875 7.25549 6.78028 7.44196 6.58301 7.44784Z" fill="#06123C"/>
<path d="M6.58296 7.44781C6.58296 7.44781 6.50133 7.31761 6.63688 7.17651C6.63688 7.17651 6.74112 7.33298 6.58296 7.44781Z" fill="#06123C"/>
<path d="M6.58609 7.45315C6.69887 7.4226 6.82795 7.44752 6.90674 7.53409C6.91304 7.54075 6.92287 7.53094 6.91682 7.52435C6.83451 7.4339 6.69985 7.40815 6.58238 7.44001C6.57371 7.44233 6.57724 7.45554 6.58609 7.45315Z" fill="black"/>
</g>
<mask id="mask2_1834_2932" style="mask-type:luminance" maskUnits="userSpaceOnUse" x="0" y="0" width="35" height="34">
<path d="M0 0H35V34H0V0Z" fill="white"/>
</mask>
<g mask="url(#mask2_1834_2932)">
<path d="M14.0938 17.1494C14.1732 17.4301 14.0145 17.7232 13.7322 17.8127C13.4467 17.9051 13.1389 17.7603 13.031 17.4918L14.0938 17.1494Z" fill="#FFEB9C"/>
<path d="M13.9258 18.3217C13.9036 18.3649 13.8814 18.4235 13.8941 18.4729C13.9194 18.5716 14.0845 18.5191 14.0432 18.4266C14.0242 18.3772 13.9703 18.3432 13.9258 18.3217Z" fill="#F7F9DF"/>
<path d="M14.5381 17.7726C14.5445 17.822 14.5572 17.8837 14.5952 17.9176C14.6714 17.9885 14.7793 17.859 14.6968 17.8003C14.6523 17.7726 14.5889 17.7695 14.5381 17.7726Z" fill="#F7F9DF"/>
<path d="M13.1518 18.2385C13.1486 18.2908 13.1423 18.3495 13.1074 18.3895C13.0375 18.4637 12.9169 18.3432 12.9963 18.2785C13.0375 18.2446 13.101 18.2385 13.1518 18.2385Z" fill="#F7F9DF"/>
<path d="M15.2932 15.1133C14.8205 14.018 13.5515 13.4442 12.3713 13.8237C11.1942 14.2032 10.5279 15.4002 10.8198 16.5539L15.2932 15.1133Z" fill="#FFB338"/>
<path d="M15.1125 15.1687L11.0008 16.4923C10.7406 15.4372 11.3529 14.3451 12.4316 13.9965C13.5103 13.6509 14.6715 14.1723 15.1125 15.1687Z" fill="#FFE273"/>
<path d="M13.5864 15.6593C13.4785 15.3909 13.1739 15.2459 12.8884 15.3385C12.6029 15.428 12.4442 15.7211 12.5235 16.0017L13.5864 15.6593Z" fill="#FFEB9C"/>
<path d="M12.7329 14.817C12.6884 14.7955 12.6345 14.7615 12.6155 14.7122C12.5742 14.6197 12.7391 14.5672 12.7645 14.6659C12.7773 14.7153 12.7551 14.7739 12.7329 14.817Z" fill="#F7F9DF"/>
<path d="M13.561 14.9004C13.5356 14.8572 13.5103 14.8016 13.5166 14.7522C13.5356 14.6504 13.7038 14.6905 13.6688 14.7862C13.653 14.8386 13.6055 14.8757 13.561 14.9004Z" fill="#F7F9DF"/>
<path d="M12.1619 15.3323C12.1303 15.2922 12.0858 15.2489 12.0351 15.2397C11.9304 15.2181 11.9082 15.3847 12.0128 15.3909C12.0668 15.3909 12.1208 15.36 12.1619 15.3323Z" fill="#F7F9DF"/>
<path d="M12.9297 9.60633C12.8599 9.55082 12.7584 9.5601 12.7013 9.6248C12.6442 9.6927 12.6537 9.79142 12.7234 9.84702C12.7901 9.90254 12.8948 9.89326 12.9519 9.82839C13.009 9.76066 12.9995 9.66192 12.9297 9.60633Z" fill="#FFABAB"/>
<path d="M12.9486 12.8734C12.9581 12.8241 13.0057 12.7933 13.0564 12.7994L13.9543 12.9567C14.0051 12.966 14.0399 13.0123 14.0305 13.0616C14.0209 13.111 13.9734 13.145 13.9226 13.1357L13.0247 12.9784C12.9739 12.9691 12.939 12.9228 12.9486 12.8734Z" fill="#FF6600"/>
<path d="M14.4842 15.7425C14.4938 15.6931 14.5413 15.6592 14.592 15.6685L15.4899 15.826C15.5408 15.8352 15.5756 15.8814 15.5661 15.9308C15.5565 15.9801 15.509 16.0141 15.4582 16.0048L14.5603 15.8474C14.5096 15.8382 14.4747 15.7919 14.4842 15.7425Z" fill="#FF6600"/>
<path d="M15.3885 12.6544C15.4393 12.6666 15.4678 12.7192 15.452 12.7654L15.1823 13.6138C15.1665 13.6632 15.1157 13.6879 15.0649 13.6755C15.0173 13.6601 14.9888 13.6078 15.0046 13.5615L15.2743 12.713C15.287 12.6666 15.341 12.639 15.3885 12.6544Z" fill="#FF99CC"/>
<path d="M13.8211 11.6827C13.8624 11.6548 13.9194 11.6672 13.9513 11.7073L14.4652 12.4385C14.4938 12.4817 14.4842 12.5372 14.4398 12.565C14.3985 12.5928 14.3415 12.5835 14.3097 12.5434L13.7958 11.8091C13.7672 11.7691 13.7768 11.7134 13.8211 11.6827Z" fill="#00FFFF"/>
<path d="M15.547 12.2965C15.5502 12.2471 15.5945 12.2102 15.6454 12.2133L16.5559 12.2781C16.6067 12.2811 16.6447 12.3243 16.6415 12.3737C16.6384 12.423 16.594 12.4601 16.5432 12.457L15.6326 12.3953C15.5819 12.3922 15.5407 12.349 15.547 12.2965Z" fill="#181818"/>
<path d="M17.8504 16.6218C17.8218 16.5787 17.8345 16.5231 17.8757 16.4954L18.634 16.0017C18.6784 15.974 18.7356 15.9863 18.764 16.0265C18.7926 16.0696 18.783 16.1251 18.7387 16.153L17.9805 16.6465C17.9392 16.6743 17.8789 16.6619 17.8504 16.6218Z" fill="#181818"/>
<path d="M16.5243 17.6676C16.5751 17.6831 16.6036 17.7325 16.5877 17.7818L16.3181 18.6271C16.3022 18.6765 16.2515 18.7012 16.2007 18.6888C16.1531 18.6735 16.1245 18.621 16.1404 18.5747L16.41 17.7263C16.4228 17.68 16.4767 17.6523 16.5243 17.6676Z" fill="#FF99CC"/>
<path d="M16.6131 15.9246C16.6575 15.8968 16.7146 15.9061 16.7432 15.9493L17.2603 16.6805C17.2889 16.7206 17.2762 16.7793 17.235 16.8069C17.1937 16.8348 17.1334 16.8255 17.1048 16.7824L16.5909 16.0511C16.5623 16.011 16.5719 15.9524 16.6131 15.9246Z" fill="#00FFFF"/>
<path d="M16.9685 17.5844C16.9622 17.535 17.0002 17.4887 17.051 17.4825L17.9552 17.3684C18.006 17.3623 18.0535 17.3993 18.0599 17.4487C18.0662 17.4981 18.0281 17.5443 17.9774 17.5505L17.0732 17.6615C17.0224 17.6676 16.9748 17.6338 16.9685 17.5844Z" fill="#FFFF00"/>
</g>
<path d="M12.0591 7.87897C12.0591 7.87897 13.2878 8.28527 13.755 8.12963C14.2222 7.97406 16.2561 7.85368 17.0774 9.77936C17.899 11.7048 16.3687 12.8377 17.7653 13.8182C19.1624 14.7992 19.602 14.1951 20.2862 14.7549C20.9704 15.3148 20.5041 16.6175 19.7002 16.6659C18.8961 16.7148 18.3028 15.8269 17.5842 15.498C16.866 15.169 15.417 15.8034 14.7664 16.3397C14.1162 16.8753 12.4686 17.1347 10.9128 15.778C9.35718 14.4212 8.35384 12.0668 7.18007 12.3343C6.00639 12.6025 6.0961 13.8846 5.25868 13.5201C4.42125 13.1554 4.73501 12.2474 5.48858 12.2419C6.24252 12.2365 7.68826 11.6289 7.53754 10.7546C7.38637 9.87973 7.12431 7.97824 8.33399 7.32421C9.54407 6.67001 10.6744 7.24489 12.0591 7.87897Z" fill="#875237"/>
<path d="M17.2787 9.65826C17.1876 9.8463 17.2705 10.0701 17.4642 10.1587C17.6574 10.2473 17.8878 10.1668 17.9792 9.97915C18.0706 9.79117 17.9873 9.56704 17.7939 9.47843C17.6006 9.38991 17.37 9.4703 17.2787 9.65826Z" fill="#875237"/>
<path d="M18.2634 10.1091C18.2356 10.1668 18.2612 10.236 18.3205 10.263C18.3798 10.2904 18.451 10.2655 18.4788 10.2081C18.5071 10.1501 18.4813 10.0811 18.422 10.054C18.3627 10.0265 18.2915 10.0514 18.2634 10.1091Z" fill="#875237"/>
<path d="M12.1013 7.15896C11.9734 7.42239 12.0896 7.7366 12.3609 7.86047C12.6318 7.98471 12.9551 7.87191 13.0829 7.60841C13.2106 7.34529 13.0944 7.03114 12.8235 6.90706C12.5525 6.78296 12.2289 6.89576 12.1013 7.15896Z" fill="#875237"/>
<path d="M9.58665 5.52764C9.48661 5.7333 9.5771 5.97824 9.7887 6.07513C10.0005 6.17201 10.2526 6.08417 10.3527 5.87858C10.4524 5.67294 10.3619 5.42798 10.1502 5.33103C9.93858 5.23406 9.68614 5.32191 9.58665 5.52764Z" fill="#875237"/>
<path d="M6.97355 7.38333C6.91123 7.51175 6.96797 7.66515 7.10019 7.72561C7.2325 7.78622 7.39021 7.73117 7.45261 7.60268C7.51477 7.47442 7.45817 7.32085 7.32581 7.26039C7.19372 7.19976 7.03608 7.25505 6.97355 7.38333Z" fill="#875237"/>
<path d="M7.85545 13.2238C7.82597 13.2851 7.93365 13.3946 8.0953 13.4688C8.25747 13.5429 8.41231 13.5539 8.44244 13.4926C8.4719 13.4318 8.3646 13.3221 8.20244 13.248C8.04038 13.1737 7.8853 13.163 7.85545 13.2238Z" fill="#875237"/>
<path d="M6.31418 13.7475C6.23627 13.908 6.30126 14.0969 6.46007 14.1698C6.6189 14.2426 6.81059 14.171 6.88876 14.0107C6.96632 13.8501 6.90116 13.6611 6.74249 13.5881C6.58346 13.5154 6.39174 13.5871 6.31418 13.7475Z" fill="#875237"/>
<path d="M10.0246 16.1717C9.96869 16.2874 9.98754 16.4104 10.0668 16.4469C10.146 16.4831 10.256 16.419 10.3119 16.3033C10.3679 16.1879 10.349 16.0645 10.2698 16.0283C10.1902 15.992 10.0805 16.0563 10.0246 16.1717Z" fill="#875237"/>
<path d="M15.3311 16.7542C15.197 17.0304 15.3213 17.3612 15.6088 17.4928C15.8967 17.6246 16.2385 17.5074 16.3726 17.2313C16.5063 16.955 16.3819 16.6245 16.0946 16.4927C15.807 16.3609 15.4649 16.4782 15.3311 16.7542Z" fill="#875237"/>
<path d="M9.58277 10.7215C8.86027 12.2098 9.55321 14.0015 11.13 14.7235C12.7066 15.4457 14.5706 14.8248 15.2931 13.3368C16.0152 11.8487 15.322 10.0571 13.7453 9.33487C12.1686 8.61273 10.3048 9.23374 9.58277 10.7215Z" fill="#875237"/>
<path d="M9.93366 10.8825C9.26019 12.2697 9.87212 13.9242 11.3001 14.5786C12.7281 15.2327 14.4315 14.6381 15.1048 13.2508C15.7781 11.8638 15.1663 10.2087 13.7383 9.55494C12.3101 8.90083 10.6069 9.49515 9.93366 10.8825Z" fill="#875237"/>
<path d="M11.6307 11.0914C11.1912 11.9973 11.591 13.0778 12.5231 13.5048C13.4559 13.9319 14.5682 13.544 15.0078 12.638C15.4475 11.7321 15.048 10.6513 14.1156 10.2242C13.1832 9.797 12.0705 10.1854 11.6307 11.0914Z" fill="#875237"/>
<path d="M12.2007 10.3715C12.0793 10.6221 12.1896 10.9207 12.4474 11.0388C12.7051 11.1569 13.0126 11.0498 13.1346 10.7993C13.256 10.5487 13.1455 10.2498 12.8875 10.1317C12.6295 10.0134 12.3222 10.1209 12.2007 10.3715Z" fill="#875237"/>
<path d="M11.3466 10.8046C11.2999 10.901 11.3424 11.0158 11.4416 11.0614C11.5405 11.1068 11.6589 11.0656 11.7058 10.9694C11.7525 10.8727 11.7098 10.7579 11.6108 10.7126C11.5116 10.667 11.3936 10.7082 11.3466 10.8046Z" fill="#875237"/>
<path d="M12.6476 14.0938C12.5928 14.2063 12.688 14.3613 12.86 14.4401C13.0318 14.5189 13.2154 14.4916 13.27 14.379C13.3248 14.2667 13.2292 14.1117 13.0575 14.0329C12.8854 13.9542 12.7019 13.9815 12.6476 14.0938Z" fill="#875237"/>
<path d="M11.814 14.032C11.7766 14.1089 11.8107 14.2009 11.8899 14.2374C11.9689 14.2736 12.0642 14.2406 12.1016 14.1633C12.1387 14.0866 12.1046 13.9943 12.0251 13.9582C11.9459 13.922 11.8514 13.9549 11.814 14.032Z" fill="#875237"/>
<path d="M13.5891 13.9927C13.5329 14.1085 13.5835 14.2462 13.7027 14.3009C13.8216 14.3552 13.9638 14.3057 14.0198 14.1899C14.0757 14.0746 14.0248 13.9367 13.9059 13.882C13.787 13.8275 13.645 13.8771 13.5891 13.9927Z" fill="#875237"/>
<path d="M11.9558 8.29001C11.9558 8.29001 13.1842 8.69617 13.6514 8.54067C14.1189 8.38504 16.1526 8.26473 16.9737 10.1905C17.7955 12.1156 16.2651 13.2484 17.662 14.2293C19.0586 15.2102 19.4983 14.6059 20.1826 15.1658C20.867 15.7258 20.4004 17.0283 19.5965 17.077C18.7925 17.1256 18.1991 16.2378 17.4808 15.9088C16.7626 15.5799 15.3133 16.2146 14.6628 16.7506C14.0126 17.2865 12.3651 17.546 10.8097 16.1888C9.25348 14.8321 8.2506 12.4776 7.07668 12.7451C5.90275 13.0134 5.99269 14.2959 5.15498 13.9311C4.31792 13.5664 4.63131 12.6583 5.38525 12.653C6.13893 12.6476 7.58485 12.04 7.43417 11.1654C7.28274 10.2908 7.02074 8.38922 8.23025 7.73504C9.4405 7.08101 10.5711 7.65562 11.9558 8.29001Z" fill="white"/>
<path d="M17.1753 10.0692C17.0842 10.2571 17.1666 10.4811 17.3602 10.5697C17.5537 10.6581 17.7845 10.5781 17.8758 10.3899C17.9668 10.2022 17.884 9.978 17.6906 9.88955C17.4971 9.8008 17.2664 9.88137 17.1753 10.0692Z" fill="white"/>
<path d="M18.1601 10.5203C18.132 10.5781 18.1576 10.6469 18.2169 10.6742C18.2764 10.7013 18.3473 10.6766 18.3751 10.6191C18.4036 10.5609 18.3777 10.492 18.3186 10.4647C18.2591 10.4375 18.1879 10.4622 18.1601 10.5203Z" fill="white"/>
<path d="M11.9981 7.57007C11.8701 7.83333 11.9865 8.14762 12.2572 8.27142C12.5282 8.39582 12.8517 8.28294 12.9796 8.01945C13.107 7.75634 12.9912 7.44226 12.7202 7.31802C12.4489 7.19393 12.1256 7.30664 11.9981 7.57007Z" fill="white"/>
<path d="M9.48297 5.93855C9.38318 6.14405 9.47369 6.38942 9.68544 6.48614C9.89677 6.58316 10.1496 6.4951 10.2492 6.2896C10.3491 6.084 10.258 5.8389 10.0467 5.74179C9.83488 5.64507 9.58277 5.73312 9.48297 5.93855Z" fill="white"/>
<path d="M6.87038 7.79436C6.80786 7.92285 6.86473 8.07603 6.99682 8.13664C7.12926 8.19719 7.28694 8.14229 7.34901 8.01371C7.4115 7.8852 7.35466 7.73189 7.22257 7.6715C7.09014 7.61105 6.93269 7.66585 6.87038 7.79436Z" fill="white"/>
<path d="M7.75213 13.6351C7.722 13.696 7.82964 13.8057 7.99158 13.8799C8.15379 13.954 8.30899 13.9647 8.33872 13.9038C8.36829 13.8425 8.26116 13.7331 8.09897 13.6589C7.93677 13.5846 7.78157 13.5738 7.75213 13.6351Z" fill="white"/>
<path d="M6.21059 14.1585C6.13274 14.319 6.19794 14.5082 6.35648 14.5806C6.51558 14.6535 6.70733 14.5819 6.78524 14.4216C6.86305 14.2613 6.79751 14.0721 6.63897 13.9994C6.48015 13.9268 6.28823 13.9982 6.21059 14.1585Z" fill="white"/>
<path d="M9.92125 16.5828C9.86502 16.6984 9.88412 16.8215 9.96311 16.8578C10.0427 16.8941 10.1523 16.8299 10.2085 16.7144C10.2645 16.5987 10.2457 16.4755 10.1661 16.4393C10.0869 16.403 9.97716 16.4672 9.92125 16.5828Z" fill="white"/>
<path d="M15.228 17.1654C15.0936 17.4414 15.218 17.7721 15.5054 17.9039C15.793 18.0353 16.135 17.9183 16.2694 17.6422C16.4032 17.3661 16.2785 17.0351 15.9911 16.9037C15.7035 16.7719 15.3617 16.8892 15.228 17.1654Z" fill="white"/>
<path d="M9.47899 11.1326C8.75658 12.6205 9.44926 14.4123 11.0265 15.1348C12.6033 15.8569 14.4673 15.2359 15.1894 13.7478C15.9119 12.2599 15.2184 10.468 13.6416 9.74587C12.0647 9.02357 10.2012 9.64451 9.47899 11.1326Z" fill="#F4C3AF"/>
<path d="M9.8299 11.2933C9.15643 12.6807 9.76838 14.3351 11.1964 14.9895C12.6243 15.6433 14.3279 15.0491 15.0011 13.6617C15.6744 12.2747 15.0627 10.6198 13.6347 9.96564C12.2064 9.31169 10.5032 9.90619 9.8299 11.2933Z" fill="#FFC938"/>
<path d="M11.5275 11.5023C11.0879 12.4082 11.4878 13.4888 12.42 13.9159C13.3527 14.343 14.465 13.9547 14.9046 13.0489C15.3443 12.1431 14.9448 11.0624 14.0122 10.6355C13.0797 10.2084 11.9674 10.5964 11.5275 11.5023Z" fill="#FDDD38"/>
<path d="M12.0972 10.7825C11.9758 11.0329 12.086 11.3317 12.3437 11.4498C12.6019 11.568 12.9093 11.4607 13.0311 11.2102C13.1522 10.9594 13.0417 10.6608 12.784 10.5427C12.5263 10.4245 12.2187 10.5319 12.0972 10.7825Z" fill="#FFFFFC"/>
<path d="M11.2431 11.2157C11.1965 11.3121 11.2386 11.427 11.3381 11.4723C11.4369 11.5177 11.5551 11.4765 11.602 11.3803C11.6488 11.2838 11.606 11.1692 11.5073 11.1235C11.4082 11.078 11.2898 11.1195 11.2431 11.2157Z" fill="#FFFFFC"/>
<path d="M12.5439 14.505C12.4894 14.6173 12.5846 14.7724 12.7564 14.8512C12.9282 14.9298 13.1117 14.9024 13.1662 14.7901C13.221 14.6777 13.1255 14.5226 12.954 14.444C12.782 14.3654 12.5985 14.3925 12.5439 14.505Z" fill="#FF4A38"/>
<path d="M11.7105 14.443C11.6731 14.5201 11.7071 14.6121 11.7863 14.6483C11.8657 14.6847 11.9607 14.6518 11.9981 14.5745C12.0355 14.4975 12.0015 14.4057 11.9219 14.3694C11.8423 14.333 11.7479 14.366 11.7105 14.443Z" fill="#703615"/>
<path d="M13.4853 14.4038C13.4295 14.5194 13.4802 14.6574 13.5991 14.7117C13.7183 14.7662 13.8602 14.7168 13.9161 14.6012C13.9724 14.4856 13.9213 14.3475 13.8023 14.293C13.6835 14.2387 13.5415 14.2884 13.4853 14.4038Z" fill="#703615"/>
<path d="M16.8635 12.5927L22.1837 12.2755L16.8398 12.4341L16.8635 12.5927Z" fill="white"/>
<path d="M8.30481 10.2317L4.23755 8.85297L8.30481 10.3828V10.2317Z" fill="white"/>
<path d="M12.5283 16.6485L12.8616 19.2656L12.3945 16.6485H12.5283Z" fill="white"/>
<path d="M0.637939 29.0851V29.5398C0.637939 31.5553 2.31998 33.1892 4.39506 33.1892C6.47007 33.1892 8.15193 31.5553 8.15193 29.5398V29.0851H0.637939Z" fill="#EA9F25"/>
<path d="M0.637939 28.8861C0.637939 30.9044 2.32257 32.5406 4.40009 32.5406C6.47794 32.5406 8.16228 30.9044 8.16228 28.8861C8.16228 26.8676 6.47794 25.2316 4.40009 25.2316C2.32257 25.2316 0.637939 26.8676 0.637939 28.8861Z" fill="#FBFBFB"/>
<path d="M1.27856 28.8861C1.27856 30.5608 2.67598 31.9186 4.40005 31.9186C6.12424 31.9186 7.52165 30.5608 7.52165 28.8861C7.52165 27.2111 6.12424 25.8537 4.40005 25.8537C2.67598 25.8537 1.27856 27.2111 1.27856 28.8861Z" fill="#F8CA4E"/>
<path d="M4.61341 26.9592C2.89053 26.9592 1.49412 28.3149 1.4919 29.9882C1.3546 29.6463 1.27856 29.2749 1.27856 28.8861C1.27856 27.2111 2.67594 25.8536 4.40004 25.8536C6.12421 25.8536 7.52162 27.2111 7.52162 28.8861V28.8897C7.06769 27.7601 5.93723 26.9592 4.61341 26.9592Z" fill="#EB9A13"/>
<path d="M11.4854 29.0851V29.5398C11.4854 31.5553 13.1674 33.1892 15.2424 33.1892C17.3175 33.1892 18.9993 31.5553 18.9993 29.5398V29.0851H11.4854Z" fill="#EA9F25"/>
<path d="M11.4802 28.8861C11.4802 30.9044 13.1648 32.5406 15.2423 32.5406C17.3202 32.5406 19.0046 30.9044 19.0046 28.8861C19.0046 26.8676 17.3202 25.2316 15.2423 25.2316C13.1648 25.2316 11.4802 26.8676 11.4802 28.8861Z" fill="#FBFBFB"/>
<path d="M12.1208 28.8861C12.1208 30.5608 13.5183 31.9186 15.2423 31.9186C16.9666 31.9186 18.364 30.5608 18.364 28.8861C18.364 27.2111 16.9666 25.8537 15.2423 25.8537C13.5183 25.8537 12.1208 27.2111 12.1208 28.8861Z" fill="#AF5821"/>
<path d="M15.4557 26.9592C13.7329 26.9592 12.3365 28.3149 12.3342 29.9882C12.197 29.6463 12.1208 29.2749 12.1208 28.8861C12.1208 27.2111 13.5183 25.8536 15.2423 25.8536C16.9666 25.8536 18.364 27.2111 18.364 28.8861V28.8897C17.9101 27.7601 16.7796 26.9592 15.4557 26.9592Z" fill="#78291E"/>
<path d="M14.5535 27.8873C14.5535 28.3273 14.866 28.6842 15.2514 28.6842C15.6368 28.6842 15.9493 28.3273 15.9493 27.8873C15.9493 27.4472 15.6368 27.0905 15.2514 27.0905C14.866 27.0905 14.5535 27.4472 14.5535 27.8873ZM14.6123 27.8395C14.6123 27.4532 14.8985 27.1401 15.2514 27.1401C15.6043 27.1401 15.8902 27.4532 15.8902 27.8395C15.8902 28.2257 15.6043 28.5389 15.2514 28.5389C14.8985 28.5389 14.6123 28.2257 14.6123 27.8395Z" fill="#BD1E2C"/>
<path d="M14.3119 27.5811C14.1074 27.8153 14.1076 28.1423 14.3129 28.3115C14.5178 28.4805 14.8502 28.4278 15.0547 28.1935C15.2593 27.9594 15.2589 27.6324 15.054 27.4632C14.8489 27.2942 14.5166 27.347 14.3119 27.5811ZM14.3656 27.5816C14.5452 27.376 14.8431 27.335 15.0308 27.4899C15.2186 27.6446 15.2252 27.9367 15.0456 28.1423C14.8659 28.3478 14.5681 28.3888 14.3803 28.2341C14.1925 28.0791 14.186 27.787 14.3656 27.5816Z" fill="#BD1E2C"/>
<path d="M15.9661 30.3332C15.9661 30.6063 16.1599 30.8277 16.3992 30.8277C16.6384 30.8277 16.8323 30.6063 16.8323 30.3332C16.8323 30.0602 16.6384 29.8388 16.3992 29.8388C16.1599 29.8388 15.9661 30.0602 15.9661 30.3332ZM16.0027 30.3036C16.0027 30.0639 16.1803 29.8697 16.3992 29.8697C16.6181 29.8697 16.7957 30.0639 16.7957 30.3036C16.7957 30.5433 16.6181 30.7376 16.3992 30.7376C16.1803 30.7376 16.0027 30.5433 16.0027 30.3036Z" fill="#BD1E2C"/>
<path d="M15.8162 30.1431C15.6893 30.2885 15.6896 30.4913 15.8166 30.5963C15.944 30.7014 16.15 30.6686 16.2772 30.5234C16.4039 30.378 16.4038 30.1752 16.2766 30.0702C16.1493 29.9652 15.9432 29.9979 15.8162 30.1431ZM15.8497 30.1435C15.961 30.0159 16.1457 29.9904 16.2621 30.0865C16.3789 30.1827 16.3829 30.3638 16.2715 30.4915C16.1599 30.619 15.9753 30.6445 15.8586 30.5485C15.7421 30.4523 15.738 30.2709 15.8497 30.1435Z" fill="#BD1E2C"/>
<path d="M15.8395 29.6158C16.0053 29.3542 15.9535 29.031 15.7245 28.8942C15.4953 28.7573 15.1752 28.8583 15.0094 29.1202C14.8441 29.3818 14.8957 29.7048 15.1247 29.8419C15.3537 29.9786 15.6739 29.8775 15.8395 29.6158ZM15.7866 29.6233C15.6413 29.8529 15.3533 29.9376 15.1434 29.8123C14.9336 29.6869 14.8813 29.3991 15.0267 29.1694C15.1721 28.9398 15.4597 28.8552 15.6696 28.9806C15.8797 29.1059 15.932 29.3936 15.7866 29.6233Z" fill="#BD1E2C"/>
<path d="M15.7375 29.3636C15.7568 29.0571 15.5546 28.7956 15.2858 28.7799C15.0174 28.7641 14.7843 28.9999 14.7652 29.3066C14.7459 29.6132 14.9482 29.8744 15.2168 29.8903C15.4853 29.9061 15.7184 29.6702 15.7375 29.3636ZM15.6946 29.3945C15.6778 29.6637 15.465 29.87 15.2189 29.8556C14.9731 29.8411 14.7874 29.6113 14.8041 29.3422C14.8208 29.0731 15.0337 28.8667 15.2795 28.8811C15.5256 28.8956 15.7111 29.1255 15.6946 29.3945Z" fill="#BD1E2C"/>
<path d="M15.5969 29.2614C15.5476 28.958 15.2924 28.7449 15.0265 28.7857C14.7606 28.8264 14.5853 29.1054 14.6345 29.4088C14.6837 29.7121 14.9391 29.9253 15.2048 29.8845C15.4708 29.8438 15.6461 29.5649 15.5969 29.2614ZM15.5616 29.3006C15.6047 29.5668 15.4427 29.813 15.1993 29.8503C14.9561 29.8875 14.7235 29.7018 14.6804 29.4356C14.6373 29.1692 14.7994 28.9232 15.0428 28.8859C15.2861 28.8486 15.5184 29.0343 15.5616 29.3006Z" fill="#BD1E2C"/>
<mask id="mask3_1834_2932" style="mask-type:luminance" maskUnits="userSpaceOnUse" x="0" y="0" width="35" height="34">
<path d="M0 0H35V34H0V0Z" fill="white"/>
</mask>
<g mask="url(#mask3_1834_2932)">
<path d="M22.3328 29.0851V29.5398C22.3328 31.5553 24.0148 33.1892 26.0898 33.1892C28.1649 33.1892 29.8467 31.5553 29.8467 29.5398V29.0851H22.3328Z" fill="#EA9F25"/>
<path d="M22.3328 28.8861C22.3328 30.9044 24.0174 32.5406 26.095 32.5406C28.1728 32.5406 29.8571 30.9044 29.8571 28.8861C29.8571 26.8676 28.1728 25.2316 26.095 25.2316C24.0174 25.2316 22.3328 26.8676 22.3328 28.8861Z" fill="#FBFBFB"/>
<path d="M22.9734 28.8861C22.9734 30.5608 24.3708 31.9186 26.095 31.9186C27.8191 31.9186 29.2165 30.5608 29.2165 28.8861C29.2165 27.2111 27.8191 25.8537 26.095 25.8537C24.3708 25.8537 22.9734 27.2111 22.9734 28.8861Z" fill="#E6E7E8"/>
<path d="M25.218 30.4296C25.2341 30.4033 26.2564 29.7665 26.3191 29.7268L27.9774 28.6769C28.0113 28.6559 28.0354 28.6402 28.0683 28.6193C28.0996 28.5995 28.1342 28.5745 28.1666 28.5596C28.2201 28.6074 28.2946 28.7867 28.3274 28.8674C28.5202 29.3409 28.4583 29.8717 28.2209 30.3008L28.0481 30.5487C28.0303 30.5671 28.0184 30.5845 28.0002 30.6042C27.8888 30.724 27.7883 30.8118 27.6406 30.9073C27.0465 31.2922 26.2088 31.2682 25.6541 30.8645C25.5034 30.7547 25.3185 30.5966 25.218 30.4296Z" fill="#BBB1A3"/>
<path d="M25.218 30.4296C25.3185 30.5966 25.5034 30.7547 25.6541 30.8645C26.2088 31.2682 27.0465 31.2922 27.6406 30.9074C27.7883 30.8118 27.8888 30.724 28.0002 30.6042C28.0184 30.5845 28.0302 30.5671 28.0481 30.5487L28.2209 30.3008C28.4583 29.8717 28.5201 29.3409 28.3274 28.8674C28.2946 28.7867 28.2201 28.6074 28.1666 28.5596C28.1737 28.5532 28.1671 28.5583 28.1793 28.55L28.3178 28.468C28.3236 28.4889 28.3472 28.5248 28.3598 28.5446C28.3787 28.5747 28.3876 28.5923 28.4046 28.6265C28.4547 28.7267 28.5272 28.8874 28.5505 28.999C28.5923 29.2025 28.6034 29.1954 28.6113 29.432C28.6134 29.493 28.6122 29.5691 28.605 29.6295C28.6011 29.6631 28.6001 29.6922 28.5956 29.7241C28.5689 29.9105 28.4984 30.1381 28.4129 30.2995C28.3536 30.4125 28.2937 30.5178 28.2094 30.6146C28.1121 30.7266 28.0904 30.7684 27.9461 30.8889C27.6531 31.1335 27.3607 31.2595 26.9696 31.3259C26.7684 31.3598 26.5499 31.3549 26.3485 31.3227C26.0699 31.2783 25.6957 31.1282 25.4844 30.9463L25.1766 30.6541L25.0701 30.5138C25.1165 30.4948 25.1756 30.4399 25.218 30.4296Z" fill="#BBB1A3"/>
<path d="M26.5471 29.6936L26.9397 29.4382C26.9652 29.6911 26.6937 29.7897 26.5471 29.6936Z" fill="#BBB1A3"/>
<path d="M25.7338 30.5281C25.8284 30.6384 26.0073 30.631 26.1341 30.5112C26.2605 30.3913 26.5193 29.7849 26.5193 29.7849C26.5193 29.7849 25.9181 29.9919 25.7916 30.1117C25.6649 30.2314 25.6392 30.4178 25.7338 30.5281Z" fill="#BBB1A3"/>
<path d="M26.341 29.9533C26.3279 29.9748 26.3325 29.9998 26.3507 30.0097C26.3693 30.0193 26.3952 30.0102 26.4083 29.9889C26.4213 29.9676 26.4187 29.8997 26.4187 29.8997C26.4187 29.8997 26.3543 29.9321 26.341 29.9533Z" fill="#BBB1A3"/>
<path d="M25.9024 30.1391C25.8799 30.1456 25.8634 30.1691 25.8657 30.1915C25.8682 30.2141 25.8883 30.2268 25.9111 30.2202C25.9334 30.2135 25.9826 30.1573 25.9826 30.1573C25.9826 30.1573 25.9251 30.1322 25.9024 30.1391Z" fill="#BBB1A3"/>
<path d="M26.1243 30.1306C26.1393 30.1449 26.1654 30.1415 26.1824 30.1229C26.1995 30.1044 26.212 30.0349 26.212 30.0349C26.212 30.0349 26.1446 30.0526 26.1276 30.0711C26.1106 30.0896 26.109 30.1163 26.1243 30.1306Z" fill="#BBB1A3"/>
<path d="M26.1123 30.2694C26.105 30.2925 26.1166 30.3139 26.138 30.3174C26.1595 30.3208 26.1829 30.3047 26.1902 30.2817C26.1976 30.2584 26.1762 30.1975 26.1762 30.1975C26.1762 30.1975 26.1197 30.2462 26.1123 30.2694Z" fill="#BBB1A3"/>
<path d="M26.5954 30.9605C26.7408 30.986 26.873 30.8683 26.8908 30.6975C26.9085 30.5267 26.7053 29.9006 26.7053 29.9006C26.7053 29.9006 26.3818 30.4347 26.3641 30.6053C26.3462 30.7761 26.4499 30.9349 26.5954 30.9605Z" fill="#BBB1A3"/>
<path d="M26.6803 30.1409C26.6844 30.1654 26.7045 30.1819 26.725 30.178C26.7458 30.1739 26.7593 30.1508 26.7552 30.1262C26.7514 30.1017 26.7045 30.0513 26.7045 30.0513C26.7045 30.0513 26.6763 30.1164 26.6803 30.1409Z" fill="#BBB1A3"/>
<path d="M26.4668 30.557C26.4543 30.5764 26.457 30.6043 26.4737 30.6202C26.4904 30.6357 26.5143 30.6332 26.5272 30.6138C26.5402 30.5949 26.5407 30.5209 26.5407 30.5209C26.5407 30.5209 26.4797 30.5376 26.4668 30.557Z" fill="#BBB1A3"/>
<path d="M26.6314 30.4121C26.6524 30.4136 26.6701 30.3948 26.6708 30.3698C26.6713 30.3453 26.635 30.2839 26.635 30.2839C26.635 30.2839 26.5952 30.3397 26.5945 30.3646C26.5938 30.3894 26.6103 30.4107 26.6314 30.4121Z" fill="#BBB1A3"/>
<path d="M26.7141 30.5258C26.7237 30.548 26.7469 30.5574 26.7656 30.5467C26.7841 30.5358 26.7917 30.509 26.7819 30.4868C26.7725 30.4642 26.7157 30.431 26.7157 30.431C26.7157 30.431 26.7045 30.5034 26.7141 30.5258Z" fill="#BBB1A3"/>
<path d="M27.5414 30.7539C27.6698 30.6823 27.6932 30.5098 27.5938 30.3677C27.4943 30.2259 26.9246 29.873 26.9246 29.873C26.9246 29.873 27.0301 30.4843 27.1295 30.6261C27.2288 30.768 27.4131 30.8251 27.5414 30.7539Z" fill="#BBB1A3"/>
<path d="M27.0643 30.0727C27.0836 30.0891 27.1099 30.0893 27.1231 30.0734C27.1361 30.0571 27.1316 30.031 27.112 30.0147C27.0927 29.9985 27.0234 29.9891 27.0234 29.9891C27.0234 29.9891 27.0449 30.0565 27.0643 30.0727Z" fill="#BBB1A3"/>
<path d="M27.1765 30.5246C27.1792 30.5476 27.2001 30.5671 27.2234 30.5688C27.2465 30.5705 27.2629 30.5534 27.2602 30.5306C27.2574 30.5081 27.209 30.4512 27.209 30.4512C27.209 30.4512 27.1734 30.5019 27.1765 30.5246Z" fill="#BBB1A3"/>
<path d="M27.2061 30.3111C27.2232 30.2991 27.2245 30.2735 27.2084 30.2541C27.1924 30.2348 27.1243 30.2105 27.1243 30.2105C27.1243 30.2105 27.1306 30.2781 27.1463 30.2977C27.1623 30.3168 27.1892 30.3231 27.2061 30.3111Z" fill="#BBB1A3"/>
<path d="M27.3448 30.3466C27.3671 30.3575 27.3906 30.3504 27.3981 30.3305C27.4052 30.3105 27.393 30.2852 27.3709 30.2743C27.3485 30.2631 27.2832 30.273 27.2832 30.273C27.2832 30.273 27.3227 30.3354 27.3448 30.3466Z" fill="#BBB1A3"/>
<path d="M28.1295 30.0045C28.1804 29.8697 28.084 29.7228 27.914 29.6762C27.7441 29.6296 27.0737 29.7152 27.0737 29.7152C27.0737 29.7152 27.5591 30.1176 27.7291 30.164C27.899 30.2107 28.0782 30.1394 28.1295 30.0045Z" fill="#BBB1A3"/>
<path d="M27.3133 29.7809C27.3387 29.7813 27.359 29.765 27.3589 29.7445C27.358 29.724 27.337 29.707 27.3114 29.7067C27.286 29.7061 27.2266 29.7424 27.2266 29.7424C27.2266 29.7424 27.2878 29.7803 27.3133 29.7809Z" fill="#BBB1A3"/>
<path d="M27.6978 30.0572C27.7151 30.0729 27.7443 30.0748 27.763 30.0616C27.7818 30.0483 27.7834 30.025 27.7662 30.0093C27.7491 29.9937 27.6741 29.9805 27.6741 29.9805C27.6741 29.9805 27.6806 30.0414 27.6978 30.0572Z" fill="#BBB1A3"/>
<path d="M27.5798 29.8747C27.5852 29.855 27.5689 29.8346 27.5437 29.8297C27.519 29.8247 27.4504 29.8488 27.4504 29.8488C27.4504 29.8488 27.5002 29.8968 27.525 29.9017C27.5501 29.9068 27.5744 29.8945 27.5798 29.8747Z" fill="#BBB1A3"/>
<path d="M27.7095 29.8153C27.7336 29.8098 27.747 29.7894 27.7395 29.7697C27.7318 29.75 27.7059 29.7383 27.6815 29.7436C27.6572 29.749 27.6135 29.7976 27.6135 29.7976C27.6135 29.7976 27.6851 29.8206 27.7095 29.8153Z" fill="#BBB1A3"/>
<path d="M28.0841 29.0634C28.0342 28.9284 27.8631 28.8759 27.7018 28.9465C27.5407 29.0169 27.084 29.5009 27.084 29.5009C27.084 29.5009 27.7221 29.506 27.883 29.4357C28.0442 29.3652 28.1341 29.1985 28.0841 29.0634Z" fill="#BBB1A3"/>
<path d="M27.3109 29.4018C27.3309 29.3861 27.3355 29.361 27.3218 29.3456C27.3076 29.3303 27.2802 29.3305 27.2604 29.3461C27.2407 29.3616 27.219 29.4263 27.219 29.4263C27.219 29.4263 27.2911 29.4173 27.3109 29.4018Z" fill="#BBB1A3"/>
<path d="M27.7883 29.3731C27.8121 29.3743 27.8357 29.3576 27.8413 29.3358C27.8471 29.3139 27.8326 29.2952 27.8091 29.2939C27.7855 29.2926 27.7195 29.3291 27.7195 29.3291C27.7195 29.3291 27.7647 29.3719 27.7883 29.3731Z" fill="#BBB1A3"/>
<path d="M27.5771 29.3072C27.5677 29.2888 27.5421 29.2834 27.5198 29.2953C27.4973 29.3069 27.4609 29.3682 27.4609 29.3682C27.4609 29.3682 27.5306 29.3739 27.553 29.3622C27.5754 29.3505 27.5864 29.3258 27.5771 29.3072Z" fill="#BBB1A3"/>
<path d="M27.637 29.1808C27.652 29.1615 27.6489 29.1375 27.6298 29.1271C27.6109 29.1169 27.5833 29.1241 27.5682 29.1433C27.5529 29.1626 27.5518 29.2272 27.5518 29.2272C27.5518 29.2272 27.6218 29.2002 27.637 29.1808Z" fill="#BBB1A3"/>
<path d="M25.2642 30.2289C25.2808 30.2027 26.3169 29.5874 26.3805 29.549L28.0615 28.5341C28.096 28.5136 28.1203 28.4984 28.1537 28.4783C28.1855 28.459 28.2205 28.435 28.2533 28.4206C28.3058 28.4695 28.3763 28.6503 28.4073 28.7316C28.5896 29.209 28.516 29.7384 28.2692 30.1625L28.091 30.4067C28.0727 30.4248 28.0605 30.4419 28.0418 30.4612C27.9278 30.5787 27.8254 30.6644 27.6756 30.7569C27.0732 31.1293 26.2362 31.0879 25.6906 30.6725C25.5424 30.5597 25.3609 30.398 25.2642 30.2289Z" fill="#E4DF20"/>
<path d="M25.2643 30.2288C25.3611 30.3979 25.5425 30.5597 25.6907 30.6725C26.2363 31.0879 27.0733 31.1293 27.6758 30.7568C27.8256 30.6644 27.9279 30.5786 28.042 30.4611C28.0606 30.4419 28.0729 30.4247 28.0911 30.4066L28.2694 30.1624C28.5162 29.7383 28.5897 29.209 28.4074 28.7316C28.3764 28.6503 28.3059 28.4695 28.2534 28.4205C28.2607 28.4144 28.254 28.4192 28.2663 28.4111L28.4067 28.3321C28.412 28.3532 28.4348 28.3894 28.447 28.4097C28.4652 28.4401 28.4736 28.4578 28.4899 28.4922C28.5378 28.5936 28.6068 28.7559 28.6276 28.8678C28.6649 29.0722 28.6761 29.0653 28.6788 29.302C28.6795 29.3629 28.6767 29.4392 28.6682 29.4992C28.6635 29.5329 28.6619 29.5619 28.6567 29.5937C28.6258 29.7793 28.5504 30.0056 28.4613 30.1654C28.3995 30.2769 28.3374 30.3808 28.251 30.4758C28.1512 30.5859 28.1286 30.6272 27.9817 30.7448C27.6833 30.9831 27.3882 31.103 26.9957 31.1612C26.7938 31.191 26.5755 31.1816 26.3748 31.1452C26.0973 31.095 25.7265 30.937 25.5192 30.7509L25.218 30.4522L25.1145 30.31C25.1613 30.2919 25.2217 30.2381 25.2643 30.2288Z" fill="#E99F21"/>
<path d="M26.6094 29.5206L27.0075 29.2734C27.0274 29.5268 26.7538 29.6196 26.6094 29.5206Z" fill="#F0F560"/>
</g>
</g>
</g>
<defs>
<clipPath id="clip0_1834_2932">
<rect width="35" height="34" fill="white"/>
</clipPath>
</defs>
</svg>
