<svg width="63" height="24" viewBox="0 0 63 24" fill="none" xmlns="http://www.w3.org/2000/svg">
<path d="M5.87088 11.25L9.89388 7.227L8.83338 6.1665L2.99988 12L8.83338 17.8335L9.89388 16.773L5.87088 12.75H14.9999V11.25H5.87088Z" fill="#7F32CD"/>
<path d="M29.44 12.272C30.0693 12.3893 30.5867 12.704 30.992 13.216C31.3973 13.728 31.6 14.3147 31.6 14.976C31.6 15.5733 31.4507 16.1013 31.152 16.56C30.864 17.008 30.4427 17.36 29.888 17.616C29.3333 17.872 28.6773 18 27.92 18H23.104V6.832H27.712C28.4693 6.832 29.12 6.95467 29.664 7.2C30.2187 7.44533 30.6347 7.78667 30.912 8.224C31.2 8.66133 31.344 9.15733 31.344 9.712C31.344 10.3627 31.168 10.9067 30.816 11.344C30.4747 11.7813 30.016 12.0907 29.44 12.272ZM25.344 11.44H27.392C27.9253 11.44 28.336 11.3227 28.624 11.088C28.912 10.8427 29.056 10.496 29.056 10.048C29.056 9.6 28.912 9.25333 28.624 9.008C28.336 8.76267 27.9253 8.64 27.392 8.64H25.344V11.44ZM27.6 16.176C28.144 16.176 28.5653 16.048 28.864 15.792C29.1733 15.536 29.328 15.1733 29.328 14.704C29.328 14.224 29.168 13.8507 28.848 13.584C28.528 13.3067 28.096 13.168 27.552 13.168H25.344V16.176H27.6ZM32.8092 13.536C32.8092 12.64 32.9852 11.8453 33.3372 11.152C33.6999 10.4587 34.1853 9.92533 34.7933 9.552C35.4119 9.17867 36.0999 8.992 36.8573 8.992C37.5186 8.992 38.0946 9.12533 38.5853 9.392C39.0866 9.65867 39.4866 9.99467 39.7853 10.4V9.136H42.0413V18H39.7853V16.704C39.4973 17.12 39.0973 17.4667 38.5853 17.744C38.0839 18.0107 37.5026 18.144 36.8413 18.144C36.0946 18.144 35.4119 17.952 34.7933 17.568C34.1853 17.184 33.6999 16.6453 33.3372 15.952C32.9852 15.248 32.8092 14.4427 32.8092 13.536ZM39.7853 13.568C39.7853 13.024 39.6786 12.56 39.4653 12.176C39.2519 11.7813 38.9639 11.4827 38.6013 11.28C38.2386 11.0667 37.8493 10.96 37.4333 10.96C37.0173 10.96 36.6333 11.0613 36.2812 11.264C35.9293 11.4667 35.6413 11.7653 35.4173 12.16C35.2039 12.544 35.0973 13.0027 35.0973 13.536C35.0973 14.0693 35.2039 14.5387 35.4173 14.944C35.6413 15.3387 35.9293 15.6427 36.2812 15.856C36.6439 16.0693 37.0279 16.176 37.4333 16.176C37.8493 16.176 38.2386 16.0747 38.6013 15.872C38.9639 15.6587 39.2519 15.36 39.4653 14.976C39.6786 14.5813 39.7853 14.112 39.7853 13.568ZM43.653 13.568C43.653 12.6507 43.8397 11.8507 44.213 11.168C44.5863 10.4747 45.1037 9.94133 45.765 9.568C46.4263 9.184 47.1837 8.992 48.037 8.992C49.1357 8.992 50.0423 9.26933 50.757 9.824C51.4823 10.368 51.9677 11.136 52.213 12.128H49.797C49.669 11.744 49.4503 11.4453 49.141 11.232C48.8423 11.008 48.469 10.896 48.021 10.896C47.381 10.896 46.8743 11.1307 46.501 11.6C46.1277 12.0587 45.941 12.7147 45.941 13.568C45.941 14.4107 46.1277 15.0667 46.501 15.536C46.8743 15.9947 47.381 16.224 48.021 16.224C48.9277 16.224 49.5197 15.8187 49.797 15.008H52.213C51.9677 15.968 51.4823 16.7307 50.757 17.296C50.0317 17.8613 49.125 18.144 48.037 18.144C47.1837 18.144 46.4263 17.9573 45.765 17.584C45.1037 17.2 44.5863 16.6667 44.213 15.984C43.8397 15.2907 43.653 14.4853 43.653 13.568ZM59.102 18L56.094 14.224V18H53.854V6.16H56.094V12.896L59.07 9.136H61.982L58.078 13.584L62.014 18H59.102Z" fill="#7F32CD"/>
</svg>
