<svg width="141" height="38" viewBox="0 0 141 38" fill="none" xmlns="http://www.w3.org/2000/svg">
<rect width="141" height="38" rx="4" fill="#F25621"/>
<path d="M19.3337 12.3335H14.0003C13.6467 12.3335 13.3076 12.474 13.0575 12.724C12.8075 12.9741 12.667 13.3132 12.667 13.6668V24.3335C12.667 24.6871 12.8075 25.0263 13.0575 25.2763C13.3076 25.5264 13.6467 25.6668 14.0003 25.6668H22.0003C22.3539 25.6668 22.6931 25.5264 22.9431 25.2763C23.1932 25.0263 23.3337 24.6871 23.3337 24.3335V16.3335L19.3337 12.3335Z" stroke="white" stroke-linecap="round" stroke-linejoin="round"/>
<path d="M19.333 12.3335V16.3335H23.333" stroke="white" stroke-linecap="round" stroke-linejoin="round"/>
<path d="M18 23V19" stroke="white" stroke-linecap="round" stroke-linejoin="round"/>
<path d="M16 21H20" stroke="white" stroke-linecap="round" stroke-linejoin="round"/>
<path d="M41.1595 21.83H36.9035L36.1195 24H34.7755L38.3035 14.298H39.7735L43.2875 24H41.9435L41.1595 21.83ZM40.7955 20.794L39.0315 15.866L37.2675 20.794H40.7955ZM44.3491 20.136C44.3491 19.352 44.5077 18.666 44.8251 18.078C45.1424 17.4807 45.5764 17.0187 46.1271 16.692C46.6871 16.3653 47.3124 16.202 48.0031 16.202C48.6004 16.202 49.1557 16.342 49.6691 16.622C50.1824 16.8927 50.5744 17.252 50.8451 17.7V13.64H52.1331V24H50.8451V22.558C50.5931 23.0153 50.2197 23.3933 49.7251 23.692C49.2304 23.9813 48.6517 24.126 47.9891 24.126C47.3077 24.126 46.6871 23.958 46.1271 23.622C45.5764 23.286 45.1424 22.8147 44.8251 22.208C44.5077 21.6013 44.3491 20.9107 44.3491 20.136ZM50.8451 20.15C50.8451 19.5713 50.7284 19.0673 50.4951 18.638C50.2617 18.2087 49.9444 17.882 49.5431 17.658C49.1511 17.4247 48.7171 17.308 48.2411 17.308C47.7651 17.308 47.3311 17.42 46.9391 17.644C46.5471 17.868 46.2344 18.1947 46.0011 18.624C45.7677 19.0533 45.6511 19.5573 45.6511 20.136C45.6511 20.724 45.7677 21.2373 46.0011 21.676C46.2344 22.1053 46.5471 22.4367 46.9391 22.67C47.3311 22.894 47.7651 23.006 48.2411 23.006C48.7171 23.006 49.1511 22.894 49.5431 22.67C49.9444 22.4367 50.2617 22.1053 50.4951 21.676C50.7284 21.2373 50.8451 20.7287 50.8451 20.15ZM53.81 20.136C53.81 19.352 53.9687 18.666 54.286 18.078C54.6033 17.4807 55.0373 17.0187 55.588 16.692C56.148 16.3653 56.7733 16.202 57.464 16.202C58.0613 16.202 58.6167 16.342 59.13 16.622C59.6433 16.8927 60.0353 17.252 60.306 17.7V13.64H61.594V24H60.306V22.558C60.054 23.0153 59.6807 23.3933 59.186 23.692C58.6913 23.9813 58.1127 24.126 57.45 24.126C56.7687 24.126 56.148 23.958 55.588 23.622C55.0373 23.286 54.6033 22.8147 54.286 22.208C53.9687 21.6013 53.81 20.9107 53.81 20.136ZM60.306 20.15C60.306 19.5713 60.1893 19.0673 59.956 18.638C59.7227 18.2087 59.4053 17.882 59.004 17.658C58.612 17.4247 58.178 17.308 57.702 17.308C57.226 17.308 56.792 17.42 56.4 17.644C56.008 17.868 55.6953 18.1947 55.462 18.624C55.2287 19.0533 55.112 19.5573 55.112 20.136C55.112 20.724 55.2287 21.2373 55.462 21.676C55.6953 22.1053 56.008 22.4367 56.4 22.67C56.792 22.894 57.226 23.006 57.702 23.006C58.178 23.006 58.612 22.894 59.004 22.67C59.4053 22.4367 59.7227 22.1053 59.956 21.676C60.1893 21.2373 60.306 20.7287 60.306 20.15ZM68.7534 15.278V18.54H72.3094V19.59H68.7534V22.95H72.7294V24H67.4794V14.228H72.7294V15.278H68.7534ZM78.6611 24L76.8411 21.144L75.0911 24H73.7611L76.2391 20.192L73.7611 16.328H75.2031L77.0231 19.17L78.7591 16.328H80.0891L77.6251 20.122L80.1031 24H78.6611ZM82.6303 17.742C82.8823 17.3033 83.2557 16.9393 83.7503 16.65C84.2543 16.3513 84.8377 16.202 85.5003 16.202C86.1817 16.202 86.7977 16.3653 87.3483 16.692C87.9083 17.0187 88.347 17.4807 88.6643 18.078C88.9817 18.666 89.1403 19.352 89.1403 20.136C89.1403 20.9107 88.9817 21.6013 88.6643 22.208C88.347 22.8147 87.9083 23.286 87.3483 23.622C86.7977 23.958 86.1817 24.126 85.5003 24.126C84.847 24.126 84.2683 23.9813 83.7643 23.692C83.2697 23.3933 82.8917 23.0247 82.6303 22.586V27.64H81.3563V16.328H82.6303V17.742ZM87.8383 20.136C87.8383 19.5573 87.7217 19.0533 87.4883 18.624C87.255 18.1947 86.9377 17.868 86.5363 17.644C86.1443 17.42 85.7103 17.308 85.2343 17.308C84.7677 17.308 84.3337 17.4247 83.9323 17.658C83.5403 17.882 83.223 18.2133 82.9803 18.652C82.747 19.0813 82.6303 19.5807 82.6303 20.15C82.6303 20.7287 82.747 21.2373 82.9803 21.676C83.223 22.1053 83.5403 22.4367 83.9323 22.67C84.3337 22.894 84.7677 23.006 85.2343 23.006C85.7103 23.006 86.1443 22.894 86.5363 22.67C86.9377 22.4367 87.255 22.1053 87.4883 21.676C87.7217 21.2373 87.8383 20.724 87.8383 20.136ZM97.8173 19.87C97.8173 20.1127 97.8033 20.3693 97.7753 20.64H91.6433C91.6899 21.396 91.9466 21.9887 92.4133 22.418C92.8893 22.838 93.4633 23.048 94.1353 23.048C94.6859 23.048 95.1433 22.922 95.5073 22.67C95.8806 22.4087 96.1419 22.0633 96.2913 21.634H97.6633C97.4579 22.3713 97.0473 22.9733 96.4313 23.44C95.8153 23.8973 95.0499 24.126 94.1353 24.126C93.4073 24.126 92.7539 23.9627 92.1753 23.636C91.6059 23.3093 91.1579 22.8473 90.8313 22.25C90.5046 21.6433 90.3413 20.9433 90.3413 20.15C90.3413 19.3567 90.4999 18.6613 90.8173 18.064C91.1346 17.4667 91.5779 17.0093 92.1473 16.692C92.7259 16.3653 93.3886 16.202 94.1353 16.202C94.8633 16.202 95.5073 16.3607 96.0673 16.678C96.6273 16.9953 97.0566 17.434 97.3553 17.994C97.6633 18.5447 97.8173 19.17 97.8173 19.87ZM96.5013 19.604C96.5013 19.1187 96.3939 18.7033 96.1793 18.358C95.9646 18.0033 95.6706 17.7373 95.2973 17.56C94.9333 17.3733 94.5273 17.28 94.0793 17.28C93.4353 17.28 92.8846 17.4853 92.4273 17.896C91.9793 18.3067 91.7226 18.876 91.6573 19.604H96.5013ZM103.237 16.188C104.17 16.188 104.926 16.4727 105.505 17.042C106.084 17.602 106.373 18.414 106.373 19.478V24H105.113V19.66C105.113 18.8947 104.922 18.3113 104.539 17.91C104.156 17.4993 103.634 17.294 102.971 17.294C102.299 17.294 101.762 17.504 101.361 17.924C100.969 18.344 100.773 18.9553 100.773 19.758V24H99.4989V16.328H100.773V17.42C101.025 17.028 101.366 16.7247 101.795 16.51C102.234 16.2953 102.714 16.188 103.237 16.188ZM111.17 24.126C110.582 24.126 110.055 24.028 109.588 23.832C109.121 23.6267 108.753 23.3467 108.482 22.992C108.211 22.628 108.062 22.2127 108.034 21.746H109.35C109.387 22.1287 109.565 22.4413 109.882 22.684C110.209 22.9267 110.633 23.048 111.156 23.048C111.641 23.048 112.024 22.9407 112.304 22.726C112.584 22.5113 112.724 22.2407 112.724 21.914C112.724 21.578 112.575 21.3307 112.276 21.172C111.977 21.004 111.515 20.8407 110.89 20.682C110.321 20.5327 109.854 20.3833 109.49 20.234C109.135 20.0753 108.827 19.8467 108.566 19.548C108.314 19.24 108.188 18.8387 108.188 18.344C108.188 17.952 108.305 17.5927 108.538 17.266C108.771 16.9393 109.103 16.6827 109.532 16.496C109.961 16.3 110.451 16.202 111.002 16.202C111.851 16.202 112.537 16.4167 113.06 16.846C113.583 17.2753 113.863 17.8633 113.9 18.61H112.626C112.598 18.2087 112.435 17.8867 112.136 17.644C111.847 17.4013 111.455 17.28 110.96 17.28C110.503 17.28 110.139 17.378 109.868 17.574C109.597 17.77 109.462 18.0267 109.462 18.344C109.462 18.596 109.541 18.806 109.7 18.974C109.868 19.1327 110.073 19.2633 110.316 19.366C110.568 19.4593 110.913 19.5667 111.352 19.688C111.903 19.8373 112.351 19.9867 112.696 20.136C113.041 20.276 113.335 20.4907 113.578 20.78C113.83 21.0693 113.961 21.4473 113.97 21.914C113.97 22.334 113.853 22.712 113.62 23.048C113.387 23.384 113.055 23.65 112.626 23.846C112.206 24.0327 111.721 24.126 111.17 24.126ZM122.768 19.87C122.768 20.1127 122.754 20.3693 122.726 20.64H116.594C116.641 21.396 116.898 21.9887 117.364 22.418C117.84 22.838 118.414 23.048 119.086 23.048C119.637 23.048 120.094 22.922 120.458 22.67C120.832 22.4087 121.093 22.0633 121.242 21.634H122.614C122.409 22.3713 121.998 22.9733 121.382 23.44C120.766 23.8973 120.001 24.126 119.086 24.126C118.358 24.126 117.705 23.9627 117.126 23.636C116.557 23.3093 116.109 22.8473 115.782 22.25C115.456 21.6433 115.292 20.9433 115.292 20.15C115.292 19.3567 115.451 18.6613 115.768 18.064C116.086 17.4667 116.529 17.0093 117.098 16.692C117.677 16.3653 118.34 16.202 119.086 16.202C119.814 16.202 120.458 16.3607 121.018 16.678C121.578 16.9953 122.008 17.434 122.306 17.994C122.614 18.5447 122.768 19.17 122.768 19.87ZM121.452 19.604C121.452 19.1187 121.345 18.7033 121.13 18.358C120.916 18.0033 120.622 17.7373 120.248 17.56C119.884 17.3733 119.478 17.28 119.03 17.28C118.386 17.28 117.836 17.4853 117.378 17.896C116.93 18.3067 116.674 18.876 116.608 19.604H121.452ZM127.166 24.126C126.578 24.126 126.051 24.028 125.584 23.832C125.117 23.6267 124.749 23.3467 124.478 22.992C124.207 22.628 124.058 22.2127 124.03 21.746H125.346C125.383 22.1287 125.561 22.4413 125.878 22.684C126.205 22.9267 126.629 23.048 127.152 23.048C127.637 23.048 128.02 22.9407 128.3 22.726C128.58 22.5113 128.72 22.2407 128.72 21.914C128.72 21.578 128.571 21.3307 128.272 21.172C127.973 21.004 127.511 20.8407 126.886 20.682C126.317 20.5327 125.85 20.3833 125.486 20.234C125.131 20.0753 124.823 19.8467 124.562 19.548C124.31 19.24 124.184 18.8387 124.184 18.344C124.184 17.952 124.301 17.5927 124.534 17.266C124.767 16.9393 125.099 16.6827 125.528 16.496C125.957 16.3 126.447 16.202 126.998 16.202C127.847 16.202 128.533 16.4167 129.056 16.846C129.579 17.2753 129.859 17.8633 129.896 18.61H128.622C128.594 18.2087 128.431 17.8867 128.132 17.644C127.843 17.4013 127.451 17.28 126.956 17.28C126.499 17.28 126.135 17.378 125.864 17.574C125.593 17.77 125.458 18.0267 125.458 18.344C125.458 18.596 125.537 18.806 125.696 18.974C125.864 19.1327 126.069 19.2633 126.312 19.366C126.564 19.4593 126.909 19.5667 127.348 19.688C127.899 19.8373 128.347 19.9867 128.692 20.136C129.037 20.276 129.331 20.4907 129.574 20.78C129.826 21.0693 129.957 21.4473 129.966 21.914C129.966 22.334 129.849 22.712 129.616 23.048C129.383 23.384 129.051 23.65 128.622 23.846C128.202 24.0327 127.717 24.126 127.166 24.126Z" fill="white"/>
</svg>
