<svg width="28" height="28" viewBox="0 0 28 28" fill="none" xmlns="http://www.w3.org/2000/svg">
<path d="M12.8335 2.33325C18.6295 2.33325 23.3335 7.03725 23.3335 12.8333C23.3335 18.6293 18.6295 23.3333 12.8335 23.3333C7.0375 23.3333 2.3335 18.6293 2.3335 12.8333C2.3335 7.03725 7.0375 2.33325 12.8335 2.33325ZM12.8335 20.9999C17.3456 20.9999 21.0002 17.3453 21.0002 12.8333C21.0002 8.32117 17.3456 4.66659 12.8335 4.66659C8.32141 4.66659 4.66683 8.32117 4.66683 12.8333C4.66683 17.3453 8.32141 20.9999 12.8335 20.9999ZM22.733 21.0829L26.0328 24.3827L24.3829 26.0326L21.0831 22.7328L22.733 21.0829Z" fill="#727272"/>
</svg>
