<svg width="24" height="11" viewBox="0 0 24 11" fill="none" xmlns="http://www.w3.org/2000/svg">
<rect x="0.6" y="0.1" width="22.8" height="10.8" rx="3.9" fill="#7F32CD" fill-opacity="0.2"/>
<rect x="0.6" y="0.1" width="22.8" height="10.8" rx="3.9" stroke="#7F32CD" stroke-width="0.2"/>
<path d="M4.9794 8V3.63636H6.57741C6.88707 3.63636 7.14347 3.6875 7.34659 3.78977C7.54972 3.89062 7.7017 4.0277 7.80256 4.20099C7.90341 4.37287 7.95384 4.56676 7.95384 4.78267C7.95384 4.96449 7.92045 5.1179 7.85369 5.2429C7.78693 5.36648 7.69744 5.46591 7.58523 5.54119C7.47443 5.61506 7.35227 5.66903 7.21875 5.70312V5.74574C7.36364 5.75284 7.50497 5.79972 7.64276 5.88636C7.78196 5.97159 7.89702 6.09304 7.98793 6.25071C8.07884 6.40838 8.12429 6.60014 8.12429 6.82599C8.12429 7.04901 8.07173 7.24929 7.96662 7.42685C7.86293 7.60298 7.70241 7.7429 7.48509 7.84659C7.26776 7.94886 6.99006 8 6.65199 8H4.9794ZM5.63778 7.43537H6.58807C6.90341 7.43537 7.12926 7.37429 7.26562 7.25213C7.40199 7.12997 7.47017 6.97727 7.47017 6.79403C7.47017 6.65625 7.43537 6.52983 7.36577 6.41477C7.29616 6.29972 7.19673 6.2081 7.06747 6.13991C6.93963 6.07173 6.78764 6.03764 6.61151 6.03764H5.63778V7.43537ZM5.63778 5.52415H6.51989C6.66761 5.52415 6.80043 5.49574 6.91832 5.43892C7.03764 5.3821 7.1321 5.30256 7.2017 5.20028C7.27273 5.09659 7.30824 4.97443 7.30824 4.83381C7.30824 4.65341 7.24503 4.50213 7.11861 4.37997C6.99219 4.25781 6.7983 4.19673 6.53693 4.19673H5.63778V5.52415ZM10.2326 8.06605C9.92578 8.06605 9.65803 7.99574 9.42933 7.85511C9.20064 7.71449 9.02308 7.51776 8.89666 7.26491C8.77024 7.01207 8.70703 6.71662 8.70703 6.37855C8.70703 6.03906 8.77024 5.74219 8.89666 5.48793C9.02308 5.23366 9.20064 5.03622 9.42933 4.8956C9.65803 4.75497 9.92578 4.68466 10.2326 4.68466C10.5394 4.68466 10.8072 4.75497 11.0359 4.8956C11.2646 5.03622 11.4421 5.23366 11.5685 5.48793C11.695 5.74219 11.7582 6.03906 11.7582 6.37855C11.7582 6.71662 11.695 7.01207 11.5685 7.26491C11.4421 7.51776 11.2646 7.71449 11.0359 7.85511C10.8072 7.99574 10.5394 8.06605 10.2326 8.06605ZM10.2347 7.53125C10.4336 7.53125 10.5984 7.47869 10.729 7.37358C10.8597 7.26847 10.9563 7.12855 11.0188 6.95384C11.0827 6.77912 11.1147 6.58665 11.1147 6.37642C11.1147 6.16761 11.0827 5.97585 11.0188 5.80114C10.9563 5.625 10.8597 5.48366 10.729 5.37713C10.5984 5.2706 10.4336 5.21733 10.2347 5.21733C10.0344 5.21733 9.86825 5.2706 9.73615 5.37713C9.60547 5.48366 9.50817 5.625 9.44425 5.80114C9.38175 5.97585 9.3505 6.16761 9.3505 6.37642C9.3505 6.58665 9.38175 6.77912 9.44425 6.95384C9.50817 7.12855 9.60547 7.26847 9.73615 7.37358C9.86825 7.47869 10.0344 7.53125 10.2347 7.53125ZM12.7607 9.22727C12.6655 9.22727 12.5788 9.21946 12.5007 9.20384C12.4226 9.18963 12.3643 9.17401 12.326 9.15696L12.4794 8.63494C12.5959 8.66619 12.6996 8.67969 12.7905 8.67543C12.8814 8.67116 12.9616 8.63707 13.0312 8.57315C13.1023 8.50923 13.1648 8.40483 13.2188 8.25994L13.2976 8.04261L12.1001 4.72727H12.782L13.6108 7.26705H13.6449L14.4737 4.72727H15.1577L13.8089 8.43679C13.7464 8.60724 13.6669 8.75142 13.5703 8.86932C13.4737 8.98864 13.3587 9.07813 13.2251 9.13778C13.0916 9.19744 12.9368 9.22727 12.7607 9.22727ZM18.2088 5.52628L17.6314 5.62855C17.6072 5.55469 17.5689 5.48437 17.5163 5.41761C17.4652 5.35085 17.3956 5.29616 17.3075 5.25355C17.2195 5.21094 17.1094 5.18963 16.9773 5.18963C16.7969 5.18963 16.6463 5.23011 16.5256 5.31108C16.4048 5.39062 16.3445 5.49361 16.3445 5.62003C16.3445 5.7294 16.3849 5.81747 16.4659 5.88423C16.5469 5.95099 16.6776 6.00568 16.858 6.0483L17.3778 6.16761C17.679 6.23722 17.9034 6.34446 18.0511 6.48935C18.1989 6.63423 18.2727 6.82244 18.2727 7.05398C18.2727 7.25 18.2159 7.42472 18.1023 7.57812C17.9901 7.73011 17.8331 7.84943 17.6314 7.93608C17.4311 8.02273 17.1989 8.06605 16.9347 8.06605C16.5682 8.06605 16.2692 7.98793 16.0376 7.83168C15.8061 7.67401 15.6641 7.45028 15.6115 7.16051L16.2273 7.06676C16.2656 7.22727 16.3445 7.34872 16.4638 7.43111C16.5831 7.51207 16.7386 7.55256 16.9304 7.55256C17.1392 7.55256 17.3061 7.50923 17.4311 7.42259C17.5561 7.33452 17.6186 7.22727 17.6186 7.10085C17.6186 6.99858 17.5803 6.91264 17.5036 6.84304C17.4283 6.77344 17.3125 6.72088 17.1562 6.68537L16.6023 6.56392C16.2969 6.49432 16.071 6.38352 15.9247 6.23153C15.7798 6.07955 15.7074 5.88707 15.7074 5.65412C15.7074 5.46094 15.7614 5.2919 15.8693 5.14702C15.9773 5.00213 16.1264 4.8892 16.3168 4.80824C16.5071 4.72585 16.7251 4.68466 16.9709 4.68466C17.3246 4.68466 17.603 4.76136 17.8061 4.91477C18.0092 5.06676 18.1435 5.2706 18.2088 5.52628Z" fill="#7F32CD"/>
</svg>
