<svg width="23" height="11" viewBox="0 0 23 11" fill="none" xmlns="http://www.w3.org/2000/svg">
<rect x="0.6" y="0.1" width="21.8" height="10.8" rx="3.9" fill="#FF48E2" fill-opacity="0.2"/>
<rect x="0.6" y="0.1" width="21.8" height="10.8" rx="3.9" stroke="#FF41E0" stroke-width="0.2"/>
<path d="M7.93253 5.01491C7.89134 4.88565 7.83594 4.76989 7.76634 4.66761C7.69815 4.56392 7.61648 4.47585 7.52131 4.40341C7.42614 4.32955 7.31747 4.27344 7.19531 4.23509C7.07457 4.19673 6.94176 4.17756 6.79688 4.17756C6.55114 4.17756 6.32955 4.24077 6.1321 4.36719C5.93466 4.49361 5.77841 4.67898 5.66335 4.9233C5.54972 5.16619 5.4929 5.46378 5.4929 5.81605C5.4929 6.16974 5.55043 6.46875 5.66548 6.71307C5.78054 6.95739 5.93821 7.14276 6.13849 7.26918C6.33878 7.3956 6.56676 7.45881 6.82244 7.45881C7.05966 7.45881 7.26634 7.41051 7.44247 7.31392C7.62003 7.21733 7.7571 7.08097 7.85369 6.90483C7.9517 6.72727 8.00071 6.51847 8.00071 6.27841L8.17116 6.31037H6.92259V5.76705H8.63778V6.26349C8.63778 6.62997 8.55966 6.94815 8.40341 7.21804C8.24858 7.48651 8.03409 7.69389 7.75994 7.8402C7.48722 7.98651 7.17472 8.05966 6.82244 8.05966C6.42756 8.05966 6.08097 7.96875 5.78267 7.78693C5.4858 7.60511 5.25426 7.3473 5.08807 7.01349C4.92188 6.67827 4.83878 6.28054 4.83878 5.82031C4.83878 5.4723 4.88707 5.1598 4.98366 4.88281C5.08026 4.60582 5.21591 4.37074 5.39062 4.17756C5.56676 3.98295 5.77344 3.83452 6.01065 3.73224C6.24929 3.62855 6.50994 3.5767 6.79261 3.5767C7.02841 3.5767 7.24787 3.61151 7.45099 3.68111C7.65554 3.75071 7.83736 3.84943 7.99645 3.97727C8.15696 4.10511 8.28977 4.2571 8.39489 4.43324C8.5 4.60795 8.57102 4.80185 8.60795 5.01491H7.93253ZM9.62749 8V4.72727H10.2646V8H9.62749ZM9.94922 4.2223C9.83842 4.2223 9.74325 4.18537 9.66371 4.11151C9.58558 4.03622 9.54652 3.94673 9.54652 3.84304C9.54652 3.73793 9.58558 3.64844 9.66371 3.57457C9.74325 3.49929 9.83842 3.46165 9.94922 3.46165C10.06 3.46165 10.1545 3.49929 10.2326 3.57457C10.3121 3.64844 10.3519 3.73793 10.3519 3.84304C10.3519 3.94673 10.3121 4.03622 10.2326 4.11151C10.1545 4.18537 10.06 4.2223 9.94922 4.2223ZM11.1216 8V4.72727H11.7374V5.24716H11.7715C11.8311 5.07102 11.9363 4.93253 12.0868 4.83168C12.2388 4.7294 12.4107 4.67827 12.6025 4.67827C12.6422 4.67827 12.6891 4.67969 12.7431 4.68253C12.7985 4.68537 12.8418 4.68892 12.873 4.69318V5.30256C12.8475 5.29545 12.802 5.28764 12.7367 5.27912C12.6713 5.26918 12.606 5.2642 12.5407 5.2642C12.3901 5.2642 12.2559 5.29616 12.138 5.36009C12.0215 5.42259 11.9292 5.50994 11.861 5.62216C11.7928 5.73295 11.7587 5.85937 11.7587 6.00142V8H11.1216ZM14.0614 3.63636V8H13.4244V3.63636H14.0614ZM17.3709 5.52628L16.7935 5.62855C16.7694 5.55469 16.731 5.48437 16.6784 5.41761C16.6273 5.35085 16.5577 5.29616 16.4696 5.25355C16.3816 5.21094 16.2715 5.18963 16.1394 5.18963C15.959 5.18963 15.8084 5.23011 15.6877 5.31108C15.5669 5.39062 15.5066 5.49361 15.5066 5.62003C15.5066 5.7294 15.5471 5.81747 15.628 5.88423C15.709 5.95099 15.8397 6.00568 16.0201 6.0483L16.54 6.16761C16.8411 6.23722 17.0655 6.34446 17.2132 6.48935C17.361 6.63423 17.4348 6.82244 17.4348 7.05398C17.4348 7.25 17.378 7.42472 17.2644 7.57812C17.1522 7.73011 16.9952 7.84943 16.7935 7.93608C16.5932 8.02273 16.361 8.06605 16.0968 8.06605C15.7303 8.06605 15.4313 7.98793 15.1998 7.83168C14.9682 7.67401 14.8262 7.45028 14.7736 7.16051L15.3894 7.06676C15.4277 7.22727 15.5066 7.34872 15.6259 7.43111C15.7452 7.51207 15.9007 7.55256 16.0925 7.55256C16.3013 7.55256 16.4682 7.50923 16.5932 7.42259C16.7182 7.33452 16.7807 7.22727 16.7807 7.10085C16.7807 6.99858 16.7424 6.91264 16.6657 6.84304C16.5904 6.77344 16.4746 6.72088 16.3184 6.68537L15.7644 6.56392C15.459 6.49432 15.2331 6.38352 15.0868 6.23153C14.9419 6.07955 14.8695 5.88707 14.8695 5.65412C14.8695 5.46094 14.9235 5.2919 15.0314 5.14702C15.1394 5.00213 15.2885 4.8892 15.4789 4.80824C15.6692 4.72585 15.8873 4.68466 16.133 4.68466C16.4867 4.68466 16.7651 4.76136 16.9682 4.91477C17.1713 5.06676 17.3056 5.2706 17.3709 5.52628Z" fill="#FF41E0"/>
</svg>
